G04*
G04 #@! TF.GenerationSoftware,Altium Limited,Altium Designer,26.2.0 (7)*
G04*
G04 Layer_Color=32896*
%FSLAX44Y44*%
%MOMM*%
G71*
G04*
G04 #@! TF.SameCoordinates,F9C0969B-AC44-43A8-838D-76D65E8214DD*
G04*
G04*
G04 #@! TF.FilePolarity,Positive*
G04*
G01*
G75*
%ADD10C,0.2500*%
%ADD12C,0.2000*%
%ADD13C,0.2540*%
%ADD98C,0.1000*%
%ADD99C,0.2032*%
%ADD100C,0.1016*%
%ADD101R,0.1854X0.6502*%
%ADD102R,1.7018X0.4572*%
%ADD103R,0.1651X0.5842*%
D10*
X1726500Y777339D02*
G03*
X1726500Y777339I-1250J0D01*
G01*
X1596746Y816487D02*
G03*
X1596746Y816487I-1250J0D01*
G01*
X1634500Y653420D02*
G03*
X1634500Y653420I-1250J0D01*
G01*
X1682730Y714680D02*
G03*
X1682730Y714680I-1250J0D01*
G01*
X1610692Y686517D02*
G03*
X1610692Y686517I-1250J0D01*
G01*
X1529090Y653100D02*
G03*
X1529090Y653100I-1250J0D01*
G01*
D12*
X1727957Y828822D02*
Y843547D01*
X1741683Y828822D02*
Y843547D01*
X1730350Y793339D02*
X1731500D01*
X1763000D02*
X1768800D01*
X1730350Y701839D02*
X1731500D01*
X1763000D02*
X1768800D01*
X1730350D02*
Y793339D01*
X1721340Y860820D02*
Y862820D01*
X1719340D02*
X1721340D01*
Y828820D02*
Y830820D01*
X1719340Y828820D02*
X1721340D01*
X1687340D02*
X1689340D01*
X1687340D02*
Y830820D01*
Y862820D02*
X1690440D01*
X1687340Y855470D02*
Y862820D01*
X1615997Y810738D02*
Y841237D01*
X1622997D01*
Y810738D02*
Y841237D01*
X1615997Y810738D02*
X1622997D01*
X1558414Y675104D02*
Y689828D01*
X1572139Y675104D02*
Y689828D01*
X1701090Y900590D02*
X1707590D01*
X1701090Y868590D02*
X1707590D01*
X1662830Y826758D02*
Y839482D01*
X1649330Y826758D02*
Y839482D01*
X1621710Y862280D02*
X1631710D01*
X1621710Y848280D02*
X1631710D01*
X1658250Y634670D02*
X1666000D01*
Y644670D01*
X1636000Y634670D02*
X1643750D01*
X1636000D02*
Y644670D01*
X1601255Y725790D02*
X1604755D01*
X1588005Y731040D02*
Y739790D01*
X1610755D02*
X1618005D01*
X1588005D02*
X1595255D01*
X1618005Y731040D02*
Y739790D01*
X1589282Y813058D02*
Y827782D01*
X1575558Y813058D02*
Y827782D01*
X1593384Y635099D02*
X1602351D01*
X1593384Y652681D02*
X1602351D01*
X1747120Y841397D02*
Y854122D01*
X1760620Y841397D02*
Y854122D01*
X1728577Y852590D02*
Y862590D01*
X1742578Y852590D02*
Y862590D01*
X1692830Y807040D02*
X1702830D01*
X1692830Y821040D02*
X1702830D01*
X1716260Y585540D02*
Y591040D01*
Y557040D02*
Y562540D01*
X1682260Y557040D02*
Y562540D01*
Y585540D02*
Y591040D01*
X1683860D01*
X1714660D02*
X1716260D01*
X1714660Y557040D02*
X1716260D01*
X1682260D02*
X1683860D01*
X1725417Y553978D02*
Y568702D01*
X1739143Y553978D02*
Y568702D01*
X1739030Y577838D02*
Y590563D01*
X1725530Y577838D02*
Y590563D01*
X1745600Y569040D02*
Y579040D01*
X1759600Y569040D02*
Y579040D01*
X1656700Y583010D02*
Y593010D01*
X1670700Y583010D02*
Y593010D01*
X1633840Y583010D02*
Y593010D01*
X1647840Y583010D02*
Y593010D01*
X1694740Y602490D02*
X1701240D01*
X1694740Y634490D02*
X1701240D01*
X1690980Y735930D02*
Y747430D01*
X1671980Y735930D02*
Y747430D01*
X1638828Y766068D02*
X1655552D01*
X1638828Y780792D02*
X1655552D01*
X1609603Y787470D02*
Y802195D01*
X1595877Y787470D02*
Y802195D01*
X1587330Y708560D02*
X1597830D01*
X1587330Y696060D02*
X1597830D01*
X1585080Y691517D02*
X1600080D01*
X1585080Y671518D02*
X1600080D01*
X1690358Y770490D02*
X1703083D01*
X1690358Y783990D02*
X1703083D01*
X1649217Y804643D02*
Y819368D01*
X1662943Y804643D02*
Y819368D01*
X1552840Y634350D02*
X1560590D01*
Y644350D01*
X1530590Y634350D02*
X1538340D01*
X1530590D02*
Y644350D01*
X1641436Y690781D02*
X1650404D01*
X1641436Y673199D02*
X1650404D01*
D13*
X1460341Y891461D02*
Y896699D01*
X1457721D01*
X1456848Y895826D01*
Y894080D01*
X1457721Y893207D01*
X1460341D01*
X1458594D02*
X1456848Y891461D01*
X1455102D02*
X1453356D01*
X1454229D01*
Y896699D01*
X1455102Y895826D01*
X1450737Y891461D02*
X1448991D01*
X1449864D01*
Y896699D01*
X1450737Y895826D01*
X1446372D02*
X1445499Y896699D01*
X1443753D01*
X1442879Y895826D01*
Y892334D01*
X1443753Y891461D01*
X1445499D01*
X1446372Y892334D01*
Y895826D01*
X1697315Y673576D02*
X1698188Y674449D01*
X1699934D01*
X1700807Y673576D01*
Y670084D01*
X1699934Y669211D01*
X1698188D01*
X1697315Y670084D01*
X1695569Y669211D02*
X1693823D01*
X1694696D01*
Y674449D01*
X1695569Y673576D01*
X1691203D02*
X1690330Y674449D01*
X1688584D01*
X1687711Y673576D01*
Y670084D01*
X1688584Y669211D01*
X1690330D01*
X1691203Y670084D01*
Y673576D01*
X1682473Y669211D02*
X1685965D01*
X1682473Y672703D01*
Y673576D01*
X1683346Y674449D01*
X1685092D01*
X1685965Y673576D01*
X1505545Y895826D02*
X1506418Y896699D01*
X1508164D01*
X1509037Y895826D01*
Y892334D01*
X1508164Y891461D01*
X1506418D01*
X1505545Y892334D01*
X1503799Y891461D02*
X1502053D01*
X1502926D01*
Y896699D01*
X1503799Y895826D01*
X1499433D02*
X1498560Y896699D01*
X1496814D01*
X1495941Y895826D01*
Y892334D01*
X1496814Y891461D01*
X1498560D01*
X1499433Y892334D01*
Y895826D01*
X1494195Y892334D02*
X1493322Y891461D01*
X1491576D01*
X1490703Y892334D01*
Y895826D01*
X1491576Y896699D01*
X1493322D01*
X1494195Y895826D01*
Y894953D01*
X1493322Y894080D01*
X1490703D01*
X1727673Y561345D02*
Y556107D01*
X1730292D01*
X1731165Y556980D01*
Y558726D01*
X1730292Y559599D01*
X1727673D01*
X1729419D02*
X1731165Y561345D01*
X1732911D02*
X1734657D01*
X1733784D01*
Y556107D01*
X1732911Y556980D01*
X1737276D02*
X1738150Y556107D01*
X1739896D01*
X1740769Y556980D01*
Y560472D01*
X1739896Y561345D01*
X1738150D01*
X1737276Y560472D01*
Y556980D01*
X1746007Y561345D02*
X1742515D01*
X1746007Y557853D01*
Y556980D01*
X1745134Y556107D01*
X1743388D01*
X1742515Y556980D01*
X1727856Y605869D02*
Y600631D01*
X1730475D01*
X1731348Y601504D01*
Y603250D01*
X1730475Y604123D01*
X1727856D01*
X1729602D02*
X1731348Y605869D01*
X1733094D02*
X1734840D01*
X1733967D01*
Y600631D01*
X1733094Y601504D01*
X1737460D02*
X1738333Y600631D01*
X1740079D01*
X1740952Y601504D01*
Y604996D01*
X1740079Y605869D01*
X1738333D01*
X1737460Y604996D01*
Y601504D01*
X1742698Y605869D02*
X1744444D01*
X1743571D01*
Y600631D01*
X1742698Y601504D01*
X1558845Y907256D02*
X1559718Y908129D01*
X1561464D01*
X1562337Y907256D01*
Y903764D01*
X1561464Y902891D01*
X1559718D01*
X1558845Y903764D01*
X1557099Y902891D02*
X1555353D01*
X1556226D01*
Y908129D01*
X1557099Y907256D01*
X1552734Y902891D02*
X1550988D01*
X1551861D01*
Y908129D01*
X1552734Y907256D01*
X1548369Y902891D02*
X1546623D01*
X1547496D01*
Y908129D01*
X1548369Y907256D01*
X1534755Y903764D02*
Y907256D01*
X1535628Y908129D01*
X1537374D01*
X1538247Y907256D01*
Y903764D01*
X1537374Y902891D01*
X1535628D01*
X1536501Y904637D02*
X1534755Y902891D01*
X1535628D02*
X1534755Y903764D01*
X1533009Y902891D02*
X1531263D01*
X1532136D01*
Y908129D01*
X1533009Y907256D01*
X1528643D02*
X1527770Y908129D01*
X1526024D01*
X1525151Y907256D01*
Y903764D01*
X1526024Y902891D01*
X1527770D01*
X1528643Y903764D01*
Y907256D01*
X1523405D02*
X1522532Y908129D01*
X1520786D01*
X1519913Y907256D01*
Y906383D01*
X1520786Y905510D01*
X1521659D01*
X1520786D01*
X1519913Y904637D01*
Y903764D01*
X1520786Y902891D01*
X1522532D01*
X1523405Y903764D01*
X1718301Y510537D02*
Y497842D01*
X1715762Y495303D01*
X1710684D01*
X1708145Y497842D01*
Y510537D01*
X1703066Y495303D02*
X1697988D01*
X1700527D01*
Y510537D01*
X1703066Y507998D01*
X1690370D02*
X1687831Y510537D01*
X1682753D01*
X1680214Y507998D01*
Y497842D01*
X1682753Y495303D01*
X1687831D01*
X1690370Y497842D01*
Y507998D01*
X1675135D02*
X1672596Y510537D01*
X1667518D01*
X1664979Y507998D01*
Y505459D01*
X1667518Y502920D01*
X1670057D01*
X1667518D01*
X1664979Y500381D01*
Y497842D01*
X1667518Y495303D01*
X1672596D01*
X1675135Y497842D01*
X1764307Y896699D02*
Y892334D01*
X1763434Y891461D01*
X1761688D01*
X1760815Y892334D01*
Y896699D01*
X1759069Y891461D02*
X1757323D01*
X1758196D01*
Y896699D01*
X1759069Y895826D01*
X1754704D02*
X1753830Y896699D01*
X1752084D01*
X1751211Y895826D01*
Y892334D01*
X1752084Y891461D01*
X1753830D01*
X1754704Y892334D01*
Y895826D01*
X1745973Y891461D02*
X1749465D01*
X1745973Y894953D01*
Y895826D01*
X1746846Y896699D01*
X1748592D01*
X1749465Y895826D01*
X1740574Y896699D02*
Y892334D01*
X1739701Y891461D01*
X1737955D01*
X1737082Y892334D01*
Y896699D01*
X1735336Y891461D02*
X1733590D01*
X1734463D01*
Y896699D01*
X1735336Y895826D01*
X1730970D02*
X1730097Y896699D01*
X1728351D01*
X1727478Y895826D01*
Y892334D01*
X1728351Y891461D01*
X1730097D01*
X1730970Y892334D01*
Y895826D01*
X1725732Y891461D02*
X1723986D01*
X1724859D01*
Y896699D01*
X1725732Y895826D01*
X1431527Y902891D02*
Y908129D01*
X1428908D01*
X1428035Y907256D01*
Y905510D01*
X1428908Y904637D01*
X1431527D01*
X1429781D02*
X1428035Y902891D01*
X1426289D02*
X1424543D01*
X1425416D01*
Y908129D01*
X1426289Y907256D01*
X1421924Y902891D02*
X1420178D01*
X1421051D01*
Y908129D01*
X1421924Y907256D01*
X1417559Y902891D02*
X1415813D01*
X1416686D01*
Y908129D01*
X1417559Y907256D01*
X1484907Y891461D02*
Y896699D01*
X1482288D01*
X1481415Y895826D01*
Y894080D01*
X1482288Y893207D01*
X1484907D01*
X1483161D02*
X1481415Y891461D01*
X1479669D02*
X1477923D01*
X1478796D01*
Y896699D01*
X1479669Y895826D01*
X1475303D02*
X1474430Y896699D01*
X1472684D01*
X1471811Y895826D01*
Y892334D01*
X1472684Y891461D01*
X1474430D01*
X1475303Y892334D01*
Y895826D01*
X1470065Y892334D02*
X1469192Y891461D01*
X1467446D01*
X1466573Y892334D01*
Y895826D01*
X1467446Y896699D01*
X1469192D01*
X1470065Y895826D01*
Y894953D01*
X1469192Y894080D01*
X1466573D01*
X1482367Y902891D02*
Y908129D01*
X1479748D01*
X1478875Y907256D01*
Y905510D01*
X1479748Y904637D01*
X1482367D01*
X1480621D02*
X1478875Y902891D01*
X1477129D02*
X1475383D01*
X1476256D01*
Y908129D01*
X1477129Y907256D01*
X1472764D02*
X1471890Y908129D01*
X1470144D01*
X1469271Y907256D01*
Y903764D01*
X1470144Y902891D01*
X1471890D01*
X1472764Y903764D01*
Y907256D01*
X1467525D02*
X1466652Y908129D01*
X1464906D01*
X1464033Y907256D01*
Y906383D01*
X1464906Y905510D01*
X1464033Y904637D01*
Y903764D01*
X1464906Y902891D01*
X1466652D01*
X1467525Y903764D01*
Y904637D01*
X1466652Y905510D01*
X1467525Y906383D01*
Y907256D01*
X1466652Y905510D02*
X1464906D01*
X1754147Y680641D02*
Y685879D01*
X1751528D01*
X1750655Y685006D01*
Y683260D01*
X1751528Y682387D01*
X1754147D01*
X1752401D02*
X1750655Y680641D01*
X1748909D02*
X1747163D01*
X1748036D01*
Y685879D01*
X1748909Y685006D01*
X1744543D02*
X1743670Y685879D01*
X1741924D01*
X1741051Y685006D01*
Y681514D01*
X1741924Y680641D01*
X1743670D01*
X1744543Y681514D01*
Y685006D01*
X1739305Y685879D02*
X1735813D01*
Y685006D01*
X1739305Y681514D01*
Y680641D01*
X1718587Y880031D02*
Y885269D01*
X1715968D01*
X1715095Y884396D01*
Y882650D01*
X1715968Y881777D01*
X1718587D01*
X1716841D02*
X1715095Y880031D01*
X1713349D02*
X1711603D01*
X1712476D01*
Y885269D01*
X1713349Y884396D01*
X1708983D02*
X1708110Y885269D01*
X1706364D01*
X1705491Y884396D01*
Y880904D01*
X1706364Y880031D01*
X1708110D01*
X1708983Y880904D01*
Y884396D01*
X1701126Y880031D02*
Y885269D01*
X1703745Y882650D01*
X1700253D01*
X1724937Y680641D02*
Y685879D01*
X1722318D01*
X1721445Y685006D01*
Y683260D01*
X1722318Y682387D01*
X1724937D01*
X1723191D02*
X1721445Y680641D01*
X1719699D02*
X1717953D01*
X1718826D01*
Y685879D01*
X1719699Y685006D01*
X1715334D02*
X1714460Y685879D01*
X1712714D01*
X1711841Y685006D01*
Y681514D01*
X1712714Y680641D01*
X1714460D01*
X1715334Y681514D01*
Y685006D01*
X1710095D02*
X1709222Y685879D01*
X1707476D01*
X1706603Y685006D01*
Y684133D01*
X1707476Y683260D01*
X1708349D01*
X1707476D01*
X1706603Y682387D01*
Y681514D01*
X1707476Y680641D01*
X1709222D01*
X1710095Y681514D01*
X1400532Y903764D02*
Y907256D01*
X1401405Y908129D01*
X1403151D01*
X1404024Y907256D01*
Y903764D01*
X1403151Y902891D01*
X1401405D01*
X1402278Y904637D02*
X1400532Y902891D01*
X1401405D02*
X1400532Y903764D01*
X1398786Y902891D02*
X1397040D01*
X1397913D01*
Y908129D01*
X1398786Y907256D01*
X1394420D02*
X1393547Y908129D01*
X1391801D01*
X1390928Y907256D01*
Y903764D01*
X1391801Y902891D01*
X1393547D01*
X1394420Y903764D01*
Y907256D01*
X1389182Y902891D02*
X1387436D01*
X1388309D01*
Y908129D01*
X1389182Y907256D01*
X1456967Y908129D02*
Y902891D01*
X1453475D01*
X1451729D02*
X1449983D01*
X1450856D01*
Y908129D01*
X1451729Y907256D01*
X1447363D02*
X1446490Y908129D01*
X1444744D01*
X1443871Y907256D01*
Y903764D01*
X1444744Y902891D01*
X1446490D01*
X1447363Y903764D01*
Y907256D01*
X1438633Y902891D02*
X1442125D01*
X1438633Y906383D01*
Y907256D01*
X1439506Y908129D01*
X1441252D01*
X1442125Y907256D01*
X1764704Y885269D02*
Y880031D01*
X1761212D01*
X1759466D02*
X1757720D01*
X1758593D01*
Y885269D01*
X1759466Y884396D01*
X1755100D02*
X1754227Y885269D01*
X1752481D01*
X1751608Y884396D01*
Y880904D01*
X1752481Y880031D01*
X1754227D01*
X1755100Y880904D01*
Y884396D01*
X1749862Y880031D02*
X1748116D01*
X1748989D01*
Y885269D01*
X1749862Y884396D01*
X1533359Y897529D02*
X1535105D01*
X1534232D01*
Y893163D01*
X1535105Y892290D01*
X1535978D01*
X1536851Y893163D01*
X1531613Y892290D02*
X1529867D01*
X1530740D01*
Y897529D01*
X1531613Y896656D01*
X1527248D02*
X1526375Y897529D01*
X1524629D01*
X1523755Y896656D01*
Y893163D01*
X1524629Y892290D01*
X1526375D01*
X1527248Y893163D01*
Y896656D01*
X1522009Y892290D02*
X1520263D01*
X1521136D01*
Y897529D01*
X1522009Y896656D01*
X1755893Y674449D02*
Y669211D01*
X1753274D01*
X1752401Y670084D01*
Y673576D01*
X1753274Y674449D01*
X1755893D01*
X1747163Y673576D02*
X1748036Y674449D01*
X1749782D01*
X1750655Y673576D01*
Y672703D01*
X1749782Y671830D01*
X1748036D01*
X1747163Y670957D01*
Y670084D01*
X1748036Y669211D01*
X1749782D01*
X1750655Y670084D01*
X1745417Y669211D02*
X1743670D01*
X1744543D01*
Y674449D01*
X1745417Y673576D01*
X1741051D02*
X1740178Y674449D01*
X1738432D01*
X1737559Y673576D01*
Y670084D01*
X1738432Y669211D01*
X1740178D01*
X1741051Y670084D01*
Y673576D01*
X1735813Y669211D02*
X1734067D01*
X1734940D01*
Y674449D01*
X1735813Y673576D01*
X1714658Y895826D02*
X1715531Y896699D01*
X1717277D01*
X1718150Y895826D01*
Y892334D01*
X1717277Y891461D01*
X1715531D01*
X1714658Y892334D01*
X1712912Y891461D02*
X1711166D01*
X1712039D01*
Y896699D01*
X1712912Y895826D01*
X1708547Y891461D02*
X1706801D01*
X1707674D01*
Y896699D01*
X1708547Y895826D01*
X1704182D02*
X1703309Y896699D01*
X1701563D01*
X1700690Y895826D01*
Y892334D01*
X1701563Y891461D01*
X1703309D01*
X1704182Y892334D01*
Y895826D01*
X1781135Y673576D02*
X1782008Y674449D01*
X1783754D01*
X1784627Y673576D01*
Y670084D01*
X1783754Y669211D01*
X1782008D01*
X1781135Y670084D01*
X1779389Y669211D02*
X1777643D01*
X1778516D01*
Y674449D01*
X1779389Y673576D01*
X1775023D02*
X1774150Y674449D01*
X1772404D01*
X1771531Y673576D01*
Y670084D01*
X1772404Y669211D01*
X1774150D01*
X1775023Y670084D01*
Y673576D01*
X1769785Y674449D02*
X1766293D01*
Y673576D01*
X1769785Y670084D01*
Y669211D01*
X1505545Y907256D02*
X1506418Y908129D01*
X1508164D01*
X1509037Y907256D01*
Y903764D01*
X1508164Y902891D01*
X1506418D01*
X1505545Y903764D01*
X1503799Y902891D02*
X1502053D01*
X1502926D01*
Y908129D01*
X1503799Y907256D01*
X1499433D02*
X1498560Y908129D01*
X1496814D01*
X1495941Y907256D01*
Y903764D01*
X1496814Y902891D01*
X1498560D01*
X1499433Y903764D01*
Y907256D01*
X1490703Y908129D02*
X1492449Y907256D01*
X1494195Y905510D01*
Y903764D01*
X1493322Y902891D01*
X1491576D01*
X1490703Y903764D01*
Y904637D01*
X1491576Y905510D01*
X1494195D01*
X1739225Y884396D02*
X1740098Y885269D01*
X1741844D01*
X1742717Y884396D01*
Y880904D01*
X1741844Y880031D01*
X1740098D01*
X1739225Y880904D01*
X1737479Y880031D02*
X1735733D01*
X1736606D01*
Y885269D01*
X1737479Y884396D01*
X1733114D02*
X1732240Y885269D01*
X1730494D01*
X1729621Y884396D01*
Y880904D01*
X1730494Y880031D01*
X1732240D01*
X1733114Y880904D01*
Y884396D01*
X1724383Y885269D02*
X1727875D01*
Y882650D01*
X1726129Y883523D01*
X1725256D01*
X1724383Y882650D01*
Y880904D01*
X1725256Y880031D01*
X1727002D01*
X1727875Y880904D01*
X1426805Y895826D02*
X1427678Y896699D01*
X1429424D01*
X1430297Y895826D01*
Y892334D01*
X1429424Y891461D01*
X1427678D01*
X1426805Y892334D01*
X1425059Y891461D02*
X1423313D01*
X1424186D01*
Y896699D01*
X1425059Y895826D01*
X1420694D02*
X1419820Y896699D01*
X1418074D01*
X1417201Y895826D01*
Y892334D01*
X1418074Y891461D01*
X1419820D01*
X1420694Y892334D01*
Y895826D01*
X1412836Y891461D02*
Y896699D01*
X1415455Y894080D01*
X1411963D01*
X1696045Y685006D02*
X1696918Y685879D01*
X1698664D01*
X1699537Y685006D01*
Y681514D01*
X1698664Y680641D01*
X1696918D01*
X1696045Y681514D01*
X1694299Y680641D02*
X1692553D01*
X1693426D01*
Y685879D01*
X1694299Y685006D01*
X1689933D02*
X1689060Y685879D01*
X1687314D01*
X1686441Y685006D01*
Y681514D01*
X1687314Y680641D01*
X1689060D01*
X1689933Y681514D01*
Y685006D01*
X1684695D02*
X1683822Y685879D01*
X1682076D01*
X1681203Y685006D01*
Y684133D01*
X1682076Y683260D01*
X1682949D01*
X1682076D01*
X1681203Y682387D01*
Y681514D01*
X1682076Y680641D01*
X1683822D01*
X1684695Y681514D01*
X1401802Y895826D02*
X1402675Y896699D01*
X1404421D01*
X1405294Y895826D01*
Y892334D01*
X1404421Y891461D01*
X1402675D01*
X1401802Y892334D01*
X1400056Y891461D02*
X1398310D01*
X1399183D01*
Y896699D01*
X1400056Y895826D01*
X1395690D02*
X1394817Y896699D01*
X1393071D01*
X1392198Y895826D01*
Y892334D01*
X1393071Y891461D01*
X1394817D01*
X1395690Y892334D01*
Y895826D01*
X1390452Y891461D02*
X1388706D01*
X1389579D01*
Y896699D01*
X1390452Y895826D01*
D98*
X1684360Y595040D02*
G03*
X1684360Y595040I-500J0D01*
G01*
D99*
X1615567Y771002D02*
G03*
X1617726Y768843I2159J0D01*
G01*
X1628394D02*
G03*
X1630553Y771002I0J2159D01*
G01*
X1617726Y800877D02*
G03*
X1615567Y798718I0J-2159D01*
G01*
X1630553D02*
G03*
X1628394Y800877I-2159J0D01*
G01*
X1615567Y771002D02*
Y798718D01*
X1630553Y771002D02*
Y798718D01*
X1617726Y768843D02*
X1628394D01*
X1617726Y800877D02*
X1628394D01*
D100*
X1471930Y495303D02*
Y501650D01*
X1473200Y502920D01*
X1475739D01*
X1477008Y501650D01*
Y495303D01*
X1479547Y502920D02*
X1482087D01*
X1480817D01*
Y495303D01*
X1479547Y496572D01*
X1485896D02*
X1487165Y495303D01*
X1489704D01*
X1490974Y496572D01*
Y501650D01*
X1489704Y502920D01*
X1487165D01*
X1485896Y501650D01*
Y496572D01*
X1498591Y502920D02*
X1493513D01*
X1498591Y497842D01*
Y496572D01*
X1497322Y495303D01*
X1494783D01*
X1493513Y496572D01*
X1508760Y495303D02*
Y501650D01*
X1510030Y502920D01*
X1512569D01*
X1513838Y501650D01*
Y495303D01*
X1516378Y502920D02*
X1518917D01*
X1517647D01*
Y495303D01*
X1516378Y496572D01*
X1522726D02*
X1523995Y495303D01*
X1526534D01*
X1527804Y496572D01*
Y501650D01*
X1526534Y502920D01*
X1523995D01*
X1522726Y501650D01*
Y496572D01*
X1530343D02*
X1531613Y495303D01*
X1534152D01*
X1535421Y496572D01*
Y497842D01*
X1534152Y499111D01*
X1532882D01*
X1534152D01*
X1535421Y500381D01*
Y501650D01*
X1534152Y502920D01*
X1531613D01*
X1530343Y501650D01*
D101*
X1615480Y799431D02*
D03*
D102*
X1623062Y802301D02*
D03*
D103*
X1630746Y799761D02*
D03*
M02*
