G04*
G04 #@! TF.GenerationSoftware,Altium Limited,Altium Designer,26.2.0 (7)*
G04*
G04 Layer_Color=16711935*
%FSLAX44Y44*%
%MOMM*%
G71*
G04*
G04 #@! TF.SameCoordinates,F9C0969B-AC44-43A8-838D-76D65E8214DD*
G04*
G04*
G04 #@! TF.FilePolarity,Negative*
G04*
G01*
G75*
%ADD15R,0.6000X0.4500*%
%ADD34R,0.6700X0.6200*%
%ADD43C,0.6500*%
G04:AMPARAMS|DCode=44|XSize=0.9mm|YSize=2.4mm|CornerRadius=0.45mm|HoleSize=0mm|Usage=FLASHONLY|Rotation=270.000|XOffset=0mm|YOffset=0mm|HoleType=Round|Shape=RoundedRectangle|*
%AMROUNDEDRECTD44*
21,1,0.9000,1.5000,0,0,270.0*
21,1,0.0000,2.4000,0,0,270.0*
1,1,0.9000,-0.7500,0.0000*
1,1,0.9000,-0.7500,0.0000*
1,1,0.9000,0.7500,0.0000*
1,1,0.9000,0.7500,0.0000*
%
%ADD44ROUNDEDRECTD44*%
G04:AMPARAMS|DCode=45|XSize=0.9mm|YSize=1.7mm|CornerRadius=0.45mm|HoleSize=0mm|Usage=FLASHONLY|Rotation=270.000|XOffset=0mm|YOffset=0mm|HoleType=Round|Shape=RoundedRectangle|*
%AMROUNDEDRECTD45*
21,1,0.9000,0.8000,0,0,270.0*
21,1,0.0000,1.7000,0,0,270.0*
1,1,0.9000,-0.4000,0.0000*
1,1,0.9000,-0.4000,0.0000*
1,1,0.9000,0.4000,0.0000*
1,1,0.9000,0.4000,0.0000*
%
%ADD45ROUNDEDRECTD45*%
%ADD46C,1.3900*%
%ADD47R,1.3900X1.3900*%
%ADD48C,0.6200*%
%ADD49C,0.7200*%
%ADD50C,0.7700*%
%ADD51C,1.5040*%
%ADD60R,0.5725X0.6153*%
%ADD63R,1.2557X1.7582*%
%ADD64R,0.6000X0.5000*%
%ADD65R,0.5725X0.5682*%
%ADD67R,0.4682X0.4725*%
%ADD68R,0.4500X0.6000*%
%ADD70R,0.4725X0.5153*%
G04:AMPARAMS|DCode=71|XSize=1.1mm|YSize=0.6mm|CornerRadius=0.051mm|HoleSize=0mm|Usage=FLASHONLY|Rotation=0.000|XOffset=0mm|YOffset=0mm|HoleType=Round|Shape=RoundedRectangle|*
%AMROUNDEDRECTD71*
21,1,1.1000,0.4980,0,0,0.0*
21,1,0.9980,0.6000,0,0,0.0*
1,1,0.1020,0.4990,-0.2490*
1,1,0.1020,-0.4990,-0.2490*
1,1,0.1020,-0.4990,0.2490*
1,1,0.1020,0.4990,0.2490*
%
%ADD71ROUNDEDRECTD71*%
%ADD72R,1.4000X1.2000*%
%ADD73R,0.6654X0.6725*%
%ADD74R,0.8000X0.9000*%
%ADD75R,0.8000X2.7000*%
%ADD76R,0.4725X0.4682*%
%ADD77R,1.0000X1.0000*%
%ADD79R,0.9654X0.2425*%
G04:AMPARAMS|DCode=80|XSize=0.9654mm|YSize=0.2425mm|CornerRadius=0.1212mm|HoleSize=0mm|Usage=FLASHONLY|Rotation=180.000|XOffset=0mm|YOffset=0mm|HoleType=Round|Shape=RoundedRectangle|*
%AMROUNDEDRECTD80*
21,1,0.9654,0.0000,0,0,180.0*
21,1,0.7229,0.2425,0,0,180.0*
1,1,0.2425,-0.3614,0.0000*
1,1,0.2425,0.3614,0.0000*
1,1,0.2425,0.3614,0.0000*
1,1,0.2425,-0.3614,0.0000*
%
%ADD80ROUNDEDRECTD80*%
G04:AMPARAMS|DCode=84|XSize=0.36mm|YSize=0.72mm|CornerRadius=0.1104mm|HoleSize=0mm|Usage=FLASHONLY|Rotation=180.000|XOffset=0mm|YOffset=0mm|HoleType=Round|Shape=RoundedRectangle|*
%AMROUNDEDRECTD84*
21,1,0.3600,0.4992,0,0,180.0*
21,1,0.1392,0.7200,0,0,180.0*
1,1,0.2208,-0.0696,0.2496*
1,1,0.2208,0.0696,0.2496*
1,1,0.2208,0.0696,-0.2496*
1,1,0.2208,-0.0696,-0.2496*
%
%ADD84ROUNDEDRECTD84*%
G04:AMPARAMS|DCode=85|XSize=1.77mm|YSize=2.52mm|CornerRadius=0.1095mm|HoleSize=0mm|Usage=FLASHONLY|Rotation=270.000|XOffset=0mm|YOffset=0mm|HoleType=Round|Shape=RoundedRectangle|*
%AMROUNDEDRECTD85*
21,1,1.7700,2.3010,0,0,270.0*
21,1,1.5510,2.5200,0,0,270.0*
1,1,0.2190,-1.1505,-0.7755*
1,1,0.2190,-1.1505,0.7755*
1,1,0.2190,1.1505,0.7755*
1,1,0.2190,1.1505,-0.7755*
%
%ADD85ROUNDEDRECTD85*%
G04:AMPARAMS|DCode=86|XSize=0.42mm|YSize=0.99mm|CornerRadius=0.1204mm|HoleSize=0mm|Usage=FLASHONLY|Rotation=180.000|XOffset=0mm|YOffset=0mm|HoleType=Round|Shape=RoundedRectangle|*
%AMROUNDEDRECTD86*
21,1,0.4200,0.7492,0,0,180.0*
21,1,0.1792,0.9900,0,0,180.0*
1,1,0.2408,-0.0896,0.3746*
1,1,0.2408,0.0896,0.3746*
1,1,0.2408,0.0896,-0.3746*
1,1,0.2408,-0.0896,-0.3746*
%
%ADD86ROUNDEDRECTD86*%
G04:AMPARAMS|DCode=87|XSize=1.79mm|YSize=2.54mm|CornerRadius=0.1195mm|HoleSize=0mm|Usage=FLASHONLY|Rotation=270.000|XOffset=0mm|YOffset=0mm|HoleType=Round|Shape=RoundedRectangle|*
%AMROUNDEDRECTD87*
21,1,1.7900,2.3010,0,0,270.0*
21,1,1.5510,2.5400,0,0,270.0*
1,1,0.2390,-1.1505,-0.7755*
1,1,0.2390,-1.1505,0.7755*
1,1,0.2390,1.1505,0.7755*
1,1,0.2390,1.1505,-0.7755*
%
%ADD87ROUNDEDRECTD87*%
%ADD88R,0.7700X1.0700*%
%ADD89R,1.2000X1.2500*%
%ADD90R,1.7040X1.2840*%
%ADD91R,1.7040X1.2840*%
D15*
X1640840Y583260D02*
D03*
X1663700Y583260D02*
D03*
X1752600Y569290D02*
D03*
X1735577Y852840D02*
D03*
Y862340D02*
D03*
X1752600Y578790D02*
D03*
X1663700Y592760D02*
D03*
X1640840D02*
D03*
D34*
X1716460Y721286D02*
D03*
X1708960D02*
D03*
X1715710Y749300D02*
D03*
X1708210D02*
D03*
D43*
X1750950Y777339D02*
D03*
Y768840D02*
D03*
Y760339D02*
D03*
Y751839D02*
D03*
Y743339D02*
D03*
Y734840D02*
D03*
Y726339D02*
D03*
Y717839D02*
D03*
X1737450D02*
D03*
Y726339D02*
D03*
Y734840D02*
D03*
Y743339D02*
D03*
Y751839D02*
D03*
Y760339D02*
D03*
Y768840D02*
D03*
Y777339D02*
D03*
X1423750Y573310D02*
D03*
Y513810D02*
D03*
X1437250Y573310D02*
D03*
Y513810D02*
D03*
X1423750Y564810D02*
D03*
Y556310D02*
D03*
Y547810D02*
D03*
Y539310D02*
D03*
Y530810D02*
D03*
Y522310D02*
D03*
X1437250D02*
D03*
Y530810D02*
D03*
Y539310D02*
D03*
Y547810D02*
D03*
Y556310D02*
D03*
Y564810D02*
D03*
D44*
X1747250Y704339D02*
D03*
Y790839D02*
D03*
X1427450Y500310D02*
D03*
Y586810D02*
D03*
D45*
X1781050Y704339D02*
D03*
Y790839D02*
D03*
X1393650Y500310D02*
D03*
Y586810D02*
D03*
D46*
X1422080Y641370D02*
D03*
Y721370D02*
D03*
X1402080D02*
D03*
Y781370D02*
D03*
Y761370D02*
D03*
Y741370D02*
D03*
Y701370D02*
D03*
Y681370D02*
D03*
Y661370D02*
D03*
Y641370D02*
D03*
Y621370D02*
D03*
X1422080Y801370D02*
D03*
Y781370D02*
D03*
Y761370D02*
D03*
Y741370D02*
D03*
Y701370D02*
D03*
Y681370D02*
D03*
Y661370D02*
D03*
Y621370D02*
D03*
D47*
X1402080Y801370D02*
D03*
D48*
X1713840Y845820D02*
D03*
X1704340Y851570D02*
D03*
Y840070D02*
D03*
X1694840Y845820D02*
D03*
X1623542Y519860D02*
D03*
Y530860D02*
D03*
X1634542D02*
D03*
X1623542Y541860D02*
D03*
X1634542D02*
D03*
Y519860D02*
D03*
X1645543Y541860D02*
D03*
Y519860D02*
D03*
Y530860D02*
D03*
D49*
X1727708Y720090D02*
D03*
X1611630Y661100D02*
D03*
X1662938Y857754D02*
D03*
X1519550Y817880D02*
D03*
X1560830Y813220D02*
D03*
X1666076Y813183D02*
D03*
X1648460Y722790D02*
D03*
X1611630Y567690D02*
D03*
X1600200Y510540D02*
D03*
X1695450Y801370D02*
D03*
X1497330Y868680D02*
D03*
X1518920Y558800D02*
D03*
X1598930Y565150D02*
D03*
X1538478Y777240D02*
D03*
X1494440Y821278D02*
D03*
X1677865Y652585D02*
D03*
X1646682Y670052D02*
D03*
X1499870Y840662D02*
D03*
X1447292Y847320D02*
D03*
X1590306Y875313D02*
D03*
X1619250Y762000D02*
D03*
X1541780Y590550D02*
D03*
X1599184Y588264D02*
D03*
X1538602Y810898D02*
D03*
X1595387Y595630D02*
D03*
X1547241Y723900D02*
D03*
X1518158Y576834D02*
D03*
X1538732Y741680D02*
D03*
X1578242Y747377D02*
D03*
X1617726Y574508D02*
D03*
X1507744Y546100D02*
D03*
X1553370D02*
D03*
X1478686Y822985D02*
D03*
X1577606Y873252D02*
D03*
Y902462D02*
D03*
X1636776Y806196D02*
D03*
X1584706Y772160D02*
D03*
X1541526Y641096D02*
D03*
X1463802Y818896D02*
D03*
X1659128Y765048D02*
D03*
D50*
X1520190Y844550D02*
D03*
X1615440Y908050D02*
D03*
X1715770Y650240D02*
D03*
X1713230Y783590D02*
D03*
X1673860Y745490D02*
D03*
D51*
X1691760Y569040D02*
D03*
X1706760D02*
D03*
X1699260Y574040D02*
D03*
X1691760Y579040D02*
D03*
X1706760D02*
D03*
D60*
X1734820Y831899D02*
D03*
Y840471D02*
D03*
X1732280Y557054D02*
D03*
X1656080Y816292D02*
D03*
X1582420Y816134D02*
D03*
X1656080Y807720D02*
D03*
X1565276Y678180D02*
D03*
Y686751D02*
D03*
X1582420Y824706D02*
D03*
X1732280Y565626D02*
D03*
D63*
X1611630Y643890D02*
D03*
X1659682Y681990D02*
D03*
X1584105Y643890D02*
D03*
X1632158Y681990D02*
D03*
D64*
X1598080Y702310D02*
D03*
X1587080D02*
D03*
D65*
X1602740Y790311D02*
D03*
Y799354D02*
D03*
D67*
X1700742Y777240D02*
D03*
X1692699D02*
D03*
D68*
X1702580Y814040D02*
D03*
X1631460Y855280D02*
D03*
X1621960D02*
D03*
X1693080Y814040D02*
D03*
D70*
X1656080Y829334D02*
D03*
Y836906D02*
D03*
D71*
X1632497Y825988D02*
D03*
Y816488D02*
D03*
Y835488D02*
D03*
X1606497D02*
D03*
Y825988D02*
D03*
Y816488D02*
D03*
D72*
X1681480Y757180D02*
D03*
Y726180D02*
D03*
D73*
X1652226Y773430D02*
D03*
X1642154D02*
D03*
D74*
X1612505Y722790D02*
D03*
X1593505D02*
D03*
X1603005Y742790D02*
D03*
D75*
X1715340Y884590D02*
D03*
X1693340D02*
D03*
X1686990Y618490D02*
D03*
X1708990D02*
D03*
D76*
X1753870Y851781D02*
D03*
Y843738D02*
D03*
X1732280Y588222D02*
D03*
Y580179D02*
D03*
D77*
X1623060Y793360D02*
D03*
Y776360D02*
D03*
D79*
X1598616Y686518D02*
D03*
D80*
Y681518D02*
D03*
Y676518D02*
D03*
X1586544D02*
D03*
Y681518D02*
D03*
Y686518D02*
D03*
D84*
X1704340Y859820D02*
D03*
X1699340Y831820D02*
D03*
X1694340Y859820D02*
D03*
Y831820D02*
D03*
X1714340Y859820D02*
D03*
X1704340Y831820D02*
D03*
X1709340D02*
D03*
X1714340D02*
D03*
X1709340Y859820D02*
D03*
X1699340D02*
D03*
D85*
X1704340Y845820D02*
D03*
D86*
X1694260Y559290D02*
D03*
X1699260Y588790D02*
D03*
X1689260D02*
D03*
X1694260D02*
D03*
X1704260D02*
D03*
X1709260D02*
D03*
Y559290D02*
D03*
X1704260D02*
D03*
X1699260D02*
D03*
X1689260D02*
D03*
D87*
X1699260Y574040D02*
D03*
D88*
X1660000Y653420D02*
D03*
X1651000Y629920D02*
D03*
X1642000Y653420D02*
D03*
X1554590Y653100D02*
D03*
X1536590D02*
D03*
X1545591Y629600D02*
D03*
D89*
X1572260Y712470D02*
D03*
Y702970D02*
D03*
D90*
X1683762Y571555D02*
D03*
X1714762D02*
D03*
D91*
X1683762Y576555D02*
D03*
X1714762D02*
D03*
M02*
