M48
;Layer_Color=9474304
;FILE_FORMAT=4:4
METRIC,LZ
;TYPE=PLATED
T01F00S00C0.2000
T02F00S00C0.3500
T03F00S00C0.4000
T05F00S00C0.8900
%
T01
X01623542Y0051986
Y0053086
X01634542
Y0054186
X01623542
X01645543
Y0053086
Y0051986
X01634542
X0169176Y0056904
Y0057904
X0169926Y0057404
X0170676Y0056904
Y0057904
X0170434Y0084007
Y0085157
X0171384Y0084582
X0169484
T02
X016002Y0051054
X0159893Y0056515
X0161163Y0056769
X01617726Y00574508
X01599184Y00588264
X01595387Y0059563
X0161163Y006611
X01646682Y00670052
X01677865Y00652585
X0164846Y0072279
X01659128Y00765048
X0161925Y00762
X01727708Y0072009
X01578242Y00747377
X01584706Y0077216
X01538478Y0077724
X01538732Y0074168
X01547241Y007239
X01541526Y00641096
X0154178Y0059055
X01518158Y00576834
X0151892Y005588
X01507744Y005461
X0155337
X0156083Y0081322
X01538602Y00810898
X0151955Y0081788
X0149444Y00821278
X01478686Y00822985
X01463802Y00818896
X01447292Y0084732
X0149987Y00840662
X0149733Y0086868
X01577606Y00873252
Y00902462
X01590306Y00875313
X01662938Y00857754
X01666076Y00813183
X01636776Y00806196
X0169545Y0080137
T03
X0171577Y0065024
X0173745Y00717839
Y00726339
Y0073484
Y00743339
Y00751839
Y00760339
Y0076884
Y00777339
X0175095
Y0076884
Y00760339
Y00751839
Y00743339
Y0073484
Y00726339
Y00717839
X0171323Y0078359
X0167386Y0074549
X0143725Y0057331
Y0056481
Y0055631
Y0054781
Y0053931
Y0053081
Y0052231
Y0051381
X0142375
Y0052231
Y0053081
Y0053931
Y0054781
Y0055631
Y0056481
Y0057331
X0152019Y0084455
X0161544Y0090805
T05
X0140208Y0062137
Y0064137
X0142208
Y0066137
X0140208
Y0068137
Y0070137
Y0072137
X0142208
Y0074137
X0140208
Y0076137
Y0078137
X0142208
Y0076137
Y0070137
Y0068137
Y0062137
Y0080137
X0140208
M30
