G04*
G04 #@! TF.GenerationSoftware,Altium Limited,Altium Designer,26.2.0 (7)*
G04*
G04 Layer_Color=8388736*
%FSLAX44Y44*%
%MOMM*%
G71*
G04*
G04 #@! TF.SameCoordinates,F9C0969B-AC44-43A8-838D-76D65E8214DD*
G04*
G04*
G04 #@! TF.FilePolarity,Negative*
G04*
G01*
G75*
%ADD15R,0.6000X0.4500*%
%ADD16R,0.9000X2.0000*%
%ADD17R,0.5200X0.5200*%
%ADD18R,0.6153X0.5725*%
%ADD20R,0.5200X0.5200*%
%ADD21R,1.3300X1.3300*%
%ADD22R,0.6700X1.4500*%
%ADD23R,0.6725X0.7154*%
%ADD24R,0.4500X0.5000*%
%ADD26R,2.0000X0.9000*%
%ADD29R,0.6000X0.5000*%
%ADD31R,0.5225X1.0552*%
G04:AMPARAMS|DCode=32|XSize=1.0552mm|YSize=0.5225mm|CornerRadius=0.2612mm|HoleSize=0mm|Usage=FLASHONLY|Rotation=90.000|XOffset=0mm|YOffset=0mm|HoleType=Round|Shape=RoundedRectangle|*
%AMROUNDEDRECTD32*
21,1,1.0552,0.0000,0,0,90.0*
21,1,0.5328,0.5225,0,0,90.0*
1,1,0.5225,0.0000,0.2664*
1,1,0.5225,0.0000,-0.2664*
1,1,0.5225,0.0000,-0.2664*
1,1,0.5225,0.0000,0.2664*
%
%ADD32ROUNDEDRECTD32*%
%ADD34R,0.6700X0.6200*%
%ADD35O,1.0700X0.3200*%
%ADD36R,3.2500X3.2500*%
%ADD37R,0.8000X1.7000*%
%ADD38R,2.8200X3.1200*%
%ADD39O,0.3200X1.0700*%
%ADD40R,0.7200X0.6200*%
%ADD41R,0.6200X0.7200*%
%ADD42R,1.1000X1.0000*%
%ADD43C,0.6500*%
G04:AMPARAMS|DCode=44|XSize=0.9mm|YSize=2.4mm|CornerRadius=0.45mm|HoleSize=0mm|Usage=FLASHONLY|Rotation=270.000|XOffset=0mm|YOffset=0mm|HoleType=Round|Shape=RoundedRectangle|*
%AMROUNDEDRECTD44*
21,1,0.9000,1.5000,0,0,270.0*
21,1,0.0000,2.4000,0,0,270.0*
1,1,0.9000,-0.7500,0.0000*
1,1,0.9000,-0.7500,0.0000*
1,1,0.9000,0.7500,0.0000*
1,1,0.9000,0.7500,0.0000*
%
%ADD44ROUNDEDRECTD44*%
G04:AMPARAMS|DCode=45|XSize=0.9mm|YSize=1.7mm|CornerRadius=0.45mm|HoleSize=0mm|Usage=FLASHONLY|Rotation=270.000|XOffset=0mm|YOffset=0mm|HoleType=Round|Shape=RoundedRectangle|*
%AMROUNDEDRECTD45*
21,1,0.9000,0.8000,0,0,270.0*
21,1,0.0000,1.7000,0,0,270.0*
1,1,0.9000,-0.4000,0.0000*
1,1,0.9000,-0.4000,0.0000*
1,1,0.9000,0.4000,0.0000*
1,1,0.9000,0.4000,0.0000*
%
%ADD45ROUNDEDRECTD45*%
%ADD46C,1.3900*%
%ADD47R,1.3900X1.3900*%
%ADD48C,0.6200*%
%ADD49C,0.7200*%
%ADD50C,0.7700*%
%ADD51C,1.5040*%
D15*
X1516380Y586488D02*
D03*
X1564604D02*
D03*
Y595987D02*
D03*
X1516380Y595988D02*
D03*
D16*
X1519550Y621530D02*
D03*
Y791530D02*
D03*
X1532250Y621530D02*
D03*
X1544950D02*
D03*
X1557650D02*
D03*
X1570350D02*
D03*
X1583050D02*
D03*
X1595750D02*
D03*
X1608450D02*
D03*
X1633850D02*
D03*
X1646550D02*
D03*
X1671950D02*
D03*
X1684650D02*
D03*
Y791530D02*
D03*
X1671950D02*
D03*
X1659250D02*
D03*
X1646550D02*
D03*
X1633850D02*
D03*
X1608450D02*
D03*
X1595750D02*
D03*
X1583050D02*
D03*
X1570350D02*
D03*
X1557650D02*
D03*
X1544950D02*
D03*
X1659250Y621530D02*
D03*
X1621150D02*
D03*
X1532250Y791530D02*
D03*
X1621150D02*
D03*
D17*
X1583310Y519430D02*
D03*
Y501650D02*
D03*
X1659000Y836930D02*
D03*
X1651000D02*
D03*
X1591310Y501650D02*
D03*
Y519430D02*
D03*
D18*
X1607820Y485140D02*
D03*
X1616391D02*
D03*
D20*
X1534169Y587237D02*
D03*
X1470773Y838899D02*
D03*
X1534169Y595237D02*
D03*
X1470773Y830899D02*
D03*
D21*
X1576200Y678180D02*
D03*
X1594550D02*
D03*
X1612900D02*
D03*
X1594550Y696530D02*
D03*
X1576200D02*
D03*
Y714880D02*
D03*
X1594550D02*
D03*
X1612900Y696530D02*
D03*
Y714880D02*
D03*
D22*
X1564906Y840008D02*
D03*
Y889508D02*
D03*
X1615706D02*
D03*
Y840008D02*
D03*
X1603006D02*
D03*
X1590306D02*
D03*
Y889508D02*
D03*
X1603006D02*
D03*
X1552206Y840008D02*
D03*
X1577606D02*
D03*
X1628406D02*
D03*
X1641106D02*
D03*
Y889508D02*
D03*
X1628406D02*
D03*
X1577606D02*
D03*
X1552206D02*
D03*
D23*
X1592363Y817880D02*
D03*
X1573095D02*
D03*
X1611630D02*
D03*
X1592363Y827451D02*
D03*
X1611630D02*
D03*
X1573095D02*
D03*
X1631950Y584089D02*
D03*
Y593661D02*
D03*
X1651217Y584089D02*
D03*
Y593661D02*
D03*
D24*
X1604620Y909526D02*
D03*
X1595120D02*
D03*
D26*
X1694650Y649380D02*
D03*
Y674780D02*
D03*
Y687480D02*
D03*
Y700180D02*
D03*
Y712880D02*
D03*
Y725580D02*
D03*
Y738280D02*
D03*
Y750980D02*
D03*
Y763680D02*
D03*
Y662080D02*
D03*
D29*
X1452880Y839470D02*
D03*
Y829470D02*
D03*
D31*
X1544370Y548640D02*
D03*
X1498284D02*
D03*
D32*
X1563370D02*
D03*
X1553870Y566150D02*
D03*
X1507785D02*
D03*
X1517285Y548640D02*
D03*
D34*
X1471870Y582930D02*
D03*
X1464370D02*
D03*
X1471870Y563880D02*
D03*
X1464370D02*
D03*
D35*
X1609793Y535860D02*
D03*
X1659292Y545860D02*
D03*
Y540860D02*
D03*
Y535860D02*
D03*
Y530860D02*
D03*
Y525860D02*
D03*
Y520860D02*
D03*
Y515860D02*
D03*
X1609793D02*
D03*
Y520860D02*
D03*
Y525860D02*
D03*
Y530860D02*
D03*
Y540860D02*
D03*
Y545860D02*
D03*
D36*
X1634542Y530860D02*
D03*
D37*
X1499620Y854512D02*
D03*
X1464620D02*
D03*
X1454620D02*
D03*
X1489620D02*
D03*
X1474620D02*
D03*
X1479620D02*
D03*
X1484620D02*
D03*
X1494620D02*
D03*
X1469620D02*
D03*
X1459620D02*
D03*
D38*
X1435320Y873113D02*
D03*
X1518920D02*
D03*
D39*
X1634542Y555610D02*
D03*
X1629542D02*
D03*
X1619542D02*
D03*
X1624542D02*
D03*
X1639543D02*
D03*
X1644542D02*
D03*
X1649543D02*
D03*
Y506110D02*
D03*
X1644542D02*
D03*
X1639543D02*
D03*
X1634542D02*
D03*
X1629542D02*
D03*
X1624542D02*
D03*
X1619542D02*
D03*
D40*
X1530827Y551180D02*
D03*
Y561180D02*
D03*
D41*
X1553370Y534670D02*
D03*
X1563370D02*
D03*
D42*
X1549062Y595737D02*
D03*
Y585737D02*
D03*
D43*
X1750950Y777339D02*
D03*
Y768840D02*
D03*
Y760339D02*
D03*
Y751839D02*
D03*
Y743339D02*
D03*
Y734840D02*
D03*
Y726339D02*
D03*
Y717839D02*
D03*
X1737450D02*
D03*
Y726339D02*
D03*
Y734840D02*
D03*
Y743339D02*
D03*
Y751839D02*
D03*
Y760339D02*
D03*
Y768840D02*
D03*
Y777339D02*
D03*
X1423750Y573310D02*
D03*
Y513810D02*
D03*
X1437250Y573310D02*
D03*
Y513810D02*
D03*
X1423750Y564810D02*
D03*
Y556310D02*
D03*
Y547810D02*
D03*
Y539310D02*
D03*
Y530810D02*
D03*
Y522310D02*
D03*
X1437250D02*
D03*
Y530810D02*
D03*
Y539310D02*
D03*
Y547810D02*
D03*
Y556310D02*
D03*
Y564810D02*
D03*
D44*
X1747250Y704339D02*
D03*
Y790839D02*
D03*
X1427450Y500310D02*
D03*
Y586810D02*
D03*
D45*
X1781050Y704339D02*
D03*
Y790839D02*
D03*
X1393650Y500310D02*
D03*
Y586810D02*
D03*
D46*
X1422080Y641370D02*
D03*
Y721370D02*
D03*
X1402080D02*
D03*
Y781370D02*
D03*
Y761370D02*
D03*
Y741370D02*
D03*
Y701370D02*
D03*
Y681370D02*
D03*
Y661370D02*
D03*
Y641370D02*
D03*
Y621370D02*
D03*
X1422080Y801370D02*
D03*
Y781370D02*
D03*
Y761370D02*
D03*
Y741370D02*
D03*
Y701370D02*
D03*
Y681370D02*
D03*
Y661370D02*
D03*
Y621370D02*
D03*
D47*
X1402080Y801370D02*
D03*
D48*
X1713840Y845820D02*
D03*
X1704340Y851570D02*
D03*
Y840070D02*
D03*
X1694840Y845820D02*
D03*
X1623542Y519860D02*
D03*
Y530860D02*
D03*
X1634542D02*
D03*
X1623542Y541860D02*
D03*
X1634542D02*
D03*
Y519860D02*
D03*
X1645543Y541860D02*
D03*
Y519860D02*
D03*
Y530860D02*
D03*
D49*
X1727708Y720090D02*
D03*
X1611630Y661100D02*
D03*
X1662938Y857754D02*
D03*
X1519550Y817880D02*
D03*
X1560830Y813220D02*
D03*
X1666076Y813183D02*
D03*
X1648460Y722790D02*
D03*
X1611630Y567690D02*
D03*
X1600200Y510540D02*
D03*
X1695450Y801370D02*
D03*
X1497330Y868680D02*
D03*
X1518920Y558800D02*
D03*
X1598930Y565150D02*
D03*
X1538478Y777240D02*
D03*
X1494440Y821278D02*
D03*
X1677865Y652585D02*
D03*
X1646682Y670052D02*
D03*
X1499870Y840662D02*
D03*
X1447292Y847320D02*
D03*
X1590306Y875313D02*
D03*
X1619250Y762000D02*
D03*
X1541780Y590550D02*
D03*
X1599184Y588264D02*
D03*
X1538602Y810898D02*
D03*
X1595387Y595630D02*
D03*
X1547241Y723900D02*
D03*
X1518158Y576834D02*
D03*
X1538732Y741680D02*
D03*
X1578242Y747377D02*
D03*
X1617726Y574508D02*
D03*
X1507744Y546100D02*
D03*
X1553370D02*
D03*
X1478686Y822985D02*
D03*
X1577606Y873252D02*
D03*
Y902462D02*
D03*
X1636776Y806196D02*
D03*
X1584706Y772160D02*
D03*
X1541526Y641096D02*
D03*
X1463802Y818896D02*
D03*
X1659128Y765048D02*
D03*
D50*
X1520190Y844550D02*
D03*
X1615440Y908050D02*
D03*
X1715770Y650240D02*
D03*
X1713230Y783590D02*
D03*
X1673860Y745490D02*
D03*
D51*
X1691760Y569040D02*
D03*
X1706760D02*
D03*
X1699260Y574040D02*
D03*
X1691760Y579040D02*
D03*
X1706760D02*
D03*
M02*
