G04*
G04 #@! TF.GenerationSoftware,Altium Limited,Altium Designer,26.2.0 (7)*
G04*
G04 Layer_Physical_Order=1*
G04 Layer_Color=255*
%FSLAX44Y44*%
%MOMM*%
G71*
G04*
G04 #@! TF.SameCoordinates,F9C0969B-AC44-43A8-838D-76D65E8214DD*
G04*
G04*
G04 #@! TF.FilePolarity,Positive*
G04*
G01*
G75*
%ADD12C,0.2000*%
%ADD14R,0.5500X0.5000*%
%ADD15R,0.6000X0.4500*%
%ADD16R,0.9000X2.0000*%
%ADD17R,0.5200X0.5200*%
%ADD18R,0.6153X0.5725*%
%ADD19O,0.9500X0.2000*%
%ADD20R,0.5200X0.5200*%
%ADD21R,1.3300X1.3300*%
%ADD22R,0.6700X1.4500*%
%ADD23R,0.6725X0.7154*%
%ADD24R,0.4500X0.5000*%
%ADD25R,3.1300X3.1300*%
%ADD26R,2.0000X0.9000*%
%ADD27R,0.3000X1.2000*%
%ADD28R,2.7000X3.0000*%
%ADD29R,0.6000X0.5000*%
%ADD30O,0.2000X0.9500*%
%ADD31R,0.5225X1.0552*%
G04:AMPARAMS|DCode=32|XSize=1.0552mm|YSize=0.5225mm|CornerRadius=0.2612mm|HoleSize=0mm|Usage=FLASHONLY|Rotation=90.000|XOffset=0mm|YOffset=0mm|HoleType=Round|Shape=RoundedRectangle|*
%AMROUNDEDRECTD32*
21,1,1.0552,0.0000,0,0,90.0*
21,1,0.5328,0.5225,0,0,90.0*
1,1,0.5225,0.0000,0.2664*
1,1,0.5225,0.0000,-0.2664*
1,1,0.5225,0.0000,-0.2664*
1,1,0.5225,0.0000,0.2664*
%
%ADD32ROUNDEDRECTD32*%
%ADD33R,0.5000X0.6000*%
%ADD43C,0.6500*%
G04:AMPARAMS|DCode=44|XSize=0.9mm|YSize=2.4mm|CornerRadius=0.45mm|HoleSize=0mm|Usage=FLASHONLY|Rotation=270.000|XOffset=0mm|YOffset=0mm|HoleType=Round|Shape=RoundedRectangle|*
%AMROUNDEDRECTD44*
21,1,0.9000,1.5000,0,0,270.0*
21,1,0.0000,2.4000,0,0,270.0*
1,1,0.9000,-0.7500,0.0000*
1,1,0.9000,-0.7500,0.0000*
1,1,0.9000,0.7500,0.0000*
1,1,0.9000,0.7500,0.0000*
%
%ADD44ROUNDEDRECTD44*%
G04:AMPARAMS|DCode=45|XSize=0.9mm|YSize=1.7mm|CornerRadius=0.45mm|HoleSize=0mm|Usage=FLASHONLY|Rotation=270.000|XOffset=0mm|YOffset=0mm|HoleType=Round|Shape=RoundedRectangle|*
%AMROUNDEDRECTD45*
21,1,0.9000,0.8000,0,0,270.0*
21,1,0.0000,1.7000,0,0,270.0*
1,1,0.9000,-0.4000,0.0000*
1,1,0.9000,-0.4000,0.0000*
1,1,0.9000,0.4000,0.0000*
1,1,0.9000,0.4000,0.0000*
%
%ADD45ROUNDEDRECTD45*%
%ADD46C,1.3900*%
%ADD47R,1.3900X1.3900*%
%ADD52C,0.3810*%
%ADD53C,0.2810*%
%ADD54C,0.3510*%
%ADD55C,0.3000*%
%ADD56C,0.5000*%
%ADD57C,0.6000*%
D12*
X1767840Y647700D02*
Y840994D01*
X1711960Y591820D02*
X1767840Y647700D01*
X1703959Y904875D02*
X1767840Y840994D01*
X1764030Y649986D02*
Y832866D01*
X1709364Y595320D02*
X1764030Y649986D01*
X1697482Y899414D02*
X1764030Y832866D01*
X1736703Y776510D02*
X1750203D01*
X1736703Y717010D02*
X1750203D01*
X1547368Y905510D02*
X1552206Y900672D01*
X1402080Y880110D02*
X1427480Y905510D01*
X1547368D01*
X1663352Y595320D02*
X1709364D01*
X1655615Y587584D02*
X1663352Y595320D01*
X1673860Y591820D02*
X1711960D01*
X1660052Y578013D02*
X1673860Y591820D01*
X1654498Y587584D02*
X1655615D01*
X1651217Y584304D02*
X1654498Y587584D01*
X1624970Y567690D02*
X1629542Y563118D01*
X1611630Y567690D02*
X1624970D01*
X1591310Y501650D02*
X1600200Y510540D01*
X1600723D02*
X1606043Y515860D01*
X1613662D01*
X1600200Y510540D02*
X1600723D01*
X1671950Y797030D02*
X1678950Y804030D01*
X1691708D01*
X1694368Y801370D01*
X1671950Y791530D02*
Y797030D01*
X1694368Y801370D02*
X1695450D01*
X1667510Y755221D02*
X1701800Y789511D01*
Y816875D01*
X1694953Y823722D02*
X1701800Y816875D01*
X1667510Y631470D02*
X1671950Y627030D01*
Y621530D02*
Y627030D01*
X1667510Y631470D02*
Y755221D01*
X1489620Y854512D02*
X1490120Y855012D01*
Y861470D01*
X1497330Y868680D01*
X1594751Y807720D02*
X1603006Y815975D01*
X1530350Y809244D02*
X1535430Y804164D01*
X1616578D02*
X1621150Y799592D01*
Y791530D02*
Y799592D01*
X1535430Y804164D02*
X1616578D01*
X1538602Y810898D02*
X1541780Y807720D01*
X1594751D01*
X1521221Y551575D02*
X1528827Y559180D01*
X1517938Y551575D02*
X1521221D01*
X1528827Y559180D02*
Y559680D01*
X1530327Y561180D01*
X1530827D01*
X1507785Y566150D02*
X1512848Y571213D01*
X1532250Y781050D02*
X1536060Y777240D01*
X1538478D01*
X1532250Y781050D02*
Y791530D01*
X1530350Y809244D02*
Y815594D01*
X1534922Y820166D01*
X1484620Y881967D02*
X1493431Y890778D01*
X1484620Y854512D02*
Y881967D01*
X1534668Y890778D02*
X1534922Y890524D01*
X1493431Y890778D02*
X1534668D01*
X1534922Y820166D02*
Y890524D01*
X1479620Y848477D02*
Y854512D01*
X1494440Y821278D02*
Y833577D01*
X1479620Y848477D02*
X1491020Y837077D01*
Y836997D02*
Y837077D01*
Y836997D02*
X1494440Y833577D01*
X1469620Y838899D02*
X1470773D01*
X1469620D02*
Y854512D01*
X1459620Y839724D02*
Y854512D01*
X1459366Y839470D02*
X1459620Y839724D01*
X1452880Y839470D02*
X1459366D01*
X1621150Y621530D02*
Y631825D01*
X1617467Y635508D02*
X1621150Y631825D01*
X1536700Y635508D02*
X1617467D01*
X1512316Y659892D02*
X1536700Y635508D01*
X1512316Y659892D02*
Y796925D01*
X1508291Y800950D02*
X1512316Y796925D01*
X1489075Y800950D02*
X1508291D01*
X1485900Y804125D02*
X1489075Y800950D01*
X1474620Y847448D02*
Y854512D01*
X1485900Y804125D02*
Y836168D01*
X1474620Y847448D02*
X1485900Y836168D01*
X1682750Y662080D02*
X1694650D01*
X1682496Y657217D02*
X1682750Y662080D01*
X1677865Y652585D02*
X1682496Y657217D01*
X1659250Y621530D02*
Y657484D01*
X1646682Y670052D02*
X1659250Y657484D01*
X1494620Y844380D02*
Y854512D01*
Y844380D02*
X1498338Y840662D01*
X1499870D01*
X1447292Y835058D02*
X1452880Y829470D01*
X1447292Y835058D02*
Y847320D01*
X1590306Y875313D02*
Y889508D01*
X1447292Y829724D02*
X1447546Y829470D01*
X1452880D01*
X1447292Y829724D02*
Y835058D01*
X1590306Y840008D02*
Y875313D01*
X1608450Y772800D02*
X1619250Y762000D01*
X1608450Y772800D02*
Y791530D01*
X1595701Y520860D02*
X1609793D01*
X1547718Y587081D02*
X1549062Y585737D01*
X1541780Y590550D02*
X1545249Y587081D01*
X1547718D01*
X1535428Y593978D02*
X1538353D01*
X1544950Y604568D02*
X1549062Y600456D01*
X1544950Y604568D02*
Y621530D01*
X1525512Y595237D02*
X1534169D01*
X1637812Y578013D02*
X1660052D01*
X1631950Y583875D02*
Y584089D01*
Y583875D02*
X1637812Y578013D01*
X1651217Y584089D02*
Y584304D01*
X1622552Y880376D02*
X1628406Y874522D01*
X1625727Y904875D02*
X1703959D01*
X1622552Y880376D02*
Y901700D01*
X1625727Y904875D01*
X1628406Y840008D02*
Y874522D01*
X1603006Y868039D02*
X1621790Y849255D01*
Y827532D02*
Y849255D01*
X1603006Y868039D02*
Y889508D01*
X1545336Y872490D02*
Y895350D01*
Y872490D02*
X1552206Y865620D01*
X1530827Y548640D02*
X1544370D01*
X1498284Y546100D02*
X1507744D01*
X1615706Y839978D02*
Y840008D01*
Y827717D02*
Y839978D01*
X1603006D02*
Y840008D01*
Y815975D02*
Y839978D01*
X1615440Y827451D02*
X1615706Y827717D01*
X1611630Y827451D02*
X1615440D01*
X1524762Y595988D02*
X1525512Y595237D01*
X1516380Y595988D02*
X1524762D01*
X1628406Y889508D02*
Y899160D01*
X1628660Y899414D01*
X1697482D01*
X1621790Y827532D02*
X1625600Y823722D01*
X1694953D01*
X1549062Y595737D02*
Y600456D01*
Y595737D02*
X1552448D01*
X1552698Y595987D01*
X1564604D01*
X1568704D01*
X1576983Y604266D01*
X1609725D01*
X1613154Y600837D01*
Y593231D02*
Y600837D01*
X1602535Y582612D02*
X1613154Y593231D01*
X1589095Y582612D02*
X1602535D01*
X1572632Y566150D02*
X1589095Y582612D01*
X1553870Y566150D02*
X1572632D01*
X1512848Y571213D02*
X1523768D01*
X1527230Y574675D01*
X1564740D01*
X1574800Y584735D01*
Y592455D01*
X1577975Y595630D01*
X1595387D01*
X1547241Y723900D02*
X1550416Y727075D01*
X1632453D01*
X1684650Y779272D01*
Y791530D01*
X1629542Y555610D02*
Y563118D01*
X1538732Y741680D02*
X1583690D01*
X1583944Y764286D01*
X1570350Y777880D02*
X1583944Y764286D01*
X1570350Y777880D02*
Y791530D01*
X1557650Y767969D02*
Y791530D01*
Y767969D02*
X1578242Y747377D01*
X1617726Y574508D02*
X1624076D01*
X1634542Y564042D01*
Y555610D02*
Y564042D01*
X1646550Y607446D02*
Y621530D01*
Y607446D02*
X1651217Y602779D01*
Y593661D02*
Y602779D01*
X1631950Y593661D02*
Y607060D01*
X1633850Y608960D01*
Y621530D01*
X1591310Y519430D02*
X1594271D01*
X1595701Y520860D01*
X1641106Y836930D02*
Y840008D01*
Y836930D02*
X1651000D01*
X1437250Y556310D02*
X1444820Y563880D01*
X1464370D01*
X1412748Y541813D02*
X1423750Y530810D01*
X1412748Y541813D02*
Y596900D01*
X1415923Y600075D01*
X1443983D01*
X1461135Y582923D01*
X1464370D01*
X1530827Y548640D02*
Y551180D01*
X1563370Y534670D02*
Y548640D01*
X1563624Y555625D01*
X1572133D01*
X1594612Y578104D01*
X1609344D01*
X1613662Y582422D01*
X1621282D01*
X1639543Y564161D01*
Y555610D02*
Y564161D01*
X1498284Y546100D02*
Y548640D01*
X1553370Y534670D02*
Y546100D01*
X1613662Y515860D02*
X1619542Y509980D01*
Y506110D02*
Y509980D01*
X1470773Y830899D02*
X1478686Y822985D01*
X1577606Y840008D02*
Y873252D01*
X1402080Y781370D02*
X1412494Y791784D01*
Y884174D01*
X1427988Y899668D01*
X1541018D01*
X1545336Y895350D01*
X1552206Y840008D02*
Y865620D01*
X1577606Y889508D02*
Y902462D01*
X1402080Y801370D02*
Y880110D01*
X1552206Y889508D02*
Y900672D01*
X1633850Y803270D02*
X1636776Y806196D01*
X1633850Y791530D02*
Y803270D01*
X1583050Y773816D02*
X1584706Y772160D01*
X1583050Y773816D02*
Y791530D01*
X1541526Y641096D02*
Y727075D01*
X1545971Y731520D01*
X1630802D01*
X1646550Y747268D01*
Y791530D01*
X1392428Y711022D02*
X1402080Y701370D01*
X1392428Y711022D02*
Y766318D01*
X1397000Y770890D01*
X1437386D01*
X1441196Y774700D01*
Y806069D01*
X1454023Y818896D01*
X1463802D01*
X1659128Y765048D02*
X1659250Y765170D01*
Y791530D01*
D14*
X1471870Y582930D02*
D03*
X1464370D02*
D03*
X1471870Y563880D02*
D03*
X1464370D02*
D03*
D15*
X1516380Y586488D02*
D03*
X1564604D02*
D03*
Y595987D02*
D03*
X1516380Y595988D02*
D03*
D16*
X1519550Y621530D02*
D03*
Y791530D02*
D03*
X1532250Y621530D02*
D03*
X1544950D02*
D03*
X1557650D02*
D03*
X1570350D02*
D03*
X1583050D02*
D03*
X1595750D02*
D03*
X1608450D02*
D03*
X1633850D02*
D03*
X1646550D02*
D03*
X1671950D02*
D03*
X1684650D02*
D03*
Y791530D02*
D03*
X1671950D02*
D03*
X1659250D02*
D03*
X1646550D02*
D03*
X1633850D02*
D03*
X1608450D02*
D03*
X1595750D02*
D03*
X1583050D02*
D03*
X1570350D02*
D03*
X1557650D02*
D03*
X1544950D02*
D03*
X1659250Y621530D02*
D03*
X1621150D02*
D03*
X1532250Y791530D02*
D03*
X1621150D02*
D03*
D17*
X1583310Y519430D02*
D03*
Y501650D02*
D03*
X1659000Y836930D02*
D03*
X1651000D02*
D03*
X1591310Y501650D02*
D03*
Y519430D02*
D03*
D18*
X1607820Y485140D02*
D03*
X1616391D02*
D03*
D19*
X1609793Y535860D02*
D03*
X1659292Y545860D02*
D03*
Y540860D02*
D03*
Y535860D02*
D03*
Y530860D02*
D03*
Y525860D02*
D03*
Y520860D02*
D03*
Y515860D02*
D03*
X1609793D02*
D03*
Y520860D02*
D03*
Y525860D02*
D03*
Y530860D02*
D03*
Y540860D02*
D03*
Y545860D02*
D03*
D20*
X1534169Y587237D02*
D03*
X1470773Y838899D02*
D03*
X1534169Y595237D02*
D03*
X1470773Y830899D02*
D03*
D21*
X1576200Y678180D02*
D03*
X1594550D02*
D03*
X1612900D02*
D03*
X1594550Y696530D02*
D03*
X1576200D02*
D03*
Y714880D02*
D03*
X1594550D02*
D03*
X1612900Y696530D02*
D03*
Y714880D02*
D03*
D22*
X1564906Y840008D02*
D03*
Y889508D02*
D03*
X1615706D02*
D03*
Y840008D02*
D03*
X1603006D02*
D03*
X1590306D02*
D03*
Y889508D02*
D03*
X1603006D02*
D03*
X1552206Y840008D02*
D03*
X1577606D02*
D03*
X1628406D02*
D03*
X1641106D02*
D03*
Y889508D02*
D03*
X1628406D02*
D03*
X1577606D02*
D03*
X1552206D02*
D03*
D23*
X1592363Y817880D02*
D03*
X1573095D02*
D03*
X1611630D02*
D03*
X1592363Y827451D02*
D03*
X1611630D02*
D03*
X1573095D02*
D03*
X1631950Y584089D02*
D03*
Y593661D02*
D03*
X1651217Y584089D02*
D03*
Y593661D02*
D03*
D24*
X1604620Y909526D02*
D03*
X1595120D02*
D03*
D25*
X1634542Y530860D02*
D03*
D26*
X1694650Y649380D02*
D03*
Y674780D02*
D03*
Y687480D02*
D03*
Y700180D02*
D03*
Y712880D02*
D03*
Y725580D02*
D03*
Y738280D02*
D03*
Y750980D02*
D03*
Y763680D02*
D03*
Y662080D02*
D03*
D27*
X1499620Y854512D02*
D03*
X1464620D02*
D03*
X1454620D02*
D03*
X1489620D02*
D03*
X1474620D02*
D03*
X1479620D02*
D03*
X1484620D02*
D03*
X1494620D02*
D03*
X1469620D02*
D03*
X1459620D02*
D03*
D28*
X1435320Y873113D02*
D03*
X1518920D02*
D03*
D29*
X1452880Y839470D02*
D03*
Y829470D02*
D03*
X1530827Y551180D02*
D03*
Y561180D02*
D03*
X1549062Y595737D02*
D03*
Y585737D02*
D03*
D30*
X1634542Y555610D02*
D03*
X1629542D02*
D03*
X1619542D02*
D03*
X1624542D02*
D03*
X1639543D02*
D03*
X1644542D02*
D03*
X1649543D02*
D03*
Y506110D02*
D03*
X1644542D02*
D03*
X1639543D02*
D03*
X1634542D02*
D03*
X1629542D02*
D03*
X1624542D02*
D03*
X1619542D02*
D03*
D31*
X1544370Y548640D02*
D03*
X1498284D02*
D03*
D32*
X1563370D02*
D03*
X1553870Y566150D02*
D03*
X1507785D02*
D03*
X1517285Y548640D02*
D03*
D33*
X1553370Y534670D02*
D03*
X1563370D02*
D03*
D43*
X1750950Y777339D02*
D03*
Y768840D02*
D03*
Y760339D02*
D03*
Y751839D02*
D03*
Y743339D02*
D03*
Y734840D02*
D03*
Y726339D02*
D03*
Y717839D02*
D03*
X1737450D02*
D03*
Y726339D02*
D03*
Y734840D02*
D03*
Y743339D02*
D03*
Y751839D02*
D03*
Y760339D02*
D03*
Y768840D02*
D03*
Y777339D02*
D03*
X1423750Y573310D02*
D03*
Y513810D02*
D03*
X1437250Y573310D02*
D03*
Y513810D02*
D03*
X1423750Y564810D02*
D03*
Y556310D02*
D03*
Y547810D02*
D03*
Y539310D02*
D03*
Y530810D02*
D03*
Y522310D02*
D03*
X1437250D02*
D03*
Y530810D02*
D03*
Y539310D02*
D03*
Y547810D02*
D03*
Y556310D02*
D03*
Y564810D02*
D03*
X1520190Y844550D02*
D03*
X1615440Y908050D02*
D03*
X1715770Y650240D02*
D03*
X1713230Y783590D02*
D03*
X1673860Y745490D02*
D03*
D44*
X1747250Y704339D02*
D03*
Y790839D02*
D03*
X1427450Y500310D02*
D03*
Y586810D02*
D03*
D45*
X1781050Y704339D02*
D03*
Y790839D02*
D03*
X1393650Y500310D02*
D03*
Y586810D02*
D03*
D46*
X1422080Y641370D02*
D03*
Y721370D02*
D03*
X1402080D02*
D03*
Y781370D02*
D03*
Y761370D02*
D03*
Y741370D02*
D03*
Y701370D02*
D03*
Y681370D02*
D03*
Y661370D02*
D03*
Y641370D02*
D03*
Y621370D02*
D03*
X1422080Y801370D02*
D03*
Y781370D02*
D03*
Y761370D02*
D03*
Y741370D02*
D03*
Y701370D02*
D03*
Y681370D02*
D03*
Y661370D02*
D03*
Y621370D02*
D03*
D47*
X1402080Y801370D02*
D03*
D52*
X1471870Y563880D02*
X1475620Y567630D01*
Y570350D01*
X1475486Y570484D02*
X1475620Y570350D01*
X1475486Y570484D02*
Y582922D01*
X1736703Y768010D02*
X1750203D01*
X1736703Y725510D02*
X1750203D01*
X1406017Y488823D02*
Y504825D01*
Y488823D02*
X1409700Y485140D01*
X1406017Y504825D02*
X1409192Y501650D01*
X1475486Y582922D02*
X1475620D01*
X1492872D01*
X1516380Y586488D02*
X1531367D01*
X1406017Y504825D02*
Y600837D01*
X1475620Y582922D02*
Y593210D01*
X1406017Y600837D02*
X1409700Y604520D01*
X1464310D02*
X1475620Y593210D01*
X1409700Y604520D02*
X1464310D01*
X1509776Y586741D02*
X1510030Y586488D01*
X1492872Y582922D02*
X1509776Y599826D01*
X1510030Y586488D02*
X1516380D01*
X1509776Y586741D02*
Y599826D01*
X1519550Y609600D02*
Y621530D01*
X1509776Y599826D02*
X1519550Y609600D01*
X1541779Y579628D02*
X1555242D01*
X1555496Y579882D01*
X1409700Y485140D02*
X1607820D01*
X1409192Y501650D02*
X1583310D01*
X1532117Y587237D02*
X1534169D01*
X1531367Y586488D02*
X1532117Y587237D01*
X1555496Y583059D02*
X1558925Y586488D01*
X1534169Y587237D02*
X1541779Y579628D01*
X1583310Y501650D02*
Y519430D01*
X1555496Y579882D02*
Y583059D01*
X1558925Y586488D02*
X1564604D01*
X1594550Y678180D02*
X1604010Y668720D01*
X1576070Y678180D02*
X1576200D01*
X1576070D02*
Y689734D01*
X1576200Y678180D02*
X1594550D01*
X1576200Y696530D02*
X1594550Y678180D01*
X1604010Y668720D02*
X1611630Y661100D01*
X1604010Y668720D02*
Y669290D01*
X1612900Y678180D01*
X1499620Y853694D02*
X1511300D01*
X1499620D02*
Y854512D01*
X1511300Y853694D02*
X1520190Y844804D01*
Y844550D02*
Y844804D01*
X1454620Y854512D02*
Y873125D01*
X1464620D02*
Y886858D01*
X1458353Y876858D02*
X1460888D01*
X1454620Y873125D02*
X1458353Y876858D01*
X1460888D02*
X1464620Y873125D01*
Y886858D02*
X1472946Y895183D01*
X1464620Y854512D02*
Y873125D01*
X1564906Y889508D02*
Y901192D01*
X1576070Y689734D02*
X1576200Y689864D01*
Y696530D01*
Y714880D02*
X1594550D01*
X1576200Y696530D02*
X1594550D01*
X1612900D02*
Y714880D01*
Y678180D02*
Y696530D01*
X1594550Y714880D02*
X1612900D01*
X1564906Y901192D02*
X1579384Y915670D01*
X1604620Y915416D01*
Y909276D02*
Y909526D01*
Y915416D01*
X1604965Y908931D02*
X1614559D01*
X1604620Y909276D02*
X1604965Y908931D01*
X1629462Y535940D02*
X1634542Y530860D01*
X1694650Y649380D02*
X1695510Y650240D01*
X1715770D01*
X1615706Y889508D02*
Y907784D01*
X1614559Y908931D02*
X1615706Y907784D01*
X1659000Y836930D02*
Y853816D01*
X1662938Y857754D01*
X1564906Y840008D02*
Y889508D01*
X1539494Y825246D02*
X1543050Y821690D01*
X1564906Y823922D02*
Y840008D01*
X1537262Y895183D02*
X1539494Y892952D01*
Y825246D02*
Y892952D01*
X1472946Y895183D02*
X1537262D01*
X1543050Y821690D02*
X1562674D01*
X1564906Y823922D01*
X1573095Y817880D02*
X1592363D01*
X1519550Y791530D02*
Y817880D01*
X1571638Y816208D02*
X1573095Y817666D01*
Y817880D01*
X1564411Y816208D02*
X1571638D01*
X1561126Y812924D02*
X1564411Y816208D01*
X1543050Y821690D02*
X1551520Y813220D01*
X1560830D01*
X1611630Y817880D02*
X1660787D01*
X1665484Y813183D02*
X1666076D01*
X1660787Y817880D02*
X1665484Y813183D01*
X1517555Y548911D02*
Y556843D01*
X1518920Y558207D02*
Y558800D01*
X1517555Y556843D02*
X1518920Y558207D01*
X1517285Y548640D02*
X1517555Y548911D01*
X1598930Y565150D02*
X1608470Y555610D01*
X1619542D01*
X1595120Y903125D02*
Y909526D01*
X1590306Y898311D02*
X1595120Y903125D01*
X1590306Y889508D02*
Y898311D01*
X1588266Y827451D02*
X1592363D01*
X1588266D02*
X1590306Y829491D01*
X1579300Y525435D02*
X1604010D01*
X1572614Y518750D02*
X1579300Y525435D01*
X1542370Y518750D02*
X1572614D01*
X1538558Y522561D02*
X1538558D01*
X1536565Y524555D02*
X1538558Y522561D01*
X1538558D02*
X1542370Y518750D01*
X1477645Y526415D02*
X1479505Y524555D01*
X1474470Y529590D02*
X1477645Y526415D01*
X1479505Y524555D02*
X1536565D01*
X1474470Y529590D02*
X1474470D01*
X1463675Y540385D02*
X1474470Y529590D01*
X1437250Y540385D02*
X1437810Y539825D01*
X1439667D01*
X1440227Y540385D01*
X1463675D01*
X1437250Y539310D02*
Y540385D01*
X1576669Y531785D02*
X1604010D01*
X1569984Y525100D02*
X1576669Y531785D01*
X1545000Y525100D02*
X1569984D01*
X1539195Y530905D02*
X1545000Y525100D01*
X1482135Y530905D02*
X1539195D01*
X1466305Y546735D02*
X1482135Y530905D01*
X1440227Y546735D02*
X1466305D01*
X1439667Y547295D02*
X1440227Y546735D01*
X1437250D02*
X1437810Y547295D01*
X1439667D01*
X1437250Y546735D02*
Y547810D01*
X1603006Y839978D02*
X1615706D01*
X1591310Y501650D02*
X1606296D01*
X1616391Y491555D01*
Y485140D02*
Y491555D01*
X1402080Y741370D02*
X1422080D01*
D53*
X1614170Y535940D02*
X1629462D01*
X1607320Y531785D02*
X1607820Y531285D01*
X1604010Y531785D02*
X1607320D01*
X1604010Y525435D02*
X1604030Y525455D01*
X1606448D01*
D54*
X1573095Y827451D02*
X1588266D01*
X1590306Y829491D02*
Y840008D01*
D55*
X1535430Y596900D02*
X1541780Y590550D01*
X1535430Y596900D02*
Y604286D01*
X1532250Y607466D02*
X1535430Y604286D01*
X1535269Y594137D02*
X1538193D01*
X1534169Y595237D02*
X1535269Y594137D01*
X1532250Y607466D02*
Y621530D01*
D56*
X1713840Y845820D02*
D03*
X1704340Y851570D02*
D03*
Y840070D02*
D03*
X1694840Y845820D02*
D03*
X1623542Y519860D02*
D03*
Y530860D02*
D03*
X1634542D02*
D03*
X1623542Y541860D02*
D03*
X1634542D02*
D03*
Y519860D02*
D03*
X1645543Y541860D02*
D03*
Y519860D02*
D03*
Y530860D02*
D03*
X1691760Y569040D02*
D03*
X1706760D02*
D03*
X1699260Y574040D02*
D03*
X1691760Y579040D02*
D03*
X1706760D02*
D03*
D57*
X1727708Y720090D02*
D03*
X1611630Y661100D02*
D03*
X1662938Y857754D02*
D03*
X1519550Y817880D02*
D03*
X1560830Y813220D02*
D03*
X1666076Y813183D02*
D03*
X1648460Y722790D02*
D03*
X1611630Y567690D02*
D03*
X1600200Y510540D02*
D03*
X1695450Y801370D02*
D03*
X1497330Y868680D02*
D03*
X1518920Y558800D02*
D03*
X1598930Y565150D02*
D03*
X1538478Y777240D02*
D03*
X1494440Y821278D02*
D03*
X1677865Y652585D02*
D03*
X1646682Y670052D02*
D03*
X1499870Y840662D02*
D03*
X1447292Y847320D02*
D03*
X1590306Y875313D02*
D03*
X1619250Y762000D02*
D03*
X1541780Y590550D02*
D03*
X1599184Y588264D02*
D03*
X1538602Y810898D02*
D03*
X1595387Y595630D02*
D03*
X1547241Y723900D02*
D03*
X1518158Y576834D02*
D03*
X1538732Y741680D02*
D03*
X1578242Y747377D02*
D03*
X1617726Y574508D02*
D03*
X1507744Y546100D02*
D03*
X1553370D02*
D03*
X1478686Y822985D02*
D03*
X1577606Y873252D02*
D03*
Y902462D02*
D03*
X1636776Y806196D02*
D03*
X1584706Y772160D02*
D03*
X1541526Y641096D02*
D03*
X1463802Y818896D02*
D03*
X1659128Y765048D02*
D03*
M02*
