G04*
G04 #@! TF.GenerationSoftware,Altium Limited,Altium Designer,26.2.0 (7)*
G04*
G04 Layer_Physical_Order=3*
G04 Layer_Color=36540*
%FSLAX44Y44*%
%MOMM*%
G71*
G04*
G04 #@! TF.SameCoordinates,F9C0969B-AC44-43A8-838D-76D65E8214DD*
G04*
G04*
G04 #@! TF.FilePolarity,Positive*
G04*
G01*
G75*
%ADD12C,0.2000*%
%ADD43C,0.6500*%
G04:AMPARAMS|DCode=44|XSize=0.9mm|YSize=2.4mm|CornerRadius=0.45mm|HoleSize=0mm|Usage=FLASHONLY|Rotation=270.000|XOffset=0mm|YOffset=0mm|HoleType=Round|Shape=RoundedRectangle|*
%AMROUNDEDRECTD44*
21,1,0.9000,1.5000,0,0,270.0*
21,1,0.0000,2.4000,0,0,270.0*
1,1,0.9000,-0.7500,0.0000*
1,1,0.9000,-0.7500,0.0000*
1,1,0.9000,0.7500,0.0000*
1,1,0.9000,0.7500,0.0000*
%
%ADD44ROUNDEDRECTD44*%
G04:AMPARAMS|DCode=45|XSize=0.9mm|YSize=1.7mm|CornerRadius=0.45mm|HoleSize=0mm|Usage=FLASHONLY|Rotation=270.000|XOffset=0mm|YOffset=0mm|HoleType=Round|Shape=RoundedRectangle|*
%AMROUNDEDRECTD45*
21,1,0.9000,0.8000,0,0,270.0*
21,1,0.0000,1.7000,0,0,270.0*
1,1,0.9000,-0.4000,0.0000*
1,1,0.9000,-0.4000,0.0000*
1,1,0.9000,0.4000,0.0000*
1,1,0.9000,0.4000,0.0000*
%
%ADD45ROUNDEDRECTD45*%
%ADD46C,1.3900*%
%ADD47R,1.3900X1.3900*%
%ADD52C,0.3810*%
%ADD56C,0.5000*%
%ADD57C,0.6000*%
%ADD58C,0.3500*%
%ADD59C,0.5080*%
G36*
X1788302Y812800D02*
X1779270Y805180D01*
X1769884D01*
Y812767D01*
X1770042Y813562D01*
X1769777Y814891D01*
X1769025Y816017D01*
X1764580Y820462D01*
X1763454Y821214D01*
X1762125Y821479D01*
X1693898D01*
X1692569Y821215D01*
X1691443Y820462D01*
X1676161Y805180D01*
X1641357D01*
X1641276Y805301D01*
Y807091D01*
X1640591Y808745D01*
X1639325Y810011D01*
X1639325Y810011D01*
Y864012D01*
X1639131Y864987D01*
X1638578Y865814D01*
X1588953Y915440D01*
X1589574Y916940D01*
X1788302D01*
Y812800D01*
D02*
G37*
G36*
X1763256Y811966D02*
Y805180D01*
X1759761D01*
X1758212Y806728D01*
X1757386Y807281D01*
X1756410Y807475D01*
X1733296D01*
X1732321Y807281D01*
X1731494Y806728D01*
X1729945Y805180D01*
X1698004D01*
X1697999Y805185D01*
X1696345Y805870D01*
X1694555D01*
X1692901Y805185D01*
X1692896Y805180D01*
X1687941D01*
X1687367Y806566D01*
X1695336Y814535D01*
X1760687D01*
X1763256Y811966D01*
D02*
G37*
G36*
X1634227Y862956D02*
Y810011D01*
X1634227Y810011D01*
X1632961Y808745D01*
X1632276Y807091D01*
Y805301D01*
X1632195Y805180D01*
X1606793D01*
X1582420Y829553D01*
Y912105D01*
X1585078D01*
X1634227Y862956D01*
D02*
G37*
G36*
X1429527Y793659D02*
X1429527Y792422D01*
X1425981Y788875D01*
X1425341Y789244D01*
X1423192Y789820D01*
X1420968D01*
X1418818Y789244D01*
X1416891Y788132D01*
X1415318Y786559D01*
X1414206Y784632D01*
X1413630Y782483D01*
Y780258D01*
X1414206Y778109D01*
X1415318Y776182D01*
X1416891Y774608D01*
X1418818Y773496D01*
X1420968Y772920D01*
X1423192D01*
X1425341Y773496D01*
X1427268Y774608D01*
X1428842Y776182D01*
X1429954Y778109D01*
X1430530Y780258D01*
Y782483D01*
X1429954Y784632D01*
X1429585Y785270D01*
X1432181Y787867D01*
X1433567Y787292D01*
Y762294D01*
X1432030Y760757D01*
X1430530Y761378D01*
Y762483D01*
X1429954Y764632D01*
X1428842Y766559D01*
X1427268Y768132D01*
X1425341Y769244D01*
X1423192Y769820D01*
X1420968D01*
X1418818Y769244D01*
X1416891Y768132D01*
X1415318Y766559D01*
X1414206Y764632D01*
X1413630Y762483D01*
Y760258D01*
X1414206Y758109D01*
X1415318Y756182D01*
X1416119Y755381D01*
X1416098Y754927D01*
X1415589Y753789D01*
X1415074Y753687D01*
X1414248Y753134D01*
X1410692Y749578D01*
X1410180Y748812D01*
X1410122Y748747D01*
X1408528Y748343D01*
X1407907Y748964D01*
X1405743Y750213D01*
X1403350Y750855D01*
Y741370D01*
X1400810D01*
Y750855D01*
X1398417Y750213D01*
X1396477Y749093D01*
X1394977Y749577D01*
Y754402D01*
X1396477Y755023D01*
X1396892Y754608D01*
X1398818Y753496D01*
X1400968Y752920D01*
X1403192D01*
X1405342Y753496D01*
X1407268Y754608D01*
X1408842Y756182D01*
X1409954Y758109D01*
X1410530Y760258D01*
Y762483D01*
X1409954Y764632D01*
X1408842Y766559D01*
X1407268Y768132D01*
X1405342Y769244D01*
X1403192Y769820D01*
X1400968D01*
X1398818Y769244D01*
X1396892Y768132D01*
X1396477Y767717D01*
X1394977Y768338D01*
Y774402D01*
X1396477Y775023D01*
X1396892Y774608D01*
X1398818Y773496D01*
X1400968Y772920D01*
X1403192D01*
X1405342Y773496D01*
X1407268Y774608D01*
X1408842Y776182D01*
X1409954Y778109D01*
X1410530Y780258D01*
Y782483D01*
X1409954Y784632D01*
X1408842Y786559D01*
X1407268Y788132D01*
X1405342Y789244D01*
X1403192Y789820D01*
X1400968D01*
X1398818Y789244D01*
X1396892Y788132D01*
X1396477Y787717D01*
X1394977Y788338D01*
Y792920D01*
X1410530D01*
Y794819D01*
X1416670Y794830D01*
X1416891Y794608D01*
X1418818Y793496D01*
X1420968Y792920D01*
X1423192D01*
X1425341Y793496D01*
X1427268Y794608D01*
X1427508Y794848D01*
X1428334Y794850D01*
X1429527Y793659D01*
D02*
G37*
G36*
X1596635Y773232D02*
Y705866D01*
X1596829Y704891D01*
X1597382Y704064D01*
X1656945Y644501D01*
X1657771Y643948D01*
X1658747Y643754D01*
X1685925D01*
X1686900Y643948D01*
X1687727Y644501D01*
X1691401Y648174D01*
X1691441Y648174D01*
X1692901Y647715D01*
Y634227D01*
X1613944Y555270D01*
X1523714D01*
X1522950Y556770D01*
X1523420Y557905D01*
Y559695D01*
X1523420Y559695D01*
X1526326Y562601D01*
X1595115D01*
X1595115Y562601D01*
X1596381Y561335D01*
X1598035Y560650D01*
X1599825D01*
X1601479Y561335D01*
X1602745Y562601D01*
X1603430Y564255D01*
Y566045D01*
X1602745Y567699D01*
X1601479Y568965D01*
X1599825Y569650D01*
X1598035D01*
X1596381Y568965D01*
X1595115Y567699D01*
X1595115Y567699D01*
X1525270D01*
X1524295Y567505D01*
X1523468Y566952D01*
X1519815Y563300D01*
X1519815Y563300D01*
X1518025D01*
X1516371Y562615D01*
X1515105Y561349D01*
X1514420Y559695D01*
Y557905D01*
X1514890Y556770D01*
X1514126Y555270D01*
X1486420D01*
X1440077Y601613D01*
X1439250Y602165D01*
X1438275Y602359D01*
X1416228D01*
X1414281Y604306D01*
Y615098D01*
X1415781Y615719D01*
X1416891Y614609D01*
X1418818Y613496D01*
X1420968Y612920D01*
X1423192D01*
X1425341Y613496D01*
X1427268Y614609D01*
X1428842Y616182D01*
X1429954Y618109D01*
X1430530Y620258D01*
Y622483D01*
X1429954Y624632D01*
X1428842Y626559D01*
X1427268Y628132D01*
X1425341Y629244D01*
X1423192Y629820D01*
X1420968D01*
X1418818Y629244D01*
X1416891Y628132D01*
X1415781Y627021D01*
X1414281Y627643D01*
Y635098D01*
X1415781Y635719D01*
X1416891Y634609D01*
X1418818Y633496D01*
X1420968Y632920D01*
X1423192D01*
X1425341Y633496D01*
X1427268Y634609D01*
X1428842Y636182D01*
X1429954Y638109D01*
X1430530Y640258D01*
Y642483D01*
X1429954Y644632D01*
X1428842Y646559D01*
X1427268Y648132D01*
X1425341Y649245D01*
X1423192Y649820D01*
X1420968D01*
X1418818Y649245D01*
X1416891Y648132D01*
X1415781Y647021D01*
X1414281Y647643D01*
Y651718D01*
X1414087Y652694D01*
X1413534Y653521D01*
X1409585Y657470D01*
X1409954Y658109D01*
X1410530Y660258D01*
Y662483D01*
X1409954Y664632D01*
X1408842Y666559D01*
X1408127Y667273D01*
X1408749Y668773D01*
X1415411D01*
X1416033Y667273D01*
X1415318Y666559D01*
X1414206Y664632D01*
X1413630Y662483D01*
Y660258D01*
X1414206Y658109D01*
X1415318Y656182D01*
X1416891Y654609D01*
X1418818Y653496D01*
X1420968Y652920D01*
X1423192D01*
X1425341Y653496D01*
X1427268Y654609D01*
X1428842Y656182D01*
X1429954Y658109D01*
X1430530Y660258D01*
Y662483D01*
X1429954Y664632D01*
X1428842Y666559D01*
X1427886Y667514D01*
X1427828Y667779D01*
X1428061Y669268D01*
X1428100Y669324D01*
X1428393Y669520D01*
X1433346Y674473D01*
X1433899Y675300D01*
X1434093Y676275D01*
Y691906D01*
X1433899Y692882D01*
X1433346Y693708D01*
X1429585Y697470D01*
X1429954Y698109D01*
X1430530Y700258D01*
Y702483D01*
X1429954Y704632D01*
X1428842Y706559D01*
X1427268Y708132D01*
X1425341Y709244D01*
X1423192Y709820D01*
X1420968D01*
X1418818Y709244D01*
X1416891Y708132D01*
X1416543Y707783D01*
X1415043Y708405D01*
Y714336D01*
X1416543Y714957D01*
X1416891Y714609D01*
X1418818Y713496D01*
X1420968Y712920D01*
X1423192D01*
X1425341Y713496D01*
X1427268Y714609D01*
X1428842Y716182D01*
X1429954Y718109D01*
X1430530Y720258D01*
Y722483D01*
X1429954Y724632D01*
X1428842Y726559D01*
X1427268Y728132D01*
X1425341Y729244D01*
X1423192Y729820D01*
X1420968D01*
X1418818Y729244D01*
X1416891Y728132D01*
X1416543Y727783D01*
X1415043Y728405D01*
Y733077D01*
X1416543Y733609D01*
X1418417Y732527D01*
X1420810Y731886D01*
Y741370D01*
X1422080D01*
Y742640D01*
X1431564D01*
X1430923Y745033D01*
X1429674Y747197D01*
X1428692Y748179D01*
X1428124Y749308D01*
X1428696Y750213D01*
X1437918Y759436D01*
X1438471Y760263D01*
X1438665Y761238D01*
Y794867D01*
X1441971Y794873D01*
X1443033Y793813D01*
Y616530D01*
X1443508Y615382D01*
X1444657Y614907D01*
X1507657D01*
X1508805Y615382D01*
X1509280Y616530D01*
Y794986D01*
X1517113Y795000D01*
X1533978Y778135D01*
X1533978Y778135D01*
Y776345D01*
X1534663Y774691D01*
X1535929Y773425D01*
X1537583Y772740D01*
X1539373D01*
X1541027Y773425D01*
X1542293Y774691D01*
X1542978Y776345D01*
Y778135D01*
X1542293Y779789D01*
X1541027Y781055D01*
X1539373Y781740D01*
X1537583D01*
X1537583Y781740D01*
X1525694Y793629D01*
X1526267Y795015D01*
X1574770Y795097D01*
X1596635Y773232D01*
D02*
G37*
G36*
X1734557Y793867D02*
X1734098Y793181D01*
X1733632Y790839D01*
X1734098Y788498D01*
X1735424Y786514D01*
X1737409Y785188D01*
X1739750Y784722D01*
X1754750D01*
X1757091Y785188D01*
X1757618Y785540D01*
X1758941Y784833D01*
Y746353D01*
X1757086Y744498D01*
X1755422Y744956D01*
X1754977Y746030D01*
X1754398Y746609D01*
X1753781Y747589D01*
X1754398Y748569D01*
X1754977Y749149D01*
X1755700Y750894D01*
Y752784D01*
X1754977Y754530D01*
X1754398Y755109D01*
X1753781Y756089D01*
X1754398Y757069D01*
X1754977Y757648D01*
X1755700Y759394D01*
Y761284D01*
X1754977Y763030D01*
X1754397Y763609D01*
X1753781Y764589D01*
X1754397Y765569D01*
X1754977Y766149D01*
X1755700Y767895D01*
Y769784D01*
X1754977Y771530D01*
X1754398Y772110D01*
X1753781Y773090D01*
X1754398Y774069D01*
X1754977Y774649D01*
X1755700Y776395D01*
Y778284D01*
X1754977Y780030D01*
X1753641Y781366D01*
X1751895Y782089D01*
X1750005D01*
X1748259Y781366D01*
X1746923Y780030D01*
X1746200Y778284D01*
Y776395D01*
X1746283Y776195D01*
X1742929Y772841D01*
X1741394Y772962D01*
X1741209Y773047D01*
X1740769Y773865D01*
X1740898Y774069D01*
X1741477Y774649D01*
X1742200Y776395D01*
Y778284D01*
X1741477Y780030D01*
X1740141Y781366D01*
X1738395Y782089D01*
X1736505D01*
X1734759Y781366D01*
X1733423Y780030D01*
X1732700Y778284D01*
Y776395D01*
X1733423Y774649D01*
X1734002Y774069D01*
X1734619Y773090D01*
X1734002Y772110D01*
X1733423Y771530D01*
X1732700Y769784D01*
Y767895D01*
X1733423Y766149D01*
X1734003Y765569D01*
X1734619Y764589D01*
X1734003Y763609D01*
X1733423Y763030D01*
X1732700Y761284D01*
Y759394D01*
X1733423Y757648D01*
X1734002Y757069D01*
X1734619Y756089D01*
X1734002Y755109D01*
X1733423Y754530D01*
X1732700Y752784D01*
Y750894D01*
X1733423Y749149D01*
X1734002Y748569D01*
X1734619Y747589D01*
X1734002Y746609D01*
X1733423Y746030D01*
X1732700Y744284D01*
Y742395D01*
X1733423Y740649D01*
X1734002Y740070D01*
X1734619Y739090D01*
X1734002Y738110D01*
X1733423Y737530D01*
X1732700Y735785D01*
Y733895D01*
X1733423Y732149D01*
X1734003Y731569D01*
X1734619Y730589D01*
X1734003Y729610D01*
X1733423Y729030D01*
X1732700Y727284D01*
Y725394D01*
X1733423Y723649D01*
X1734002Y723069D01*
X1734619Y722089D01*
X1734002Y721109D01*
X1733708Y720815D01*
X1732828Y720915D01*
X1732466Y721016D01*
X1732123Y721190D01*
X1731523Y722639D01*
X1730257Y723905D01*
X1730257Y723905D01*
Y795360D01*
X1733754Y795366D01*
X1734557Y793867D01*
D02*
G37*
G36*
X1692901Y794235D02*
Y736839D01*
X1691441Y736380D01*
X1691401Y736380D01*
X1687508Y740272D01*
X1686681Y740825D01*
X1685706Y741019D01*
X1678228D01*
X1677607Y742519D01*
X1677887Y742799D01*
X1678610Y744545D01*
Y746435D01*
X1677887Y748181D01*
X1676551Y749517D01*
X1674805Y750240D01*
X1672915D01*
X1671169Y749517D01*
X1669833Y748181D01*
X1669520Y747424D01*
X1667751Y747073D01*
X1661677Y753146D01*
Y761233D01*
X1661677Y761233D01*
X1662943Y762499D01*
X1663628Y764153D01*
Y765943D01*
X1662943Y767597D01*
X1661677Y768863D01*
X1660023Y769548D01*
X1658233D01*
X1656579Y768863D01*
X1655313Y767597D01*
X1654628Y765943D01*
Y764153D01*
X1655313Y762499D01*
X1656579Y761233D01*
X1656579Y761233D01*
Y752090D01*
X1656773Y751115D01*
X1657326Y750288D01*
X1670946Y736668D01*
X1671773Y736115D01*
X1672748Y735921D01*
X1684650D01*
X1687059Y733512D01*
Y651042D01*
X1684869Y648852D01*
X1682455D01*
X1681810Y650352D01*
X1682365Y651690D01*
Y653481D01*
X1681680Y655135D01*
X1680414Y656400D01*
X1678760Y657085D01*
X1676969D01*
X1676969Y657085D01*
X1608733Y725322D01*
Y793908D01*
X1610233Y794530D01*
X1616701Y788062D01*
Y765815D01*
X1616701Y765815D01*
X1615435Y764549D01*
X1614750Y762895D01*
Y761105D01*
X1615435Y759451D01*
X1616701Y758185D01*
X1618355Y757500D01*
X1620145D01*
X1621799Y758185D01*
X1623065Y759451D01*
X1623750Y761105D01*
Y762895D01*
X1623065Y764549D01*
X1621799Y765815D01*
X1621799Y765815D01*
Y789118D01*
X1621605Y790093D01*
X1621052Y790920D01*
X1618187Y793785D01*
X1618760Y795172D01*
X1664269Y795248D01*
X1664845Y793863D01*
X1646005Y775024D01*
X1645253Y773897D01*
X1644988Y772569D01*
Y725682D01*
X1644645Y725339D01*
X1643960Y723685D01*
Y721895D01*
X1644645Y720241D01*
X1645911Y718975D01*
X1647565Y718290D01*
X1649355D01*
X1651009Y718975D01*
X1652275Y720241D01*
X1652960Y721895D01*
Y723685D01*
X1652275Y725339D01*
X1651932Y725682D01*
Y771131D01*
X1676069Y795268D01*
X1691839Y795295D01*
X1692901Y794235D01*
D02*
G37*
G36*
X1642182Y670947D02*
X1642182Y670947D01*
Y669157D01*
X1642580Y668196D01*
X1641308Y667346D01*
X1601733Y706922D01*
Y709436D01*
X1603119Y710011D01*
X1642182Y670947D01*
D02*
G37*
G36*
X1673365Y653481D02*
X1673365Y653481D01*
Y651690D01*
X1673919Y650352D01*
X1673274Y648852D01*
X1659803D01*
X1643976Y664678D01*
X1644826Y665950D01*
X1645787Y665552D01*
X1647577D01*
X1649231Y666237D01*
X1650497Y667503D01*
X1651182Y669157D01*
Y670947D01*
X1650497Y672601D01*
X1649231Y673867D01*
X1647577Y674552D01*
X1645787D01*
X1645787Y674552D01*
X1605233Y715106D01*
Y719652D01*
X1606619Y720226D01*
X1673365Y653481D01*
D02*
G37*
G36*
X1725159Y794290D02*
Y723905D01*
X1725159Y723905D01*
X1723893Y722639D01*
X1723208Y720985D01*
Y719195D01*
X1723893Y717541D01*
X1725159Y716275D01*
X1726813Y715590D01*
X1728603D01*
X1730257Y716275D01*
X1731200Y717218D01*
X1732298Y716981D01*
X1732640Y716859D01*
X1732740Y716798D01*
X1733423Y715149D01*
X1734759Y713812D01*
X1736505Y713089D01*
X1738395D01*
X1740141Y713812D01*
X1741477Y715149D01*
X1742200Y716895D01*
Y718784D01*
X1741845Y719642D01*
X1743116Y720492D01*
X1746200Y717408D01*
Y716895D01*
X1746923Y715149D01*
X1748259Y713812D01*
X1750005Y713089D01*
X1751895D01*
X1753641Y713812D01*
X1754977Y715149D01*
X1755700Y716895D01*
Y718784D01*
X1754977Y720530D01*
X1754969Y720538D01*
X1754970Y720909D01*
X1755488Y722141D01*
X1756300Y722302D01*
X1757427Y723055D01*
X1769025Y734653D01*
X1769777Y735779D01*
X1770042Y737108D01*
X1769884Y737903D01*
Y788424D01*
X1771384Y788571D01*
X1771398Y788498D01*
X1772724Y786514D01*
X1774709Y785188D01*
X1777050Y784722D01*
X1785050D01*
X1785620Y784254D01*
Y710925D01*
X1785050Y710457D01*
X1777050D01*
X1774709Y709991D01*
X1772724Y708665D01*
X1771398Y706680D01*
X1770932Y704339D01*
X1771398Y701998D01*
X1772724Y700014D01*
X1774709Y698687D01*
X1777050Y698222D01*
X1785050D01*
X1785620Y697754D01*
Y481330D01*
X1376680D01*
Y794762D01*
X1388817Y794783D01*
X1389879Y793723D01*
Y675894D01*
X1390073Y674919D01*
X1390626Y674092D01*
X1395198Y669520D01*
X1395773Y669135D01*
X1396113Y668012D01*
X1396169Y667409D01*
X1395318Y666559D01*
X1394206Y664632D01*
X1393630Y662483D01*
Y660258D01*
X1394206Y658109D01*
X1395318Y656182D01*
X1396892Y654609D01*
X1398818Y653496D01*
X1400968Y652920D01*
X1403192D01*
X1405342Y653496D01*
X1405981Y653865D01*
X1409183Y650663D01*
Y648339D01*
X1407683Y647717D01*
X1407268Y648132D01*
X1405342Y649245D01*
X1403192Y649820D01*
X1400968D01*
X1398818Y649245D01*
X1396892Y648132D01*
X1395318Y646559D01*
X1394206Y644632D01*
X1393630Y642483D01*
Y640258D01*
X1394206Y638109D01*
X1395318Y636182D01*
X1396892Y634609D01*
X1398818Y633496D01*
X1400968Y632920D01*
X1403192D01*
X1405342Y633496D01*
X1407268Y634609D01*
X1407683Y635023D01*
X1409183Y634402D01*
Y628339D01*
X1407683Y627717D01*
X1407268Y628132D01*
X1405342Y629244D01*
X1403192Y629820D01*
X1400968D01*
X1398818Y629244D01*
X1396892Y628132D01*
X1395318Y626559D01*
X1394206Y624632D01*
X1393630Y622483D01*
Y620258D01*
X1394206Y618109D01*
X1395318Y616182D01*
X1396892Y614609D01*
X1398818Y613496D01*
X1400968Y612920D01*
X1403192D01*
X1405342Y613496D01*
X1407268Y614609D01*
X1407683Y615023D01*
X1409183Y614402D01*
Y603250D01*
X1409377Y602275D01*
X1409930Y601448D01*
X1413369Y598008D01*
X1414196Y597455D01*
X1415172Y597261D01*
X1437219D01*
X1483562Y550918D01*
X1484389Y550366D01*
X1485365Y550172D01*
X1503331D01*
X1503952Y548672D01*
X1503929Y548649D01*
X1503244Y546995D01*
Y545205D01*
X1503929Y543551D01*
X1505195Y542285D01*
X1506849Y541600D01*
X1508639D01*
X1510293Y542285D01*
X1511559Y543551D01*
X1511559Y543551D01*
X1549555D01*
X1549555Y543551D01*
X1550821Y542285D01*
X1552475Y541600D01*
X1554265D01*
X1555919Y542285D01*
X1557185Y543551D01*
X1557870Y545205D01*
Y546995D01*
X1557185Y548649D01*
X1557162Y548672D01*
X1557784Y550172D01*
X1615000D01*
X1615975Y550366D01*
X1616802Y550918D01*
X1697252Y631369D01*
X1697805Y632196D01*
X1697999Y633171D01*
Y795305D01*
X1724097Y795350D01*
X1725159Y794290D01*
D02*
G37*
%LPC*%
G36*
X1616385Y912800D02*
X1614495D01*
X1612749Y912077D01*
X1611413Y910741D01*
X1610690Y908995D01*
Y907105D01*
X1611413Y905359D01*
X1612749Y904023D01*
X1614495Y903300D01*
X1616385D01*
X1618131Y904023D01*
X1619467Y905359D01*
X1620190Y907105D01*
Y908995D01*
X1619467Y910741D01*
X1618131Y912077D01*
X1616385Y912800D01*
D02*
G37*
G36*
X1663833Y862254D02*
X1662043D01*
X1660389Y861569D01*
X1659123Y860303D01*
X1658438Y858649D01*
Y856859D01*
X1659123Y855205D01*
X1660389Y853939D01*
X1662043Y853254D01*
X1663833D01*
X1665487Y853939D01*
X1666753Y855205D01*
X1667438Y856859D01*
Y858649D01*
X1666753Y860303D01*
X1665487Y861569D01*
X1663833Y862254D01*
D02*
G37*
G36*
X1705136Y855570D02*
X1703544D01*
X1702074Y854961D01*
X1700949Y853836D01*
X1700340Y852366D01*
Y850774D01*
X1700949Y849304D01*
X1702074Y848179D01*
X1703544Y847570D01*
X1705136D01*
X1706606Y848179D01*
X1707731Y849304D01*
X1708340Y850774D01*
Y852366D01*
X1707731Y853836D01*
X1706606Y854961D01*
X1705136Y855570D01*
D02*
G37*
G36*
X1714636Y849820D02*
X1713044D01*
X1711574Y849211D01*
X1710449Y848086D01*
X1709840Y846616D01*
Y845024D01*
X1710449Y843554D01*
X1711574Y842429D01*
X1713044Y841820D01*
X1714636D01*
X1716106Y842429D01*
X1717231Y843554D01*
X1717840Y845024D01*
Y846616D01*
X1717231Y848086D01*
X1716106Y849211D01*
X1714636Y849820D01*
D02*
G37*
G36*
X1695636D02*
X1694044D01*
X1692574Y849211D01*
X1691449Y848086D01*
X1690840Y846616D01*
Y845024D01*
X1691449Y843554D01*
X1692574Y842429D01*
X1694044Y841820D01*
X1695636D01*
X1697106Y842429D01*
X1698231Y843554D01*
X1698840Y845024D01*
Y846616D01*
X1698231Y848086D01*
X1697106Y849211D01*
X1695636Y849820D01*
D02*
G37*
G36*
X1705136Y844070D02*
X1703544D01*
X1702074Y843461D01*
X1700949Y842336D01*
X1700340Y840866D01*
Y839274D01*
X1700949Y837804D01*
X1702074Y836679D01*
X1703544Y836070D01*
X1705136D01*
X1706606Y836679D01*
X1707731Y837804D01*
X1708340Y839274D01*
Y840866D01*
X1707731Y842336D01*
X1706606Y843461D01*
X1705136Y844070D01*
D02*
G37*
G36*
X1666971Y817683D02*
X1665181D01*
X1663527Y816998D01*
X1662261Y815732D01*
X1661576Y814079D01*
Y812288D01*
X1662261Y810634D01*
X1663527Y809369D01*
X1665181Y808683D01*
X1666971D01*
X1668625Y809369D01*
X1669891Y810634D01*
X1670576Y812288D01*
Y814079D01*
X1669891Y815732D01*
X1668625Y816998D01*
X1666971Y817683D01*
D02*
G37*
G36*
X1591576Y880783D02*
Y876583D01*
X1595776D01*
X1595002Y878451D01*
X1593444Y880010D01*
X1591576Y880783D01*
D02*
G37*
G36*
X1589036D02*
X1587168Y880010D01*
X1585609Y878451D01*
X1584835Y876583D01*
X1589036D01*
Y880783D01*
D02*
G37*
G36*
X1595776Y874043D02*
X1591576D01*
Y869843D01*
X1593444Y870616D01*
X1595002Y872175D01*
X1595776Y874043D01*
D02*
G37*
G36*
X1589036D02*
X1584835D01*
X1585609Y872175D01*
X1587168Y870616D01*
X1589036Y869843D01*
Y874043D01*
D02*
G37*
G36*
X1585601Y776660D02*
X1583811D01*
X1582157Y775975D01*
X1580891Y774709D01*
X1580206Y773055D01*
Y771265D01*
X1580891Y769611D01*
X1582157Y768345D01*
X1583811Y767660D01*
X1585601D01*
X1587255Y768345D01*
X1588521Y769611D01*
X1589206Y771265D01*
Y773055D01*
X1588521Y774709D01*
X1587255Y775975D01*
X1585601Y776660D01*
D02*
G37*
G36*
X1539627Y746180D02*
X1537837D01*
X1536183Y745495D01*
X1534917Y744229D01*
X1534232Y742575D01*
Y740785D01*
X1534232Y740785D01*
X1516356Y722908D01*
X1515803Y722082D01*
X1515609Y721106D01*
Y580649D01*
X1515609Y580649D01*
X1514343Y579383D01*
X1513658Y577729D01*
Y575939D01*
X1514343Y574285D01*
X1515609Y573019D01*
X1517263Y572334D01*
X1519053D01*
X1520707Y573019D01*
X1521973Y574285D01*
X1522658Y575939D01*
Y577729D01*
X1521973Y579383D01*
X1520707Y580649D01*
X1520707Y580649D01*
Y720050D01*
X1537837Y737180D01*
X1537837Y737180D01*
X1539627D01*
X1541281Y737865D01*
X1542547Y739131D01*
X1543232Y740785D01*
Y742575D01*
X1542547Y744229D01*
X1541281Y745495D01*
X1539627Y746180D01*
D02*
G37*
G36*
X1431564Y740100D02*
X1423350D01*
Y731886D01*
X1425743Y732527D01*
X1427907Y733776D01*
X1429674Y735543D01*
X1430923Y737707D01*
X1431564Y740100D01*
D02*
G37*
G36*
X1612525Y665600D02*
X1610735D01*
X1609081Y664915D01*
X1607815Y663649D01*
X1607130Y661995D01*
Y660205D01*
X1607815Y658551D01*
X1609081Y657285D01*
X1610735Y656600D01*
X1612525D01*
X1614179Y657285D01*
X1615445Y658551D01*
X1616130Y660205D01*
Y661995D01*
X1615445Y663649D01*
X1614179Y664915D01*
X1612525Y665600D01*
D02*
G37*
G36*
X1548136Y728400D02*
X1546346D01*
X1544692Y727715D01*
X1543426Y726449D01*
X1542741Y724795D01*
Y723005D01*
X1543426Y721351D01*
X1544692Y720085D01*
X1544692Y720085D01*
Y646254D01*
X1543192Y645277D01*
X1542421Y645596D01*
X1540631D01*
X1538977Y644911D01*
X1537711Y643645D01*
X1537026Y641991D01*
Y640201D01*
X1537711Y638547D01*
X1538977Y637281D01*
X1540631Y636596D01*
X1542421D01*
X1544075Y637281D01*
X1545341Y638547D01*
X1545752Y639539D01*
X1547412Y640001D01*
X1590887Y596525D01*
X1590887Y596525D01*
Y594735D01*
X1591572Y593081D01*
X1592838Y591815D01*
X1594392Y591171D01*
X1593714Y589534D01*
X1604654D01*
X1603881Y591402D01*
X1602322Y592961D01*
X1601002Y593507D01*
X1599887Y594735D01*
Y596525D01*
X1599202Y598179D01*
X1597936Y599445D01*
X1596282Y600130D01*
X1594492D01*
X1594492Y600130D01*
X1549790Y644832D01*
Y720085D01*
X1549790Y720085D01*
X1551056Y721351D01*
X1551741Y723005D01*
Y724795D01*
X1551056Y726449D01*
X1549790Y727715D01*
X1548136Y728400D01*
D02*
G37*
G36*
X1543050Y596020D02*
Y591820D01*
X1547250D01*
X1546477Y593688D01*
X1544918Y595247D01*
X1543050Y596020D01*
D02*
G37*
G36*
X1540510D02*
X1538642Y595247D01*
X1537083Y593688D01*
X1536310Y591820D01*
X1540510D01*
Y596020D01*
D02*
G37*
G36*
X1547250Y589280D02*
X1543050D01*
Y585080D01*
X1544918Y585853D01*
X1546477Y587412D01*
X1547250Y589280D01*
D02*
G37*
G36*
X1540510D02*
X1536310D01*
X1537083Y587412D01*
X1538642Y585853D01*
X1540510Y585080D01*
Y589280D01*
D02*
G37*
G36*
X1604654Y586994D02*
X1600454D01*
Y582794D01*
X1602322Y583567D01*
X1603881Y585126D01*
X1604654Y586994D01*
D02*
G37*
G36*
X1597914D02*
X1593714D01*
X1594487Y585126D01*
X1596046Y583567D01*
X1597914Y582794D01*
Y586994D01*
D02*
G37*
G36*
X1579137Y751877D02*
X1577347D01*
X1575693Y751192D01*
X1574427Y749926D01*
X1573742Y748272D01*
Y746482D01*
X1574427Y744828D01*
X1575693Y743562D01*
X1575693Y743562D01*
Y657904D01*
X1575887Y656928D01*
X1576439Y656101D01*
X1615177Y617364D01*
Y578323D01*
X1615177Y578323D01*
X1613911Y577057D01*
X1613226Y575404D01*
Y573613D01*
X1613271Y573505D01*
X1612984Y572999D01*
X1612192Y572190D01*
X1610735D01*
X1609081Y571505D01*
X1607815Y570239D01*
X1607130Y568585D01*
Y566795D01*
X1607815Y565141D01*
X1609081Y563875D01*
X1610735Y563190D01*
X1612525D01*
X1614179Y563875D01*
X1615445Y565141D01*
X1616130Y566795D01*
Y568585D01*
X1616085Y568694D01*
X1616372Y569199D01*
X1617164Y570008D01*
X1618621D01*
X1620275Y570694D01*
X1621541Y571959D01*
X1622226Y573613D01*
Y575404D01*
X1621541Y577057D01*
X1620275Y578323D01*
X1620275Y578323D01*
Y618419D01*
X1620081Y619395D01*
X1619528Y620222D01*
X1580791Y658960D01*
Y743562D01*
X1580791Y743562D01*
X1582057Y744828D01*
X1582742Y746482D01*
Y748272D01*
X1582057Y749926D01*
X1580791Y751192D01*
X1579137Y751877D01*
D02*
G37*
G36*
X1714175Y788340D02*
X1712285D01*
X1710539Y787617D01*
X1709203Y786281D01*
X1708480Y784535D01*
Y782645D01*
X1709203Y780899D01*
X1710539Y779563D01*
X1712285Y778840D01*
X1714175D01*
X1715921Y779563D01*
X1717257Y780899D01*
X1717980Y782645D01*
Y784535D01*
X1717257Y786281D01*
X1715921Y787617D01*
X1714175Y788340D01*
D02*
G37*
G36*
X1754750Y710457D02*
X1739750D01*
X1737409Y709991D01*
X1735424Y708665D01*
X1734098Y706680D01*
X1733632Y704339D01*
X1734098Y701998D01*
X1735424Y700014D01*
X1737409Y698687D01*
X1739750Y698222D01*
X1754750D01*
X1757091Y698687D01*
X1759075Y700014D01*
X1760402Y701998D01*
X1760867Y704339D01*
X1760402Y706680D01*
X1759075Y708665D01*
X1757091Y709991D01*
X1754750Y710457D01*
D02*
G37*
G36*
X1716715Y654990D02*
X1714825D01*
X1713079Y654267D01*
X1711743Y652931D01*
X1711020Y651185D01*
Y649295D01*
X1711743Y647549D01*
X1713079Y646213D01*
X1714825Y645490D01*
X1716715D01*
X1718461Y646213D01*
X1719797Y647549D01*
X1720520Y649295D01*
Y651185D01*
X1719797Y652931D01*
X1718461Y654267D01*
X1716715Y654990D01*
D02*
G37*
G36*
X1434950Y592928D02*
X1419950D01*
X1417609Y592462D01*
X1415624Y591136D01*
X1414298Y589151D01*
X1413833Y586810D01*
X1414298Y584469D01*
X1415624Y582484D01*
X1417609Y581158D01*
X1419950Y580693D01*
X1434950D01*
X1437291Y581158D01*
X1439276Y582484D01*
X1440602Y584469D01*
X1441068Y586810D01*
X1440602Y589151D01*
X1439276Y591136D01*
X1437291Y592462D01*
X1434950Y592928D01*
D02*
G37*
G36*
X1397650D02*
X1389650D01*
X1387309Y592462D01*
X1385325Y591136D01*
X1383998Y589151D01*
X1383533Y586810D01*
X1383998Y584469D01*
X1385325Y582484D01*
X1387309Y581158D01*
X1389650Y580693D01*
X1397650D01*
X1399991Y581158D01*
X1401976Y582484D01*
X1403302Y584469D01*
X1403768Y586810D01*
X1403302Y589151D01*
X1401976Y591136D01*
X1399991Y592462D01*
X1397650Y592928D01*
D02*
G37*
G36*
X1707556Y583040D02*
X1705965D01*
X1704494Y582431D01*
X1703369Y581306D01*
X1702760Y579836D01*
Y578318D01*
X1702463Y578049D01*
X1701818Y577624D01*
X1701463Y577457D01*
X1700056Y578040D01*
X1698464D01*
X1697057Y577457D01*
X1696702Y577624D01*
X1696057Y578049D01*
X1695760Y578318D01*
Y579836D01*
X1695151Y581306D01*
X1694026Y582431D01*
X1692556Y583040D01*
X1690964D01*
X1689494Y582431D01*
X1688369Y581306D01*
X1687760Y579836D01*
Y578245D01*
X1688369Y576774D01*
X1689494Y575649D01*
X1690964Y575040D01*
X1692556D01*
X1693963Y575623D01*
X1694318Y575457D01*
X1694963Y575031D01*
X1695238Y574782D01*
X1695238Y573298D01*
X1694961Y573047D01*
X1694320Y572625D01*
X1693962Y572458D01*
X1692556Y573040D01*
X1690964D01*
X1689494Y572431D01*
X1688369Y571306D01*
X1687760Y569836D01*
Y568245D01*
X1688369Y566774D01*
X1689494Y565649D01*
X1690964Y565040D01*
X1692556D01*
X1694026Y565649D01*
X1695151Y566774D01*
X1695760Y568245D01*
Y569762D01*
X1696059Y570033D01*
X1696700Y570455D01*
X1697058Y570623D01*
X1698464Y570040D01*
X1700056D01*
X1701462Y570623D01*
X1701820Y570455D01*
X1702461Y570033D01*
X1702760Y569762D01*
Y568245D01*
X1703369Y566774D01*
X1704494Y565649D01*
X1705965Y565040D01*
X1707556D01*
X1709026Y565649D01*
X1710151Y566774D01*
X1710760Y568245D01*
Y569836D01*
X1710151Y571306D01*
X1709026Y572431D01*
X1707556Y573040D01*
X1705965D01*
X1704558Y572458D01*
X1704200Y572625D01*
X1703559Y573047D01*
X1703282Y573298D01*
X1703282Y574782D01*
X1703557Y575031D01*
X1704202Y575457D01*
X1704557Y575623D01*
X1705965Y575040D01*
X1707556D01*
X1709026Y575649D01*
X1710151Y576774D01*
X1710760Y578245D01*
Y579836D01*
X1710151Y581306D01*
X1709026Y582431D01*
X1707556Y583040D01*
D02*
G37*
G36*
X1438195Y578060D02*
X1436305D01*
X1434559Y577337D01*
X1433223Y576001D01*
X1432500Y574255D01*
Y572365D01*
X1433223Y570619D01*
X1433802Y570040D01*
X1434054Y569640D01*
X1433439Y568282D01*
X1427561D01*
X1426946Y569640D01*
X1427198Y570040D01*
X1427777Y570619D01*
X1428500Y572365D01*
Y574255D01*
X1427777Y576001D01*
X1426441Y577337D01*
X1424695Y578060D01*
X1422805D01*
X1421060Y577337D01*
X1419723Y576001D01*
X1419000Y574255D01*
Y572365D01*
X1419723Y570619D01*
X1420303Y570040D01*
X1420919Y569060D01*
X1420303Y568080D01*
X1419723Y567501D01*
X1419000Y565755D01*
Y563865D01*
X1419723Y562119D01*
X1420303Y561540D01*
X1420919Y560560D01*
X1420303Y559580D01*
X1419723Y559001D01*
X1419000Y557255D01*
Y555365D01*
X1419723Y553619D01*
X1420303Y553040D01*
X1420919Y552060D01*
X1420303Y551080D01*
X1419723Y550501D01*
X1419000Y548755D01*
Y546865D01*
X1419723Y545119D01*
X1420303Y544540D01*
X1420919Y543560D01*
X1420303Y542580D01*
X1419723Y542001D01*
X1419000Y540255D01*
Y538365D01*
X1419723Y536619D01*
X1420303Y536040D01*
X1420919Y535060D01*
X1420303Y534080D01*
X1419723Y533501D01*
X1419000Y531755D01*
Y529865D01*
X1419723Y528120D01*
X1420303Y527540D01*
X1420919Y526560D01*
X1420303Y525580D01*
X1419723Y525000D01*
X1419000Y523255D01*
Y521365D01*
X1419723Y519619D01*
X1420303Y519040D01*
X1420919Y518060D01*
X1420303Y517080D01*
X1419723Y516501D01*
X1419000Y514755D01*
Y512865D01*
X1419723Y511119D01*
X1421060Y509783D01*
X1422805Y509060D01*
X1424695D01*
X1426441Y509783D01*
X1427777Y511119D01*
X1428500Y512865D01*
Y514755D01*
X1427777Y516501D01*
X1427198Y517080D01*
X1426946Y517480D01*
X1427561Y518838D01*
X1433439D01*
X1434054Y517480D01*
X1433802Y517080D01*
X1433223Y516501D01*
X1432500Y514755D01*
Y512865D01*
X1433223Y511119D01*
X1434559Y509783D01*
X1436305Y509060D01*
X1438195D01*
X1439940Y509783D01*
X1441277Y511119D01*
X1442000Y512865D01*
Y514755D01*
X1441277Y516501D01*
X1440697Y517080D01*
X1440081Y518060D01*
X1440697Y519040D01*
X1441277Y519619D01*
X1441335Y519761D01*
X1590676D01*
X1593034Y517403D01*
Y515157D01*
X1593228Y514181D01*
X1593781Y513354D01*
X1595700Y511435D01*
X1595700Y511435D01*
Y509645D01*
X1596385Y507991D01*
X1597651Y506725D01*
X1599305Y506040D01*
X1601095D01*
X1602749Y506725D01*
X1604015Y507991D01*
X1604700Y509645D01*
Y511435D01*
X1604015Y513089D01*
X1602749Y514355D01*
X1601095Y515040D01*
X1599305D01*
X1599305Y515040D01*
X1598132Y516212D01*
Y518459D01*
X1597938Y519434D01*
X1597386Y520261D01*
X1593535Y524112D01*
X1592708Y524665D01*
X1591732Y524859D01*
X1441335D01*
X1441277Y525000D01*
X1440697Y525580D01*
X1440081Y526560D01*
X1440697Y527540D01*
X1441277Y528120D01*
X1442000Y529865D01*
Y531755D01*
X1441277Y533501D01*
X1440697Y534080D01*
X1440081Y535060D01*
X1440697Y536040D01*
X1441277Y536619D01*
X1442000Y538365D01*
Y540255D01*
X1441277Y542001D01*
X1440697Y542580D01*
X1440081Y543560D01*
X1440697Y544540D01*
X1441277Y545119D01*
X1442000Y546865D01*
Y548755D01*
X1441277Y550501D01*
X1440697Y551080D01*
X1440081Y552060D01*
X1440697Y553040D01*
X1441277Y553619D01*
X1442000Y555365D01*
Y557255D01*
X1441277Y559001D01*
X1440697Y559580D01*
X1440081Y560560D01*
X1440697Y561540D01*
X1441277Y562119D01*
X1442000Y563865D01*
Y565755D01*
X1441277Y567501D01*
X1440697Y568080D01*
X1440081Y569060D01*
X1440697Y570040D01*
X1441277Y570619D01*
X1442000Y572365D01*
Y574255D01*
X1441277Y576001D01*
X1439940Y577337D01*
X1438195Y578060D01*
D02*
G37*
G36*
X1646338Y545860D02*
X1644747D01*
X1643277Y545251D01*
X1642151Y544126D01*
X1641543Y542656D01*
Y541065D01*
X1642151Y539594D01*
X1643277Y538469D01*
X1644747Y537860D01*
X1646338D01*
X1647808Y538469D01*
X1648934Y539594D01*
X1649543Y541065D01*
Y542656D01*
X1648934Y544126D01*
X1647808Y545251D01*
X1646338Y545860D01*
D02*
G37*
G36*
X1635338D02*
X1633747D01*
X1632276Y545251D01*
X1631151Y544126D01*
X1630542Y542656D01*
Y541065D01*
X1631151Y539594D01*
X1632276Y538469D01*
X1633747Y537860D01*
X1635338D01*
X1636808Y538469D01*
X1637933Y539594D01*
X1638542Y541065D01*
Y542656D01*
X1637933Y544126D01*
X1636808Y545251D01*
X1635338Y545860D01*
D02*
G37*
G36*
X1624338D02*
X1622746D01*
X1621276Y545251D01*
X1620151Y544126D01*
X1619542Y542656D01*
Y541065D01*
X1620151Y539594D01*
X1621276Y538469D01*
X1622746Y537860D01*
X1624338D01*
X1625808Y538469D01*
X1626933Y539594D01*
X1627542Y541065D01*
Y542656D01*
X1626933Y544126D01*
X1625808Y545251D01*
X1624338Y545860D01*
D02*
G37*
G36*
X1646338Y534860D02*
X1644747D01*
X1643277Y534251D01*
X1642151Y533126D01*
X1641543Y531656D01*
Y530064D01*
X1642151Y528594D01*
X1643277Y527469D01*
X1644747Y526860D01*
X1646338D01*
X1647808Y527469D01*
X1648934Y528594D01*
X1649543Y530064D01*
Y531656D01*
X1648934Y533126D01*
X1647808Y534251D01*
X1646338Y534860D01*
D02*
G37*
G36*
X1635338D02*
X1633747D01*
X1632276Y534251D01*
X1631151Y533126D01*
X1630542Y531656D01*
Y530064D01*
X1631151Y528594D01*
X1632276Y527469D01*
X1633747Y526860D01*
X1635338D01*
X1636808Y527469D01*
X1637933Y528594D01*
X1638542Y530064D01*
Y531656D01*
X1637933Y533126D01*
X1636808Y534251D01*
X1635338Y534860D01*
D02*
G37*
G36*
X1624338D02*
X1622746D01*
X1621276Y534251D01*
X1620151Y533126D01*
X1619542Y531656D01*
Y530064D01*
X1620151Y528594D01*
X1621276Y527469D01*
X1622746Y526860D01*
X1624338D01*
X1625808Y527469D01*
X1626933Y528594D01*
X1627542Y530064D01*
Y531656D01*
X1626933Y533126D01*
X1625808Y534251D01*
X1624338Y534860D01*
D02*
G37*
G36*
X1646338Y523860D02*
X1644747D01*
X1643277Y523251D01*
X1642151Y522126D01*
X1641543Y520655D01*
Y519064D01*
X1642151Y517594D01*
X1643277Y516469D01*
X1644747Y515860D01*
X1646338D01*
X1647808Y516469D01*
X1648934Y517594D01*
X1649543Y519064D01*
Y520655D01*
X1648934Y522126D01*
X1647808Y523251D01*
X1646338Y523860D01*
D02*
G37*
G36*
X1635338D02*
X1633747D01*
X1632276Y523251D01*
X1631151Y522126D01*
X1630542Y520655D01*
Y519064D01*
X1631151Y517594D01*
X1632276Y516469D01*
X1633747Y515860D01*
X1635338D01*
X1636808Y516469D01*
X1637933Y517594D01*
X1638542Y519064D01*
Y520655D01*
X1637933Y522126D01*
X1636808Y523251D01*
X1635338Y523860D01*
D02*
G37*
G36*
X1624338D02*
X1622746D01*
X1621276Y523251D01*
X1620151Y522126D01*
X1619542Y520655D01*
Y519064D01*
X1620151Y517594D01*
X1621276Y516469D01*
X1622746Y515860D01*
X1624338D01*
X1625808Y516469D01*
X1626933Y517594D01*
X1627542Y519064D01*
Y520655D01*
X1626933Y522126D01*
X1625808Y523251D01*
X1624338Y523860D01*
D02*
G37*
G36*
X1434950Y506427D02*
X1419950D01*
X1417609Y505962D01*
X1415624Y504636D01*
X1414298Y502651D01*
X1413833Y500310D01*
X1414298Y497969D01*
X1415624Y495984D01*
X1417609Y494658D01*
X1419950Y494192D01*
X1434950D01*
X1437291Y494658D01*
X1439276Y495984D01*
X1440602Y497969D01*
X1441068Y500310D01*
X1440602Y502651D01*
X1439276Y504636D01*
X1437291Y505962D01*
X1434950Y506427D01*
D02*
G37*
G36*
X1397650D02*
X1389650D01*
X1387309Y505962D01*
X1385325Y504636D01*
X1383998Y502651D01*
X1383533Y500310D01*
X1383998Y497969D01*
X1385325Y495984D01*
X1387309Y494658D01*
X1389650Y494192D01*
X1397650D01*
X1399991Y494658D01*
X1401976Y495984D01*
X1403302Y497969D01*
X1403768Y500310D01*
X1403302Y502651D01*
X1401976Y504636D01*
X1399991Y505962D01*
X1397650Y506427D01*
D02*
G37*
%LPD*%
D12*
X1750203Y734010D02*
X1761490Y745297D01*
X1761750Y787940D02*
Y793739D01*
X1761490Y793999D02*
Y799846D01*
Y745297D02*
Y787680D01*
X1761750Y787940D01*
X1756410Y804926D02*
X1761490Y799846D01*
Y793999D02*
X1761750Y793739D01*
X1733296Y804926D02*
X1756410D01*
X1727708Y799338D02*
X1733296Y804926D01*
X1727708Y720090D02*
Y799338D01*
X1744218Y770525D02*
X1750203Y776510D01*
X1744218Y722995D02*
Y770525D01*
Y722995D02*
X1750203Y717010D01*
X1595583Y515157D02*
Y518459D01*
Y515157D02*
X1600200Y510540D01*
X1591732Y522310D02*
X1595583Y518459D01*
X1695450Y633171D02*
Y801370D01*
X1615000Y552721D02*
X1695450Y633171D01*
X1659128Y752090D02*
Y765048D01*
X1672748Y738470D02*
X1685706D01*
X1659128Y752090D02*
X1672748Y738470D01*
X1685706D02*
X1689608Y734568D01*
X1531648Y868680D02*
X1578720Y821608D01*
X1497330Y868680D02*
X1531648D01*
X1436116Y817626D02*
X1494790Y876300D01*
X1436116Y761238D02*
Y817626D01*
X1494790Y876300D02*
X1532068D01*
X1619250Y789118D01*
X1458214Y880110D02*
X1570748D01*
X1432394Y854290D02*
X1458214Y880110D01*
X1570748D02*
X1577606Y873252D01*
X1524632Y836476D02*
X1554242D01*
X1602684Y788034D01*
Y714050D02*
Y788034D01*
X1518920Y558800D02*
X1525270Y565150D01*
X1598930D01*
X1438275Y599810D02*
X1485365Y552721D01*
X1615000D01*
X1562640Y803632D02*
X1569840D01*
X1599184Y774288D01*
X1533296Y832976D02*
X1562640Y803632D01*
X1526081Y832976D02*
X1533296D01*
X1599184Y705866D02*
Y774288D01*
X1581810Y821608D02*
X1606184Y797234D01*
X1578720Y821608D02*
X1581810D01*
X1619250Y762000D02*
Y789118D01*
X1606184Y724266D02*
Y797234D01*
X1494440Y821278D02*
X1538478Y777240D01*
X1606184Y724266D02*
X1677865Y652585D01*
X1602684Y714050D02*
X1646682Y670052D01*
X1523856Y835700D02*
X1524632Y836476D01*
X1498648Y840740D02*
X1507879D01*
X1512919Y835700D01*
X1523856D01*
X1518158Y576834D02*
Y721106D01*
X1524918Y831812D02*
X1526081Y832976D01*
X1496204Y831812D02*
X1524918D01*
X1495041Y832976D02*
X1496204Y831812D01*
X1477882Y832976D02*
X1495041D01*
X1636776Y806196D02*
Y864012D01*
X1586134Y914654D02*
X1636776Y864012D01*
X1417066Y914654D02*
X1586134D01*
X1478686Y822985D02*
X1482725Y827024D01*
X1522476D02*
X1538602Y810898D01*
X1453408Y810407D02*
X1466108D01*
X1599184Y588264D02*
Y588772D01*
X1422080Y741370D02*
X1440688Y759978D01*
X1482725Y827024D02*
X1522476D01*
X1440688Y797687D02*
X1453408Y810407D01*
X1440688Y759978D02*
Y797687D01*
X1547241Y643776D02*
X1595387Y595630D01*
X1547241Y643776D02*
Y723900D01*
X1518158Y721106D02*
X1538732Y741680D01*
X1578242Y657904D02*
Y747377D01*
Y657904D02*
X1617726Y618419D01*
Y574508D02*
Y618419D01*
X1507744Y546100D02*
X1553370D01*
X1437250Y522310D02*
X1591732D01*
X1466108Y810407D02*
X1478686Y822985D01*
X1422080Y781370D02*
X1432394Y791684D01*
Y854290D01*
X1422080Y801370D02*
Y858708D01*
X1465834Y902462D01*
X1577606D01*
X1422080Y701370D02*
X1431544Y691906D01*
Y676275D02*
Y691906D01*
X1426591Y671322D02*
X1431544Y676275D01*
X1397000Y671322D02*
X1426591D01*
X1392428Y675894D02*
X1397000Y671322D01*
X1392428Y675894D02*
Y890016D01*
X1417066Y914654D01*
X1412494Y690956D02*
X1422080Y681370D01*
X1412494Y690956D02*
Y747776D01*
X1416050Y751332D01*
X1426210D01*
X1436116Y761238D01*
X1402080Y661370D02*
X1411732Y651718D01*
Y603250D02*
Y651718D01*
Y603250D02*
X1415172Y599810D01*
X1438275D01*
X1463802Y818896D02*
X1477882Y832976D01*
X1599184Y705866D02*
X1658747Y646303D01*
X1685925D01*
X1689608Y649986D01*
Y734568D01*
D43*
X1750950Y777339D02*
D03*
Y768840D02*
D03*
Y760339D02*
D03*
Y751839D02*
D03*
Y743339D02*
D03*
Y734840D02*
D03*
Y726339D02*
D03*
Y717839D02*
D03*
X1737450D02*
D03*
Y726339D02*
D03*
Y734840D02*
D03*
Y743339D02*
D03*
Y751839D02*
D03*
Y760339D02*
D03*
Y768840D02*
D03*
Y777339D02*
D03*
X1423750Y573310D02*
D03*
Y513810D02*
D03*
X1437250Y573310D02*
D03*
Y513810D02*
D03*
X1423750Y564810D02*
D03*
Y556310D02*
D03*
Y547810D02*
D03*
Y539310D02*
D03*
Y530810D02*
D03*
Y522310D02*
D03*
X1437250D02*
D03*
Y530810D02*
D03*
Y539310D02*
D03*
Y547810D02*
D03*
Y556310D02*
D03*
Y564810D02*
D03*
X1520190Y844550D02*
D03*
X1615440Y908050D02*
D03*
X1715770Y650240D02*
D03*
X1713230Y783590D02*
D03*
X1673860Y745490D02*
D03*
D44*
X1747250Y704339D02*
D03*
Y790839D02*
D03*
X1427450Y500310D02*
D03*
Y586810D02*
D03*
D45*
X1781050Y704339D02*
D03*
Y790839D02*
D03*
X1393650Y500310D02*
D03*
Y586810D02*
D03*
D46*
X1422080Y641370D02*
D03*
Y721370D02*
D03*
X1402080D02*
D03*
Y781370D02*
D03*
Y761370D02*
D03*
Y741370D02*
D03*
Y701370D02*
D03*
Y681370D02*
D03*
Y661370D02*
D03*
Y641370D02*
D03*
Y621370D02*
D03*
X1422080Y801370D02*
D03*
Y781370D02*
D03*
Y761370D02*
D03*
Y741370D02*
D03*
Y701370D02*
D03*
Y681370D02*
D03*
Y661370D02*
D03*
Y621370D02*
D03*
D47*
X1402080Y801370D02*
D03*
D52*
X1762125Y818007D02*
X1766570Y813562D01*
X1754972Y725510D02*
X1766570Y737108D01*
X1750203Y725510D02*
X1754972D01*
X1693898Y818007D02*
X1762125D01*
X1648460Y772569D02*
X1693898Y818007D01*
X1648460Y722790D02*
Y772569D01*
X1423750Y539310D02*
X1426210D01*
X1434710Y547810D01*
X1437250D01*
X1423750Y522310D02*
X1437250D01*
X1423750Y564810D02*
X1437250D01*
D56*
X1713840Y845820D02*
D03*
X1704340Y851570D02*
D03*
Y840070D02*
D03*
X1694840Y845820D02*
D03*
X1623542Y519860D02*
D03*
Y530860D02*
D03*
X1634542D02*
D03*
X1623542Y541860D02*
D03*
X1634542D02*
D03*
Y519860D02*
D03*
X1645543Y541860D02*
D03*
Y519860D02*
D03*
Y530860D02*
D03*
X1691760Y569040D02*
D03*
X1706760D02*
D03*
X1699260Y574040D02*
D03*
X1691760Y579040D02*
D03*
X1706760D02*
D03*
D57*
X1727708Y720090D02*
D03*
X1611630Y661100D02*
D03*
X1662938Y857754D02*
D03*
X1519550Y817880D02*
D03*
X1560830Y813220D02*
D03*
X1666076Y813183D02*
D03*
X1648460Y722790D02*
D03*
X1611630Y567690D02*
D03*
X1600200Y510540D02*
D03*
X1695450Y801370D02*
D03*
X1497330Y868680D02*
D03*
X1518920Y558800D02*
D03*
X1598930Y565150D02*
D03*
X1538478Y777240D02*
D03*
X1494440Y821278D02*
D03*
X1677865Y652585D02*
D03*
X1646682Y670052D02*
D03*
X1499870Y840662D02*
D03*
X1447292Y847320D02*
D03*
X1590306Y875313D02*
D03*
X1619250Y762000D02*
D03*
X1541780Y590550D02*
D03*
X1599184Y588264D02*
D03*
X1538602Y810898D02*
D03*
X1595387Y595630D02*
D03*
X1547241Y723900D02*
D03*
X1518158Y576834D02*
D03*
X1538732Y741680D02*
D03*
X1578242Y747377D02*
D03*
X1617726Y574508D02*
D03*
X1507744Y546100D02*
D03*
X1553370D02*
D03*
X1478686Y822985D02*
D03*
X1577606Y873252D02*
D03*
Y902462D02*
D03*
X1636776Y806196D02*
D03*
X1584706Y772160D02*
D03*
X1541526Y641096D02*
D03*
X1463802Y818896D02*
D03*
X1659128Y765048D02*
D03*
D58*
X1766570Y737108D02*
Y813562D01*
D59*
X1538602Y796928D02*
X1543050Y792480D01*
X1538602Y796928D02*
Y810898D01*
M02*
