G04*
G04 #@! TF.GenerationSoftware,Altium Limited,Altium Designer,26.2.0 (7)*
G04*
G04 Layer_Physical_Order=2*
G04 Layer_Color=16440176*
%FSLAX44Y44*%
%MOMM*%
G71*
G04*
G04 #@! TF.SameCoordinates,F9C0969B-AC44-43A8-838D-76D65E8214DD*
G04*
G04*
G04 #@! TF.FilePolarity,Positive*
G04*
G01*
G75*
%ADD43C,0.6500*%
G04:AMPARAMS|DCode=44|XSize=0.9mm|YSize=2.4mm|CornerRadius=0.45mm|HoleSize=0mm|Usage=FLASHONLY|Rotation=270.000|XOffset=0mm|YOffset=0mm|HoleType=Round|Shape=RoundedRectangle|*
%AMROUNDEDRECTD44*
21,1,0.9000,1.5000,0,0,270.0*
21,1,0.0000,2.4000,0,0,270.0*
1,1,0.9000,-0.7500,0.0000*
1,1,0.9000,-0.7500,0.0000*
1,1,0.9000,0.7500,0.0000*
1,1,0.9000,0.7500,0.0000*
%
%ADD44ROUNDEDRECTD44*%
G04:AMPARAMS|DCode=45|XSize=0.9mm|YSize=1.7mm|CornerRadius=0.45mm|HoleSize=0mm|Usage=FLASHONLY|Rotation=270.000|XOffset=0mm|YOffset=0mm|HoleType=Round|Shape=RoundedRectangle|*
%AMROUNDEDRECTD45*
21,1,0.9000,0.8000,0,0,270.0*
21,1,0.0000,1.7000,0,0,270.0*
1,1,0.9000,-0.4000,0.0000*
1,1,0.9000,-0.4000,0.0000*
1,1,0.9000,0.4000,0.0000*
1,1,0.9000,0.4000,0.0000*
%
%ADD45ROUNDEDRECTD45*%
%ADD46C,1.3900*%
%ADD47R,1.3900X1.3900*%
%ADD52C,0.3810*%
%ADD56C,0.5000*%
%ADD57C,0.6000*%
G36*
X1774190Y796145D02*
X1772724Y795165D01*
X1771398Y793181D01*
X1770932Y790839D01*
X1771398Y788498D01*
X1772724Y786514D01*
X1774190Y785534D01*
Y709644D01*
X1772724Y708665D01*
X1771398Y706680D01*
X1770932Y704339D01*
X1771398Y701998D01*
X1772724Y700014D01*
X1774190Y699034D01*
Y482600D01*
X1377744D01*
X1376686Y483664D01*
X1379220Y916940D01*
X1774190D01*
Y796145D01*
D02*
G37*
%LPC*%
G36*
X1616710Y913791D02*
Y909320D01*
X1621181D01*
X1620349Y911330D01*
X1618720Y912959D01*
X1616710Y913791D01*
D02*
G37*
G36*
X1614170D02*
X1612160Y912959D01*
X1610531Y911330D01*
X1609699Y909320D01*
X1614170D01*
Y913791D01*
D02*
G37*
G36*
X1621181Y906780D02*
X1616710D01*
Y902309D01*
X1618720Y903141D01*
X1620349Y904770D01*
X1621181Y906780D01*
D02*
G37*
G36*
X1614170D02*
X1609699D01*
X1610531Y904770D01*
X1612160Y903141D01*
X1614170Y902309D01*
Y906780D01*
D02*
G37*
G36*
X1578501Y906962D02*
X1576711D01*
X1575057Y906277D01*
X1573791Y905011D01*
X1573106Y903357D01*
Y901567D01*
X1573791Y899913D01*
X1575057Y898647D01*
X1576711Y897962D01*
X1578501D01*
X1580155Y898647D01*
X1581421Y899913D01*
X1582106Y901567D01*
Y903357D01*
X1581421Y905011D01*
X1580155Y906277D01*
X1578501Y906962D01*
D02*
G37*
G36*
X1591201Y879813D02*
X1589411D01*
X1587757Y879128D01*
X1586491Y877862D01*
X1585806Y876208D01*
Y874418D01*
X1586491Y872764D01*
X1587757Y871498D01*
X1589411Y870813D01*
X1591201D01*
X1592855Y871498D01*
X1594121Y872764D01*
X1594806Y874418D01*
Y876208D01*
X1594121Y877862D01*
X1592855Y879128D01*
X1591201Y879813D01*
D02*
G37*
G36*
X1578501Y877752D02*
X1576711D01*
X1575057Y877067D01*
X1573791Y875801D01*
X1573106Y874147D01*
Y872357D01*
X1573791Y870703D01*
X1575057Y869437D01*
X1576711Y868752D01*
X1578501D01*
X1580155Y869437D01*
X1581421Y870703D01*
X1582106Y872357D01*
Y874147D01*
X1581421Y875801D01*
X1580155Y877067D01*
X1578501Y877752D01*
D02*
G37*
G36*
X1498225Y873180D02*
X1496435D01*
X1494781Y872495D01*
X1493515Y871229D01*
X1492830Y869575D01*
Y867785D01*
X1493515Y866131D01*
X1494781Y864865D01*
X1496435Y864180D01*
X1498225D01*
X1499879Y864865D01*
X1501145Y866131D01*
X1501830Y867785D01*
Y869575D01*
X1501145Y871229D01*
X1499879Y872495D01*
X1498225Y873180D01*
D02*
G37*
G36*
X1664208Y863224D02*
Y859024D01*
X1668408D01*
X1667635Y860892D01*
X1666076Y862450D01*
X1664208Y863224D01*
D02*
G37*
G36*
X1661668D02*
X1659800Y862450D01*
X1658241Y860892D01*
X1657468Y859024D01*
X1661668D01*
Y863224D01*
D02*
G37*
G36*
X1705610Y856499D02*
Y852840D01*
X1709269D01*
X1708613Y854425D01*
X1707195Y855843D01*
X1705610Y856499D01*
D02*
G37*
G36*
X1703070D02*
X1701485Y855843D01*
X1700067Y854425D01*
X1699411Y852840D01*
X1703070D01*
Y856499D01*
D02*
G37*
G36*
X1668408Y856484D02*
X1664208D01*
Y852283D01*
X1666076Y853057D01*
X1667635Y854616D01*
X1668408Y856484D01*
D02*
G37*
G36*
X1661668D02*
X1657468D01*
X1658241Y854616D01*
X1659800Y853057D01*
X1661668Y852283D01*
Y856484D01*
D02*
G37*
G36*
X1715110Y850749D02*
Y847090D01*
X1718769D01*
X1718113Y848675D01*
X1716695Y850093D01*
X1715110Y850749D01*
D02*
G37*
G36*
X1693570D02*
X1691985Y850093D01*
X1690567Y848675D01*
X1689911Y847090D01*
X1693570D01*
Y850749D01*
D02*
G37*
G36*
X1521460Y850291D02*
Y845820D01*
X1525931D01*
X1525099Y847830D01*
X1523470Y849458D01*
X1521460Y850291D01*
D02*
G37*
G36*
X1518920D02*
X1516910Y849458D01*
X1515282Y847830D01*
X1514449Y845820D01*
X1518920D01*
Y850291D01*
D02*
G37*
G36*
X1448187Y851820D02*
X1446397D01*
X1444743Y851135D01*
X1443477Y849869D01*
X1442792Y848215D01*
Y846425D01*
X1443477Y844771D01*
X1444743Y843505D01*
X1446397Y842820D01*
X1448187D01*
X1449841Y843505D01*
X1451107Y844771D01*
X1451792Y846425D01*
Y848215D01*
X1451107Y849869D01*
X1449841Y851135D01*
X1448187Y851820D01*
D02*
G37*
G36*
X1718769Y844550D02*
X1715110D01*
Y840891D01*
X1716695Y841547D01*
X1718113Y842965D01*
X1718769Y844550D01*
D02*
G37*
G36*
X1696110Y850749D02*
Y845820D01*
Y840891D01*
X1697695Y841547D01*
X1697999Y841852D01*
X1698853Y841340D01*
X1709827D01*
X1710681Y841852D01*
X1710985Y841547D01*
X1712570Y840891D01*
Y845820D01*
Y850749D01*
X1710985Y850093D01*
X1710681Y849788D01*
X1709827Y850300D01*
X1698853D01*
X1697999Y849788D01*
X1697695Y850093D01*
X1696110Y850749D01*
D02*
G37*
G36*
X1693570Y844550D02*
X1689911D01*
X1690567Y842965D01*
X1691985Y841547D01*
X1693570Y840891D01*
Y844550D01*
D02*
G37*
G36*
X1525931Y843280D02*
X1521460D01*
Y838809D01*
X1523470Y839641D01*
X1525099Y841270D01*
X1525931Y843280D01*
D02*
G37*
G36*
X1518920D02*
X1514449D01*
X1515282Y841270D01*
X1516910Y839641D01*
X1518920Y838809D01*
Y843280D01*
D02*
G37*
G36*
X1500765Y845162D02*
X1498975D01*
X1497321Y844477D01*
X1496055Y843211D01*
X1495370Y841557D01*
Y839767D01*
X1496055Y838113D01*
X1497321Y836848D01*
X1498975Y836162D01*
X1500765D01*
X1502419Y836848D01*
X1503685Y838113D01*
X1504370Y839767D01*
Y841557D01*
X1503685Y843211D01*
X1502419Y844477D01*
X1500765Y845162D01*
D02*
G37*
G36*
X1709269Y838800D02*
X1705610D01*
Y835141D01*
X1707195Y835797D01*
X1708613Y837215D01*
X1709269Y838800D01*
D02*
G37*
G36*
X1703070D02*
X1699411D01*
X1700067Y837215D01*
X1701485Y835797D01*
X1703070Y835141D01*
Y838800D01*
D02*
G37*
G36*
X1520820Y823350D02*
Y819150D01*
X1525020D01*
X1524247Y821018D01*
X1522688Y822577D01*
X1520820Y823350D01*
D02*
G37*
G36*
X1518280D02*
X1516412Y822577D01*
X1514853Y821018D01*
X1514079Y819150D01*
X1518280D01*
Y823350D01*
D02*
G37*
G36*
X1479581Y827485D02*
X1477791D01*
X1476137Y826800D01*
X1474872Y825534D01*
X1474186Y823880D01*
Y822090D01*
X1474872Y820436D01*
X1476137Y819171D01*
X1477791Y818485D01*
X1479581D01*
X1481235Y819171D01*
X1482501Y820436D01*
X1483186Y822090D01*
Y823880D01*
X1482501Y825534D01*
X1481235Y826800D01*
X1479581Y827485D01*
D02*
G37*
G36*
X1495335Y825778D02*
X1493545D01*
X1491891Y825093D01*
X1490625Y823827D01*
X1489940Y822173D01*
Y820383D01*
X1490625Y818729D01*
X1491891Y817463D01*
X1493545Y816778D01*
X1495335D01*
X1496989Y817463D01*
X1498255Y818729D01*
X1498940Y820383D01*
Y822173D01*
X1498255Y823827D01*
X1496989Y825093D01*
X1495335Y825778D01*
D02*
G37*
G36*
X1562100Y818690D02*
Y814490D01*
X1566300D01*
X1565527Y816358D01*
X1563968Y817917D01*
X1562100Y818690D01*
D02*
G37*
G36*
X1559560D02*
X1557692Y817917D01*
X1556133Y816358D01*
X1555360Y814490D01*
X1559560D01*
Y818690D01*
D02*
G37*
G36*
X1667346Y818654D02*
Y814453D01*
X1671546D01*
X1670773Y816322D01*
X1669214Y817880D01*
X1667346Y818654D01*
D02*
G37*
G36*
X1664806D02*
X1662938Y817880D01*
X1661380Y816322D01*
X1660606Y814453D01*
X1664806D01*
Y818654D01*
D02*
G37*
G36*
X1464697Y823396D02*
X1462907D01*
X1461253Y822711D01*
X1459987Y821445D01*
X1459302Y819791D01*
Y818001D01*
X1459987Y816347D01*
X1461253Y815081D01*
X1462907Y814396D01*
X1464697D01*
X1466351Y815081D01*
X1467617Y816347D01*
X1468302Y818001D01*
Y819791D01*
X1467617Y821445D01*
X1466351Y822711D01*
X1464697Y823396D01*
D02*
G37*
G36*
X1525020Y816610D02*
X1520820D01*
Y812410D01*
X1522688Y813183D01*
X1524247Y814742D01*
X1525020Y816610D01*
D02*
G37*
G36*
X1518280D02*
X1514079D01*
X1514853Y814742D01*
X1516412Y813183D01*
X1518280Y812410D01*
Y816610D01*
D02*
G37*
G36*
X1566300Y811950D02*
X1562100D01*
Y807750D01*
X1563968Y808523D01*
X1565527Y810082D01*
X1566300Y811950D01*
D02*
G37*
G36*
X1559560D02*
X1555360D01*
X1556133Y810082D01*
X1557692Y808523D01*
X1559560Y807750D01*
Y811950D01*
D02*
G37*
G36*
X1671546Y811913D02*
X1667346D01*
Y807713D01*
X1669214Y808487D01*
X1670773Y810045D01*
X1671546Y811913D01*
D02*
G37*
G36*
X1664806D02*
X1660606D01*
X1661380Y810045D01*
X1662938Y808487D01*
X1664806Y807713D01*
Y811913D01*
D02*
G37*
G36*
X1539497Y815398D02*
X1537707D01*
X1536053Y814713D01*
X1534787Y813447D01*
X1534102Y811793D01*
Y810003D01*
X1534787Y808349D01*
X1536053Y807083D01*
X1537707Y806398D01*
X1539497D01*
X1541151Y807083D01*
X1542417Y808349D01*
X1543102Y810003D01*
Y811793D01*
X1542417Y813447D01*
X1541151Y814713D01*
X1539497Y815398D01*
D02*
G37*
G36*
X1637671Y810696D02*
X1635881D01*
X1634227Y810011D01*
X1632961Y808745D01*
X1632276Y807091D01*
Y805301D01*
X1632961Y803647D01*
X1634227Y802381D01*
X1635881Y801696D01*
X1637671D01*
X1639325Y802381D01*
X1640591Y803647D01*
X1641276Y805301D01*
Y807091D01*
X1640591Y808745D01*
X1639325Y810011D01*
X1637671Y810696D01*
D02*
G37*
G36*
X1696345Y805870D02*
X1694555D01*
X1692901Y805185D01*
X1691635Y803919D01*
X1690950Y802265D01*
Y800475D01*
X1691635Y798821D01*
X1692901Y797555D01*
X1694555Y796870D01*
X1696345D01*
X1697999Y797555D01*
X1699265Y798821D01*
X1699950Y800475D01*
Y802265D01*
X1699265Y803919D01*
X1697999Y805185D01*
X1696345Y805870D01*
D02*
G37*
G36*
X1423192Y809820D02*
X1420968D01*
X1418818Y809244D01*
X1416891Y808132D01*
X1415318Y806558D01*
X1414206Y804632D01*
X1413630Y802483D01*
Y800257D01*
X1414206Y798108D01*
X1415318Y796182D01*
X1416891Y794608D01*
X1418818Y793496D01*
X1420968Y792920D01*
X1423192D01*
X1425341Y793496D01*
X1427268Y794608D01*
X1428842Y796182D01*
X1429954Y798108D01*
X1430530Y800257D01*
Y802483D01*
X1429954Y804632D01*
X1428842Y806558D01*
X1427268Y808132D01*
X1425341Y809244D01*
X1423192Y809820D01*
D02*
G37*
G36*
X1410530D02*
X1393630D01*
Y792920D01*
X1410530D01*
Y809820D01*
D02*
G37*
G36*
X1714500Y789331D02*
Y784860D01*
X1718971D01*
X1718138Y786870D01*
X1716510Y788499D01*
X1714500Y789331D01*
D02*
G37*
G36*
X1711960D02*
X1709950Y788499D01*
X1708322Y786870D01*
X1707489Y784860D01*
X1711960D01*
Y789331D01*
D02*
G37*
G36*
X1754750Y796957D02*
X1739750D01*
X1737409Y796491D01*
X1735424Y795165D01*
X1734098Y793181D01*
X1733632Y790839D01*
X1734098Y788498D01*
X1735424Y786514D01*
X1737409Y785188D01*
X1739750Y784722D01*
X1754750D01*
X1757091Y785188D01*
X1759075Y786514D01*
X1760402Y788498D01*
X1760867Y790839D01*
X1760402Y793181D01*
X1759075Y795165D01*
X1757091Y796491D01*
X1754750Y796957D01*
D02*
G37*
G36*
X1718971Y782320D02*
X1714500D01*
Y777849D01*
X1716510Y778681D01*
X1718138Y780310D01*
X1718971Y782320D01*
D02*
G37*
G36*
X1711960D02*
X1707489D01*
X1708322Y780310D01*
X1709950Y778681D01*
X1711960Y777849D01*
Y782320D01*
D02*
G37*
G36*
X1423192Y789820D02*
X1420968D01*
X1418818Y789244D01*
X1416891Y788132D01*
X1415318Y786559D01*
X1414206Y784632D01*
X1413630Y782483D01*
Y780258D01*
X1414206Y778109D01*
X1415318Y776182D01*
X1416891Y774608D01*
X1418818Y773496D01*
X1420968Y772920D01*
X1423192D01*
X1425341Y773496D01*
X1427268Y774608D01*
X1428842Y776182D01*
X1429954Y778109D01*
X1430530Y780258D01*
Y782483D01*
X1429954Y784632D01*
X1428842Y786559D01*
X1427268Y788132D01*
X1425341Y789244D01*
X1423192Y789820D01*
D02*
G37*
G36*
X1403192D02*
X1400968D01*
X1398818Y789244D01*
X1396892Y788132D01*
X1395318Y786559D01*
X1394206Y784632D01*
X1393630Y782483D01*
Y780258D01*
X1394206Y778109D01*
X1395318Y776182D01*
X1396892Y774608D01*
X1398818Y773496D01*
X1400968Y772920D01*
X1403192D01*
X1405342Y773496D01*
X1407268Y774608D01*
X1408842Y776182D01*
X1409954Y778109D01*
X1410530Y780258D01*
Y782483D01*
X1409954Y784632D01*
X1408842Y786559D01*
X1407268Y788132D01*
X1405342Y789244D01*
X1403192Y789820D01*
D02*
G37*
G36*
X1539373Y781740D02*
X1537583D01*
X1535929Y781055D01*
X1534663Y779789D01*
X1533978Y778135D01*
Y776345D01*
X1534663Y774691D01*
X1535929Y773425D01*
X1537583Y772740D01*
X1539373D01*
X1541027Y773425D01*
X1542293Y774691D01*
X1542978Y776345D01*
Y778135D01*
X1542293Y779789D01*
X1541027Y781055D01*
X1539373Y781740D01*
D02*
G37*
G36*
X1585601Y776660D02*
X1583811D01*
X1582157Y775975D01*
X1580891Y774709D01*
X1580206Y773055D01*
Y771265D01*
X1580891Y769611D01*
X1582157Y768345D01*
X1583811Y767660D01*
X1585601D01*
X1587255Y768345D01*
X1588521Y769611D01*
X1589206Y771265D01*
Y773055D01*
X1588521Y774709D01*
X1587255Y775975D01*
X1585601Y776660D01*
D02*
G37*
G36*
X1660023Y769548D02*
X1658233D01*
X1656579Y768863D01*
X1655313Y767597D01*
X1654628Y765943D01*
Y764153D01*
X1655313Y762499D01*
X1656579Y761233D01*
X1658233Y760548D01*
X1660023D01*
X1661677Y761233D01*
X1662943Y762499D01*
X1663628Y764153D01*
Y765943D01*
X1662943Y767597D01*
X1661677Y768863D01*
X1660023Y769548D01*
D02*
G37*
G36*
X1620145Y766500D02*
X1618355D01*
X1616701Y765815D01*
X1615435Y764549D01*
X1614750Y762895D01*
Y761105D01*
X1615435Y759451D01*
X1616701Y758185D01*
X1618355Y757500D01*
X1620145D01*
X1621799Y758185D01*
X1623065Y759451D01*
X1623750Y761105D01*
Y762895D01*
X1623065Y764549D01*
X1621799Y765815D01*
X1620145Y766500D01*
D02*
G37*
G36*
X1423192Y769820D02*
X1420968D01*
X1418818Y769244D01*
X1416891Y768132D01*
X1415318Y766559D01*
X1414206Y764632D01*
X1413630Y762483D01*
Y760258D01*
X1414206Y758109D01*
X1415318Y756182D01*
X1416891Y754608D01*
X1418818Y753496D01*
X1420968Y752920D01*
X1423192D01*
X1425341Y753496D01*
X1427268Y754608D01*
X1428842Y756182D01*
X1429954Y758109D01*
X1430530Y760258D01*
Y762483D01*
X1429954Y764632D01*
X1428842Y766559D01*
X1427268Y768132D01*
X1425341Y769244D01*
X1423192Y769820D01*
D02*
G37*
G36*
X1403192D02*
X1400968D01*
X1398818Y769244D01*
X1396892Y768132D01*
X1395318Y766559D01*
X1394206Y764632D01*
X1393630Y762483D01*
Y760258D01*
X1394206Y758109D01*
X1395318Y756182D01*
X1396892Y754608D01*
X1398818Y753496D01*
X1400968Y752920D01*
X1403192D01*
X1405342Y753496D01*
X1407268Y754608D01*
X1408842Y756182D01*
X1409954Y758109D01*
X1410530Y760258D01*
Y762483D01*
X1409954Y764632D01*
X1408842Y766559D01*
X1407268Y768132D01*
X1405342Y769244D01*
X1403192Y769820D01*
D02*
G37*
G36*
X1675130Y751231D02*
Y746760D01*
X1679601D01*
X1678768Y748770D01*
X1677140Y750398D01*
X1675130Y751231D01*
D02*
G37*
G36*
X1672590D02*
X1670580Y750398D01*
X1668952Y748770D01*
X1668119Y746760D01*
X1672590D01*
Y751231D01*
D02*
G37*
G36*
X1579137Y751877D02*
X1577347D01*
X1575693Y751192D01*
X1574427Y749926D01*
X1573742Y748272D01*
Y746482D01*
X1574427Y744828D01*
X1575693Y743562D01*
X1577347Y742877D01*
X1579137D01*
X1580791Y743562D01*
X1582057Y744828D01*
X1582742Y746482D01*
Y748272D01*
X1582057Y749926D01*
X1580791Y751192D01*
X1579137Y751877D01*
D02*
G37*
G36*
X1679601Y744220D02*
X1675130D01*
Y739749D01*
X1677140Y740582D01*
X1678768Y742210D01*
X1679601Y744220D01*
D02*
G37*
G36*
X1672590D02*
X1668119D01*
X1668952Y742210D01*
X1670580Y740582D01*
X1672590Y739749D01*
Y744220D01*
D02*
G37*
G36*
X1539627Y746180D02*
X1537837D01*
X1536183Y745495D01*
X1534917Y744229D01*
X1534232Y742575D01*
Y740785D01*
X1534917Y739131D01*
X1536183Y737865D01*
X1537837Y737180D01*
X1539627D01*
X1541281Y737865D01*
X1542547Y739131D01*
X1543232Y740785D01*
Y742575D01*
X1542547Y744229D01*
X1541281Y745495D01*
X1539627Y746180D01*
D02*
G37*
G36*
X1423192Y749820D02*
X1420968D01*
X1418818Y749244D01*
X1416891Y748132D01*
X1415318Y746559D01*
X1414206Y744632D01*
X1413630Y742483D01*
Y740258D01*
X1414206Y738109D01*
X1415318Y736182D01*
X1416891Y734608D01*
X1418818Y733496D01*
X1420968Y732920D01*
X1423192D01*
X1425341Y733496D01*
X1427268Y734608D01*
X1428842Y736182D01*
X1429954Y738109D01*
X1430530Y740258D01*
Y742483D01*
X1429954Y744632D01*
X1428842Y746559D01*
X1427268Y748132D01*
X1425341Y749244D01*
X1423192Y749820D01*
D02*
G37*
G36*
X1403192D02*
X1400968D01*
X1398818Y749244D01*
X1396892Y748132D01*
X1395318Y746559D01*
X1394206Y744632D01*
X1393630Y742483D01*
Y740258D01*
X1394206Y738109D01*
X1395318Y736182D01*
X1396892Y734608D01*
X1398818Y733496D01*
X1400968Y732920D01*
X1403192D01*
X1405342Y733496D01*
X1407268Y734608D01*
X1408842Y736182D01*
X1409954Y738109D01*
X1410530Y740258D01*
Y742483D01*
X1409954Y744632D01*
X1408842Y746559D01*
X1407268Y748132D01*
X1405342Y749244D01*
X1403192Y749820D01*
D02*
G37*
G36*
X1423350Y730855D02*
Y722640D01*
X1431564D01*
X1430923Y725033D01*
X1429674Y727197D01*
X1427907Y728964D01*
X1425743Y730213D01*
X1423350Y730855D01*
D02*
G37*
G36*
X1400810D02*
X1398417Y730213D01*
X1396253Y728964D01*
X1394486Y727197D01*
X1393237Y725033D01*
X1392596Y722640D01*
X1400810D01*
Y730855D01*
D02*
G37*
G36*
X1738395Y782089D02*
X1736505D01*
X1734759Y781366D01*
X1733423Y780030D01*
X1732700Y778284D01*
Y776395D01*
X1733423Y774649D01*
X1734002Y774069D01*
X1734619Y773090D01*
X1734002Y772110D01*
X1733423Y771530D01*
X1732700Y769784D01*
Y767895D01*
X1733423Y766149D01*
X1734003Y765569D01*
X1734619Y764589D01*
X1734003Y763609D01*
X1733423Y763030D01*
X1732700Y761284D01*
Y759394D01*
X1733423Y757648D01*
X1734002Y757069D01*
X1734619Y756089D01*
X1734002Y755109D01*
X1733423Y754530D01*
X1732700Y752784D01*
Y750894D01*
X1733423Y749149D01*
X1734002Y748569D01*
X1734619Y747589D01*
X1734002Y746609D01*
X1733423Y746030D01*
X1732700Y744284D01*
Y742395D01*
X1733423Y740649D01*
X1734002Y740070D01*
X1734619Y739090D01*
X1734002Y738110D01*
X1733423Y737530D01*
X1732700Y735785D01*
Y733895D01*
X1733423Y732149D01*
X1734003Y731569D01*
X1734619Y730589D01*
X1734003Y729610D01*
X1733423Y729030D01*
X1732700Y727284D01*
Y725394D01*
X1733423Y723649D01*
X1734002Y723069D01*
X1734619Y722089D01*
X1734002Y721109D01*
X1733708Y720815D01*
X1732828Y720915D01*
X1732466Y721016D01*
X1732123Y721190D01*
X1731523Y722639D01*
X1730257Y723905D01*
X1728603Y724590D01*
X1726813D01*
X1725159Y723905D01*
X1723893Y722639D01*
X1723208Y720985D01*
Y719195D01*
X1723893Y717541D01*
X1725159Y716275D01*
X1726813Y715590D01*
X1728603D01*
X1730257Y716275D01*
X1731200Y717218D01*
X1732298Y716981D01*
X1732640Y716859D01*
X1732740Y716798D01*
X1733423Y715149D01*
X1734759Y713812D01*
X1736505Y713089D01*
X1738395D01*
X1740141Y713812D01*
X1741477Y715149D01*
X1742200Y716895D01*
Y718784D01*
X1741477Y720530D01*
X1740898Y721109D01*
X1740281Y722089D01*
X1740898Y723069D01*
X1741477Y723649D01*
X1742200Y725394D01*
Y727284D01*
X1741477Y729030D01*
X1740897Y729610D01*
X1740281Y730589D01*
X1740897Y731569D01*
X1741477Y732149D01*
X1742200Y733895D01*
Y735785D01*
X1741477Y737530D01*
X1740898Y738110D01*
X1740281Y739090D01*
X1740898Y740070D01*
X1741477Y740649D01*
X1742200Y742395D01*
Y744284D01*
X1741477Y746030D01*
X1740898Y746609D01*
X1740281Y747589D01*
X1740898Y748569D01*
X1741477Y749149D01*
X1742200Y750894D01*
Y752784D01*
X1741477Y754530D01*
X1740898Y755109D01*
X1740281Y756089D01*
X1740898Y757069D01*
X1741477Y757648D01*
X1742200Y759394D01*
Y761284D01*
X1741477Y763030D01*
X1740897Y763609D01*
X1740281Y764589D01*
X1740897Y765569D01*
X1741477Y766149D01*
X1742200Y767895D01*
Y769784D01*
X1741477Y771530D01*
X1740898Y772110D01*
X1740281Y773090D01*
X1740898Y774069D01*
X1741477Y774649D01*
X1742200Y776395D01*
Y778284D01*
X1741477Y780030D01*
X1740141Y781366D01*
X1738395Y782089D01*
D02*
G37*
G36*
X1548136Y728400D02*
X1546346D01*
X1544692Y727715D01*
X1543426Y726449D01*
X1542741Y724795D01*
Y723005D01*
X1543426Y721351D01*
X1544692Y720085D01*
X1546346Y719400D01*
X1548136D01*
X1549790Y720085D01*
X1551056Y721351D01*
X1551741Y723005D01*
Y724795D01*
X1551056Y726449D01*
X1549790Y727715D01*
X1548136Y728400D01*
D02*
G37*
G36*
X1649355Y727290D02*
X1647565D01*
X1645911Y726605D01*
X1644645Y725339D01*
X1643960Y723685D01*
Y721895D01*
X1644645Y720241D01*
X1645911Y718975D01*
X1647565Y718290D01*
X1649355D01*
X1651009Y718975D01*
X1652275Y720241D01*
X1652960Y721895D01*
Y723685D01*
X1652275Y725339D01*
X1651009Y726605D01*
X1649355Y727290D01*
D02*
G37*
G36*
X1751895Y782089D02*
X1750005D01*
X1748259Y781366D01*
X1746923Y780030D01*
X1746200Y778284D01*
Y776395D01*
X1746923Y774649D01*
X1747502Y774069D01*
X1748119Y773090D01*
X1747502Y772110D01*
X1746923Y771530D01*
X1746200Y769784D01*
Y767895D01*
X1746923Y766149D01*
X1747503Y765569D01*
X1748119Y764589D01*
X1747503Y763609D01*
X1746923Y763030D01*
X1746200Y761284D01*
Y759394D01*
X1746923Y757648D01*
X1747502Y757069D01*
X1748119Y756089D01*
X1747502Y755109D01*
X1746923Y754530D01*
X1746200Y752784D01*
Y750894D01*
X1746923Y749149D01*
X1747502Y748569D01*
X1748119Y747589D01*
X1747502Y746609D01*
X1746923Y746030D01*
X1746200Y744284D01*
Y742395D01*
X1746923Y740649D01*
X1747502Y740070D01*
X1748119Y739090D01*
X1747502Y738110D01*
X1746923Y737530D01*
X1746200Y735785D01*
Y733895D01*
X1746923Y732149D01*
X1747503Y731569D01*
X1748119Y730589D01*
X1747503Y729610D01*
X1746923Y729030D01*
X1746200Y727284D01*
Y725394D01*
X1746923Y723649D01*
X1747502Y723069D01*
X1748119Y722089D01*
X1747502Y721109D01*
X1746923Y720530D01*
X1746200Y718784D01*
Y716895D01*
X1746923Y715149D01*
X1748259Y713812D01*
X1750005Y713089D01*
X1751895D01*
X1753641Y713812D01*
X1754977Y715149D01*
X1755700Y716895D01*
Y718784D01*
X1754977Y720530D01*
X1754398Y721109D01*
X1753781Y722089D01*
X1754398Y723069D01*
X1754977Y723649D01*
X1755700Y725394D01*
Y727284D01*
X1754977Y729030D01*
X1754397Y729610D01*
X1753781Y730589D01*
X1754397Y731569D01*
X1754977Y732149D01*
X1755700Y733895D01*
Y735785D01*
X1754977Y737530D01*
X1754398Y738110D01*
X1753781Y739090D01*
X1754398Y740070D01*
X1754977Y740649D01*
X1755700Y742395D01*
Y744284D01*
X1754977Y746030D01*
X1754398Y746609D01*
X1753781Y747589D01*
X1754398Y748569D01*
X1754977Y749149D01*
X1755700Y750894D01*
Y752784D01*
X1754977Y754530D01*
X1754398Y755109D01*
X1753781Y756089D01*
X1754398Y757069D01*
X1754977Y757648D01*
X1755700Y759394D01*
Y761284D01*
X1754977Y763030D01*
X1754397Y763609D01*
X1753781Y764589D01*
X1754397Y765569D01*
X1754977Y766149D01*
X1755700Y767895D01*
Y769784D01*
X1754977Y771530D01*
X1754398Y772110D01*
X1753781Y773090D01*
X1754398Y774069D01*
X1754977Y774649D01*
X1755700Y776395D01*
Y778284D01*
X1754977Y780030D01*
X1753641Y781366D01*
X1751895Y782089D01*
D02*
G37*
G36*
X1431564Y720100D02*
X1423350D01*
Y711886D01*
X1425743Y712527D01*
X1427907Y713776D01*
X1429674Y715543D01*
X1430923Y717707D01*
X1431564Y720100D01*
D02*
G37*
G36*
X1403350Y730855D02*
Y721370D01*
Y711886D01*
X1405743Y712527D01*
X1407907Y713776D01*
X1409674Y715543D01*
X1410923Y717707D01*
X1411304Y719126D01*
X1412856D01*
X1413237Y717707D01*
X1414486Y715543D01*
X1416253Y713776D01*
X1418417Y712527D01*
X1420810Y711886D01*
Y721370D01*
Y730855D01*
X1418417Y730213D01*
X1416253Y728964D01*
X1414486Y727197D01*
X1413237Y725033D01*
X1412856Y723614D01*
X1411304D01*
X1410923Y725033D01*
X1409674Y727197D01*
X1407907Y728964D01*
X1405743Y730213D01*
X1403350Y730855D01*
D02*
G37*
G36*
X1400810Y720100D02*
X1392596D01*
X1393237Y717707D01*
X1394486Y715543D01*
X1396253Y713776D01*
X1398417Y712527D01*
X1400810Y711886D01*
Y720100D01*
D02*
G37*
G36*
X1754750Y710457D02*
X1739750D01*
X1737409Y709991D01*
X1735424Y708665D01*
X1734098Y706680D01*
X1733632Y704339D01*
X1734098Y701998D01*
X1735424Y700014D01*
X1737409Y698687D01*
X1739750Y698222D01*
X1754750D01*
X1757091Y698687D01*
X1759075Y700014D01*
X1760402Y701998D01*
X1760867Y704339D01*
X1760402Y706680D01*
X1759075Y708665D01*
X1757091Y709991D01*
X1754750Y710457D01*
D02*
G37*
G36*
X1423192Y709820D02*
X1420968D01*
X1418818Y709244D01*
X1416891Y708132D01*
X1415318Y706559D01*
X1414206Y704632D01*
X1413630Y702483D01*
Y700258D01*
X1414206Y698109D01*
X1415318Y696182D01*
X1416891Y694609D01*
X1418818Y693496D01*
X1420968Y692920D01*
X1423192D01*
X1425341Y693496D01*
X1427268Y694609D01*
X1428842Y696182D01*
X1429954Y698109D01*
X1430530Y700258D01*
Y702483D01*
X1429954Y704632D01*
X1428842Y706559D01*
X1427268Y708132D01*
X1425341Y709244D01*
X1423192Y709820D01*
D02*
G37*
G36*
X1403192D02*
X1400968D01*
X1398818Y709244D01*
X1396892Y708132D01*
X1395318Y706559D01*
X1394206Y704632D01*
X1393630Y702483D01*
Y700258D01*
X1394206Y698109D01*
X1395318Y696182D01*
X1396892Y694609D01*
X1398818Y693496D01*
X1400968Y692920D01*
X1403192D01*
X1405342Y693496D01*
X1407268Y694609D01*
X1408842Y696182D01*
X1409954Y698109D01*
X1410530Y700258D01*
Y702483D01*
X1409954Y704632D01*
X1408842Y706559D01*
X1407268Y708132D01*
X1405342Y709244D01*
X1403192Y709820D01*
D02*
G37*
G36*
X1423192Y689820D02*
X1420968D01*
X1418818Y689244D01*
X1416891Y688132D01*
X1415318Y686559D01*
X1414206Y684632D01*
X1413630Y682483D01*
Y680258D01*
X1414206Y678109D01*
X1415318Y676182D01*
X1416891Y674609D01*
X1418818Y673496D01*
X1420968Y672920D01*
X1423192D01*
X1425341Y673496D01*
X1427268Y674609D01*
X1428842Y676182D01*
X1429954Y678109D01*
X1430530Y680258D01*
Y682483D01*
X1429954Y684632D01*
X1428842Y686559D01*
X1427268Y688132D01*
X1425341Y689244D01*
X1423192Y689820D01*
D02*
G37*
G36*
X1403192D02*
X1400968D01*
X1398818Y689244D01*
X1396892Y688132D01*
X1395318Y686559D01*
X1394206Y684632D01*
X1393630Y682483D01*
Y680258D01*
X1394206Y678109D01*
X1395318Y676182D01*
X1396892Y674609D01*
X1398818Y673496D01*
X1400968Y672920D01*
X1403192D01*
X1405342Y673496D01*
X1407268Y674609D01*
X1408842Y676182D01*
X1409954Y678109D01*
X1410530Y680258D01*
Y682483D01*
X1409954Y684632D01*
X1408842Y686559D01*
X1407268Y688132D01*
X1405342Y689244D01*
X1403192Y689820D01*
D02*
G37*
G36*
X1647577Y674552D02*
X1645787D01*
X1644133Y673867D01*
X1642867Y672601D01*
X1642182Y670947D01*
Y669157D01*
X1642867Y667503D01*
X1644133Y666237D01*
X1645787Y665552D01*
X1647577D01*
X1649231Y666237D01*
X1650497Y667503D01*
X1651182Y669157D01*
Y670947D01*
X1650497Y672601D01*
X1649231Y673867D01*
X1647577Y674552D01*
D02*
G37*
G36*
X1612900Y666570D02*
Y662370D01*
X1617100D01*
X1616327Y664238D01*
X1614768Y665797D01*
X1612900Y666570D01*
D02*
G37*
G36*
X1610360D02*
X1608492Y665797D01*
X1606933Y664238D01*
X1606160Y662370D01*
X1610360D01*
Y666570D01*
D02*
G37*
G36*
X1617100Y659830D02*
X1612900D01*
Y655630D01*
X1614768Y656403D01*
X1616327Y657962D01*
X1617100Y659830D01*
D02*
G37*
G36*
X1610360D02*
X1606160D01*
X1606933Y657962D01*
X1608492Y656403D01*
X1610360Y655630D01*
Y659830D01*
D02*
G37*
G36*
X1423192Y669820D02*
X1420968D01*
X1418818Y669244D01*
X1416891Y668132D01*
X1415318Y666559D01*
X1414206Y664632D01*
X1413630Y662483D01*
Y660258D01*
X1414206Y658109D01*
X1415318Y656182D01*
X1416891Y654609D01*
X1418818Y653496D01*
X1420968Y652920D01*
X1423192D01*
X1425341Y653496D01*
X1427268Y654609D01*
X1428842Y656182D01*
X1429954Y658109D01*
X1430530Y660258D01*
Y662483D01*
X1429954Y664632D01*
X1428842Y666559D01*
X1427268Y668132D01*
X1425341Y669244D01*
X1423192Y669820D01*
D02*
G37*
G36*
X1403192D02*
X1400968D01*
X1398818Y669244D01*
X1396892Y668132D01*
X1395318Y666559D01*
X1394206Y664632D01*
X1393630Y662483D01*
Y660258D01*
X1394206Y658109D01*
X1395318Y656182D01*
X1396892Y654609D01*
X1398818Y653496D01*
X1400968Y652920D01*
X1403192D01*
X1405342Y653496D01*
X1407268Y654609D01*
X1408842Y656182D01*
X1409954Y658109D01*
X1410530Y660258D01*
Y662483D01*
X1409954Y664632D01*
X1408842Y666559D01*
X1407268Y668132D01*
X1405342Y669244D01*
X1403192Y669820D01*
D02*
G37*
G36*
X1717040Y655981D02*
Y651510D01*
X1721511D01*
X1720679Y653520D01*
X1719050Y655148D01*
X1717040Y655981D01*
D02*
G37*
G36*
X1714500D02*
X1712490Y655148D01*
X1710862Y653520D01*
X1710029Y651510D01*
X1714500D01*
Y655981D01*
D02*
G37*
G36*
X1678760Y657085D02*
X1676969D01*
X1675316Y656400D01*
X1674050Y655135D01*
X1673365Y653481D01*
Y651690D01*
X1674050Y650036D01*
X1675316Y648771D01*
X1676969Y648085D01*
X1678760D01*
X1680414Y648771D01*
X1681680Y650036D01*
X1682365Y651690D01*
Y653481D01*
X1681680Y655135D01*
X1680414Y656400D01*
X1678760Y657085D01*
D02*
G37*
G36*
X1721511Y648970D02*
X1717040D01*
Y644499D01*
X1719050Y645331D01*
X1720679Y646960D01*
X1721511Y648970D01*
D02*
G37*
G36*
X1714500D02*
X1710029D01*
X1710862Y646960D01*
X1712490Y645331D01*
X1714500Y644499D01*
Y648970D01*
D02*
G37*
G36*
X1423350Y650855D02*
Y642640D01*
X1431564D01*
X1430923Y645033D01*
X1429674Y647197D01*
X1427907Y648964D01*
X1425743Y650214D01*
X1423350Y650855D01*
D02*
G37*
G36*
X1420810D02*
X1418417Y650214D01*
X1416253Y648964D01*
X1414486Y647197D01*
X1413237Y645033D01*
X1412596Y642640D01*
X1420810D01*
Y650855D01*
D02*
G37*
G36*
X1542421Y645596D02*
X1540631D01*
X1538977Y644911D01*
X1537711Y643645D01*
X1537026Y641991D01*
Y640201D01*
X1537711Y638547D01*
X1538977Y637281D01*
X1540631Y636596D01*
X1542421D01*
X1544075Y637281D01*
X1545341Y638547D01*
X1546026Y640201D01*
Y641991D01*
X1545341Y643645D01*
X1544075Y644911D01*
X1542421Y645596D01*
D02*
G37*
G36*
X1403192Y649820D02*
X1400968D01*
X1398818Y649245D01*
X1396892Y648132D01*
X1395318Y646559D01*
X1394206Y644632D01*
X1393630Y642483D01*
Y640258D01*
X1394206Y638109D01*
X1395318Y636182D01*
X1396892Y634609D01*
X1398818Y633496D01*
X1400968Y632920D01*
X1403192D01*
X1405342Y633496D01*
X1407268Y634609D01*
X1408842Y636182D01*
X1409954Y638109D01*
X1410530Y640258D01*
Y642483D01*
X1409954Y644632D01*
X1408842Y646559D01*
X1407268Y648132D01*
X1405342Y649245D01*
X1403192Y649820D01*
D02*
G37*
G36*
X1431564Y640100D02*
X1423350D01*
Y631886D01*
X1425743Y632527D01*
X1427907Y633776D01*
X1429674Y635543D01*
X1430923Y637707D01*
X1431564Y640100D01*
D02*
G37*
G36*
X1420810D02*
X1412596D01*
X1413237Y637707D01*
X1414486Y635543D01*
X1416253Y633776D01*
X1418417Y632527D01*
X1420810Y631886D01*
Y640100D01*
D02*
G37*
G36*
X1507657Y798153D02*
X1444657D01*
X1443508Y797678D01*
X1443033Y796530D01*
Y616530D01*
X1443508Y615382D01*
X1444657Y614907D01*
X1507657D01*
X1508805Y615382D01*
X1509280Y616530D01*
Y796530D01*
X1508805Y797678D01*
X1507657Y798153D01*
D02*
G37*
G36*
X1423192Y629820D02*
X1420968D01*
X1418818Y629244D01*
X1416891Y628132D01*
X1415318Y626559D01*
X1414206Y624632D01*
X1413630Y622483D01*
Y620258D01*
X1414206Y618109D01*
X1415318Y616182D01*
X1416891Y614609D01*
X1418818Y613496D01*
X1420968Y612920D01*
X1423192D01*
X1425341Y613496D01*
X1427268Y614609D01*
X1428842Y616182D01*
X1429954Y618109D01*
X1430530Y620258D01*
Y622483D01*
X1429954Y624632D01*
X1428842Y626559D01*
X1427268Y628132D01*
X1425341Y629244D01*
X1423192Y629820D01*
D02*
G37*
G36*
X1403192D02*
X1400968D01*
X1398818Y629244D01*
X1396892Y628132D01*
X1395318Y626559D01*
X1394206Y624632D01*
X1393630Y622483D01*
Y620258D01*
X1394206Y618109D01*
X1395318Y616182D01*
X1396892Y614609D01*
X1398818Y613496D01*
X1400968Y612920D01*
X1403192D01*
X1405342Y613496D01*
X1407268Y614609D01*
X1408842Y616182D01*
X1409954Y618109D01*
X1410530Y620258D01*
Y622483D01*
X1409954Y624632D01*
X1408842Y626559D01*
X1407268Y628132D01*
X1405342Y629244D01*
X1403192Y629820D01*
D02*
G37*
G36*
X1434950Y593911D02*
X1428720D01*
Y588080D01*
X1441884D01*
X1441809Y588648D01*
X1441100Y590360D01*
X1439971Y591831D01*
X1438500Y592960D01*
X1436788Y593669D01*
X1434950Y593911D01*
D02*
G37*
G36*
X1397650D02*
X1394920D01*
Y588080D01*
X1404584D01*
X1404509Y588648D01*
X1403800Y590360D01*
X1402671Y591831D01*
X1401201Y592960D01*
X1399488Y593669D01*
X1397650Y593911D01*
D02*
G37*
G36*
X1392380D02*
X1389650D01*
X1387812Y593669D01*
X1386100Y592960D01*
X1384629Y591831D01*
X1383501Y590360D01*
X1382791Y588648D01*
X1382717Y588080D01*
X1392380D01*
Y593911D01*
D02*
G37*
G36*
X1426180D02*
X1419950D01*
X1418112Y593669D01*
X1416400Y592960D01*
X1414929Y591831D01*
X1413801Y590360D01*
X1413091Y588648D01*
X1413017Y588080D01*
X1426180D01*
Y593911D01*
D02*
G37*
G36*
X1542675Y595050D02*
X1540885D01*
X1539231Y594365D01*
X1537965Y593099D01*
X1537280Y591445D01*
Y589655D01*
X1537965Y588001D01*
X1539231Y586735D01*
X1540885Y586050D01*
X1542675D01*
X1544329Y586735D01*
X1545595Y588001D01*
X1546280Y589655D01*
Y591445D01*
X1545595Y593099D01*
X1544329Y594365D01*
X1542675Y595050D01*
D02*
G37*
G36*
X1596282Y600130D02*
X1594492D01*
X1592838Y599445D01*
X1591572Y598179D01*
X1590887Y596525D01*
Y594735D01*
X1591572Y593081D01*
X1592838Y591815D01*
X1594492Y591130D01*
X1594879Y589630D01*
X1594684Y589159D01*
Y587369D01*
X1595369Y585715D01*
X1596635Y584449D01*
X1598289Y583764D01*
X1600079D01*
X1601733Y584449D01*
X1602999Y585715D01*
X1603684Y587369D01*
Y589159D01*
X1602999Y590813D01*
X1601733Y592079D01*
X1600079Y592764D01*
X1599692Y594264D01*
X1599887Y594735D01*
Y596525D01*
X1599202Y598179D01*
X1597936Y599445D01*
X1596282Y600130D01*
D02*
G37*
G36*
X1708030Y583969D02*
Y580310D01*
X1711689D01*
X1711033Y581895D01*
X1709615Y583313D01*
X1708030Y583969D01*
D02*
G37*
G36*
X1690490D02*
X1688905Y583313D01*
X1687487Y581895D01*
X1686831Y580310D01*
X1690490D01*
Y583969D01*
D02*
G37*
G36*
X1404584Y585540D02*
X1394920D01*
Y579709D01*
X1397650D01*
X1399488Y579951D01*
X1401201Y580661D01*
X1402671Y581789D01*
X1403800Y583260D01*
X1404509Y584972D01*
X1404584Y585540D01*
D02*
G37*
G36*
X1392380D02*
X1382717D01*
X1382791Y584972D01*
X1383501Y583260D01*
X1384629Y581789D01*
X1386100Y580661D01*
X1387812Y579951D01*
X1389650Y579709D01*
X1392380D01*
Y585540D01*
D02*
G37*
G36*
X1519053Y581334D02*
X1517263D01*
X1515609Y580649D01*
X1514343Y579383D01*
X1513658Y577729D01*
Y575939D01*
X1514343Y574285D01*
X1515609Y573019D01*
X1517263Y572334D01*
X1519053D01*
X1520707Y573019D01*
X1521973Y574285D01*
X1522658Y575939D01*
Y577729D01*
X1521973Y579383D01*
X1520707Y580649D01*
X1519053Y581334D01*
D02*
G37*
G36*
X1711689Y567770D02*
X1708030D01*
Y564111D01*
X1709615Y564768D01*
X1711033Y566185D01*
X1711689Y567770D01*
D02*
G37*
G36*
X1705490Y583969D02*
X1703905Y583313D01*
X1702487Y581895D01*
X1701740Y580092D01*
X1701541Y579707D01*
X1700530Y579031D01*
Y574040D01*
Y569049D01*
X1701541Y568373D01*
X1701741Y567989D01*
X1702487Y566185D01*
X1703905Y564768D01*
X1705490Y564111D01*
Y569040D01*
X1706760D01*
Y570310D01*
X1711689D01*
X1711033Y571895D01*
X1709735Y573193D01*
X1709670Y574040D01*
X1709735Y574887D01*
X1711033Y576185D01*
X1711689Y577770D01*
X1706760D01*
Y579040D01*
X1705490D01*
Y583969D01*
D02*
G37*
G36*
X1693030D02*
Y579040D01*
X1691760D01*
Y577770D01*
X1686831D01*
X1687487Y576185D01*
X1688785Y574887D01*
X1688850Y574040D01*
X1688785Y573193D01*
X1687487Y571895D01*
X1686831Y570310D01*
X1691760D01*
Y569040D01*
X1693030D01*
Y564111D01*
X1694615Y564768D01*
X1696033Y566185D01*
X1696779Y567989D01*
X1696979Y568373D01*
X1697990Y569049D01*
Y574040D01*
Y579031D01*
X1696979Y579707D01*
X1696780Y580092D01*
X1696033Y581895D01*
X1694615Y583313D01*
X1693030Y583969D01*
D02*
G37*
G36*
X1690490Y567770D02*
X1686831D01*
X1687487Y566185D01*
X1688905Y564768D01*
X1690490Y564111D01*
Y567770D01*
D02*
G37*
G36*
X1618621Y579008D02*
X1616831D01*
X1615177Y578323D01*
X1613911Y577057D01*
X1613226Y575404D01*
Y573613D01*
X1613271Y573505D01*
X1612984Y572999D01*
X1612192Y572190D01*
X1610735D01*
X1609081Y571505D01*
X1607815Y570239D01*
X1607130Y568585D01*
Y566795D01*
X1607815Y565141D01*
X1609081Y563875D01*
X1610735Y563190D01*
X1612525D01*
X1614179Y563875D01*
X1615445Y565141D01*
X1616130Y566795D01*
Y568585D01*
X1616085Y568694D01*
X1616372Y569199D01*
X1617164Y570008D01*
X1618621D01*
X1620275Y570694D01*
X1621541Y571959D01*
X1622226Y573613D01*
Y575404D01*
X1621541Y577057D01*
X1620275Y578323D01*
X1618621Y579008D01*
D02*
G37*
G36*
X1599825Y569650D02*
X1598035D01*
X1596381Y568965D01*
X1595115Y567699D01*
X1594430Y566045D01*
Y564255D01*
X1595115Y562601D01*
X1596381Y561335D01*
X1598035Y560650D01*
X1599825D01*
X1601479Y561335D01*
X1602745Y562601D01*
X1603430Y564255D01*
Y566045D01*
X1602745Y567699D01*
X1601479Y568965D01*
X1599825Y569650D01*
D02*
G37*
G36*
X1519815Y563300D02*
X1518025D01*
X1516371Y562615D01*
X1515105Y561349D01*
X1514420Y559695D01*
Y557905D01*
X1515105Y556251D01*
X1516371Y554985D01*
X1518025Y554300D01*
X1519815D01*
X1521469Y554985D01*
X1522735Y556251D01*
X1523420Y557905D01*
Y559695D01*
X1522735Y561349D01*
X1521469Y562615D01*
X1519815Y563300D01*
D02*
G37*
G36*
X1644273Y546789D02*
X1642688Y546133D01*
X1641270Y544715D01*
X1640854Y543712D01*
X1639231D01*
X1638815Y544715D01*
X1637397Y546133D01*
X1635812Y546789D01*
Y541860D01*
X1633272D01*
Y546789D01*
X1631687Y546133D01*
X1630270Y544715D01*
X1629854Y543712D01*
X1628230D01*
X1627815Y544715D01*
X1626397Y546133D01*
X1624812Y546789D01*
Y541860D01*
X1623542D01*
Y540590D01*
X1618613D01*
X1619269Y539005D01*
X1620687Y537588D01*
X1621691Y537172D01*
Y535548D01*
X1620687Y535133D01*
X1619269Y533715D01*
X1618613Y532130D01*
X1623542D01*
Y529590D01*
X1618613D01*
X1619269Y528005D01*
X1620687Y526587D01*
X1621691Y526172D01*
Y524548D01*
X1620687Y524132D01*
X1619269Y522715D01*
X1618613Y521130D01*
X1623542D01*
Y519860D01*
X1624812D01*
Y514931D01*
X1626397Y515587D01*
X1627815Y517005D01*
X1628230Y518008D01*
X1629854D01*
X1630270Y517005D01*
X1631687Y515587D01*
X1633272Y514931D01*
Y519860D01*
X1635812D01*
Y514931D01*
X1637397Y515587D01*
X1638815Y517005D01*
X1639231Y518008D01*
X1640854D01*
X1641270Y517005D01*
X1642688Y515587D01*
X1644273Y514931D01*
Y519860D01*
X1645543D01*
Y521130D01*
X1650472D01*
X1649815Y522715D01*
X1648398Y524132D01*
X1647394Y524548D01*
Y526172D01*
X1648398Y526587D01*
X1649815Y528005D01*
X1650472Y529590D01*
X1645543D01*
Y532130D01*
X1650472D01*
X1649815Y533715D01*
X1648398Y535133D01*
X1647394Y535548D01*
Y537172D01*
X1648398Y537588D01*
X1649815Y539005D01*
X1650472Y540590D01*
X1645543D01*
Y541860D01*
X1644273D01*
Y546789D01*
D02*
G37*
G36*
X1646813D02*
Y543130D01*
X1650472D01*
X1649815Y544715D01*
X1648398Y546133D01*
X1646813Y546789D01*
D02*
G37*
G36*
X1622272D02*
X1620687Y546133D01*
X1619269Y544715D01*
X1618613Y543130D01*
X1622272D01*
Y546789D01*
D02*
G37*
G36*
X1554265Y550600D02*
X1552475D01*
X1550821Y549915D01*
X1549555Y548649D01*
X1548870Y546995D01*
Y545205D01*
X1549555Y543551D01*
X1550821Y542285D01*
X1552475Y541600D01*
X1554265D01*
X1555919Y542285D01*
X1557185Y543551D01*
X1557870Y545205D01*
Y546995D01*
X1557185Y548649D01*
X1555919Y549915D01*
X1554265Y550600D01*
D02*
G37*
G36*
X1508639D02*
X1506849D01*
X1505195Y549915D01*
X1503929Y548649D01*
X1503244Y546995D01*
Y545205D01*
X1503929Y543551D01*
X1505195Y542285D01*
X1506849Y541600D01*
X1508639D01*
X1510293Y542285D01*
X1511559Y543551D01*
X1512244Y545205D01*
Y546995D01*
X1511559Y548649D01*
X1510293Y549915D01*
X1508639Y550600D01*
D02*
G37*
G36*
X1650472Y518590D02*
X1646813D01*
Y514931D01*
X1648398Y515587D01*
X1649815Y517005D01*
X1650472Y518590D01*
D02*
G37*
G36*
X1622272D02*
X1618613D01*
X1619269Y517005D01*
X1620687Y515587D01*
X1622272Y514931D01*
Y518590D01*
D02*
G37*
G36*
X1601095Y515040D02*
X1599305D01*
X1597651Y514355D01*
X1596385Y513089D01*
X1595700Y511435D01*
Y509645D01*
X1596385Y507991D01*
X1597651Y506725D01*
X1599305Y506040D01*
X1601095D01*
X1602749Y506725D01*
X1604015Y507991D01*
X1604700Y509645D01*
Y511435D01*
X1604015Y513089D01*
X1602749Y514355D01*
X1601095Y515040D01*
D02*
G37*
G36*
X1397650Y507411D02*
X1394920D01*
Y501580D01*
X1404584D01*
X1404509Y502148D01*
X1403800Y503860D01*
X1402671Y505331D01*
X1401201Y506459D01*
X1399488Y507169D01*
X1397650Y507411D01*
D02*
G37*
G36*
X1392380D02*
X1389650D01*
X1387812Y507169D01*
X1386100Y506459D01*
X1384629Y505331D01*
X1383501Y503860D01*
X1382791Y502148D01*
X1382717Y501580D01*
X1392380D01*
Y507411D01*
D02*
G37*
G36*
X1441884Y585540D02*
X1427450D01*
X1413017D01*
X1413091Y584972D01*
X1413801Y583260D01*
X1414929Y581789D01*
X1416400Y580661D01*
X1418112Y579951D01*
X1419950Y579709D01*
X1420150D01*
X1420461Y578263D01*
X1420461Y578209D01*
X1418842Y576590D01*
X1418009Y574580D01*
X1423750D01*
Y572040D01*
X1418009D01*
X1418842Y570030D01*
X1419508Y569364D01*
X1419723Y567501D01*
X1419000Y565755D01*
Y563865D01*
X1419723Y562119D01*
X1420303Y561540D01*
X1420919Y560560D01*
X1420303Y559580D01*
X1419723Y559001D01*
X1419000Y557255D01*
Y555365D01*
X1419723Y553619D01*
X1420303Y553040D01*
X1420919Y552060D01*
X1420303Y551080D01*
X1419723Y550501D01*
X1419000Y548755D01*
Y546865D01*
X1419723Y545119D01*
X1420303Y544540D01*
X1420919Y543560D01*
X1420303Y542580D01*
X1419723Y542001D01*
X1419000Y540255D01*
Y538365D01*
X1419723Y536619D01*
X1420303Y536040D01*
X1420919Y535060D01*
X1420303Y534080D01*
X1419723Y533501D01*
X1419000Y531755D01*
Y529865D01*
X1419723Y528120D01*
X1420303Y527540D01*
X1420919Y526560D01*
X1420303Y525580D01*
X1419723Y525000D01*
X1419000Y523255D01*
Y521365D01*
X1419723Y519619D01*
X1419508Y517756D01*
X1418842Y517090D01*
X1418009Y515080D01*
X1423750D01*
Y512540D01*
X1418009D01*
X1418842Y510530D01*
X1420461Y508911D01*
X1420461Y508857D01*
X1420150Y507411D01*
X1419950D01*
X1418112Y507169D01*
X1416400Y506459D01*
X1414929Y505331D01*
X1413801Y503860D01*
X1413091Y502148D01*
X1413017Y501580D01*
X1427450D01*
X1441884D01*
X1441809Y502148D01*
X1441100Y503860D01*
X1439971Y505331D01*
X1438500Y506459D01*
X1438354Y506520D01*
X1438389Y507631D01*
X1438527Y508072D01*
X1440530Y508901D01*
X1442158Y510530D01*
X1442991Y512540D01*
X1437250D01*
Y515080D01*
X1442991D01*
X1442158Y517090D01*
X1441514Y517735D01*
X1441277Y519619D01*
X1442000Y521365D01*
Y523255D01*
X1441277Y525000D01*
X1440697Y525580D01*
X1440081Y526560D01*
X1440697Y527540D01*
X1441277Y528120D01*
X1442000Y529865D01*
Y531755D01*
X1441277Y533501D01*
X1440697Y534080D01*
X1440081Y535060D01*
X1440697Y536040D01*
X1441277Y536619D01*
X1442000Y538365D01*
Y540255D01*
X1441277Y542001D01*
X1440697Y542580D01*
X1440081Y543560D01*
X1440697Y544540D01*
X1441277Y545119D01*
X1442000Y546865D01*
Y548755D01*
X1441277Y550501D01*
X1440697Y551080D01*
X1440081Y552060D01*
X1440697Y553040D01*
X1441277Y553619D01*
X1442000Y555365D01*
Y557255D01*
X1441277Y559001D01*
X1440697Y559580D01*
X1440081Y560560D01*
X1440697Y561540D01*
X1441277Y562119D01*
X1442000Y563865D01*
Y565755D01*
X1441277Y567501D01*
X1441514Y569385D01*
X1442158Y570030D01*
X1442991Y572040D01*
X1437250D01*
Y574580D01*
X1442991D01*
X1442158Y576590D01*
X1440530Y578218D01*
X1438527Y579048D01*
X1438389Y579489D01*
X1438354Y580600D01*
X1438500Y580661D01*
X1439971Y581789D01*
X1441100Y583260D01*
X1441809Y584972D01*
X1441884Y585540D01*
D02*
G37*
G36*
Y499040D02*
X1428720D01*
Y493209D01*
X1434950D01*
X1436788Y493451D01*
X1438500Y494160D01*
X1439971Y495289D01*
X1441100Y496759D01*
X1441809Y498472D01*
X1441884Y499040D01*
D02*
G37*
G36*
X1426180D02*
X1413017D01*
X1413091Y498472D01*
X1413801Y496759D01*
X1414929Y495289D01*
X1416400Y494160D01*
X1418112Y493451D01*
X1419950Y493209D01*
X1426180D01*
Y499040D01*
D02*
G37*
G36*
X1404584D02*
X1394920D01*
Y493209D01*
X1397650D01*
X1399488Y493451D01*
X1401201Y494160D01*
X1402671Y495289D01*
X1403800Y496759D01*
X1404509Y498472D01*
X1404584Y499040D01*
D02*
G37*
G36*
X1392380D02*
X1382717D01*
X1382791Y498472D01*
X1383501Y496759D01*
X1384629Y495289D01*
X1386100Y494160D01*
X1387812Y493451D01*
X1389650Y493209D01*
X1392380D01*
Y499040D01*
D02*
G37*
%LPD*%
D43*
X1750950Y777339D02*
D03*
Y768840D02*
D03*
Y760339D02*
D03*
Y751839D02*
D03*
Y743339D02*
D03*
Y734840D02*
D03*
Y726339D02*
D03*
Y717839D02*
D03*
X1737450D02*
D03*
Y726339D02*
D03*
Y734840D02*
D03*
Y743339D02*
D03*
Y751839D02*
D03*
Y760339D02*
D03*
Y768840D02*
D03*
Y777339D02*
D03*
X1423750Y573310D02*
D03*
Y513810D02*
D03*
X1437250Y573310D02*
D03*
Y513810D02*
D03*
X1423750Y564810D02*
D03*
Y556310D02*
D03*
Y547810D02*
D03*
Y539310D02*
D03*
Y530810D02*
D03*
Y522310D02*
D03*
X1437250D02*
D03*
Y530810D02*
D03*
Y539310D02*
D03*
Y547810D02*
D03*
Y556310D02*
D03*
Y564810D02*
D03*
X1520190Y844550D02*
D03*
X1615440Y908050D02*
D03*
X1715770Y650240D02*
D03*
X1713230Y783590D02*
D03*
X1673860Y745490D02*
D03*
D44*
X1747250Y704339D02*
D03*
Y790839D02*
D03*
X1427450Y500310D02*
D03*
Y586810D02*
D03*
D45*
X1781050Y704339D02*
D03*
Y790839D02*
D03*
X1393650Y500310D02*
D03*
Y586810D02*
D03*
D46*
X1422080Y641370D02*
D03*
Y721370D02*
D03*
X1402080D02*
D03*
Y781370D02*
D03*
Y761370D02*
D03*
Y741370D02*
D03*
Y701370D02*
D03*
Y681370D02*
D03*
Y661370D02*
D03*
Y641370D02*
D03*
Y621370D02*
D03*
X1422080Y801370D02*
D03*
Y781370D02*
D03*
Y761370D02*
D03*
Y741370D02*
D03*
Y701370D02*
D03*
Y681370D02*
D03*
Y661370D02*
D03*
Y621370D02*
D03*
D47*
X1402080Y801370D02*
D03*
D52*
X1430782Y539310D02*
X1437250D01*
X1430528Y539564D02*
X1430782Y539310D01*
X1430528Y539564D02*
Y547556D01*
X1430274Y547810D02*
X1430528Y547556D01*
X1423750Y547810D02*
X1430274D01*
D56*
X1713840Y845820D02*
D03*
X1704340Y851570D02*
D03*
Y840070D02*
D03*
X1694840Y845820D02*
D03*
X1623542Y519860D02*
D03*
Y530860D02*
D03*
X1634542D02*
D03*
X1623542Y541860D02*
D03*
X1634542D02*
D03*
Y519860D02*
D03*
X1645543Y541860D02*
D03*
Y519860D02*
D03*
Y530860D02*
D03*
X1691760Y569040D02*
D03*
X1706760D02*
D03*
X1699260Y574040D02*
D03*
X1691760Y579040D02*
D03*
X1706760D02*
D03*
D57*
X1727708Y720090D02*
D03*
X1611630Y661100D02*
D03*
X1662938Y857754D02*
D03*
X1519550Y817880D02*
D03*
X1560830Y813220D02*
D03*
X1666076Y813183D02*
D03*
X1648460Y722790D02*
D03*
X1611630Y567690D02*
D03*
X1600200Y510540D02*
D03*
X1695450Y801370D02*
D03*
X1497330Y868680D02*
D03*
X1518920Y558800D02*
D03*
X1598930Y565150D02*
D03*
X1538478Y777240D02*
D03*
X1494440Y821278D02*
D03*
X1677865Y652585D02*
D03*
X1646682Y670052D02*
D03*
X1499870Y840662D02*
D03*
X1447292Y847320D02*
D03*
X1590306Y875313D02*
D03*
X1619250Y762000D02*
D03*
X1541780Y590550D02*
D03*
X1599184Y588264D02*
D03*
X1538602Y810898D02*
D03*
X1595387Y595630D02*
D03*
X1547241Y723900D02*
D03*
X1518158Y576834D02*
D03*
X1538732Y741680D02*
D03*
X1578242Y747377D02*
D03*
X1617726Y574508D02*
D03*
X1507744Y546100D02*
D03*
X1553370D02*
D03*
X1478686Y822985D02*
D03*
X1577606Y873252D02*
D03*
Y902462D02*
D03*
X1636776Y806196D02*
D03*
X1584706Y772160D02*
D03*
X1541526Y641096D02*
D03*
X1463802Y818896D02*
D03*
X1659128Y765048D02*
D03*
M02*
