G04*
G04 #@! TF.GenerationSoftware,Altium Limited,Altium Designer,26.2.0 (7)*
G04*
G04 Layer_Color=128*
%FSLAX44Y44*%
%MOMM*%
G71*
G04*
G04 #@! TF.SameCoordinates,F9C0969B-AC44-43A8-838D-76D65E8214DD*
G04*
G04*
G04 #@! TF.FilePolarity,Positive*
G04*
G01*
G75*
%ADD106C,0.1270*%
D106*
X1748950Y777339D02*
X1752950D01*
X1750950Y775339D02*
Y779339D01*
X1748950Y768840D02*
X1752950D01*
X1750950Y766840D02*
Y770840D01*
X1748950Y760339D02*
X1752950D01*
X1750950Y758339D02*
Y762339D01*
X1748950Y751839D02*
X1752950D01*
X1750950Y749839D02*
Y753839D01*
X1748950Y743339D02*
X1752950D01*
X1750950Y741339D02*
Y745340D01*
X1748950Y734840D02*
X1752950D01*
X1750950Y732840D02*
Y736840D01*
X1748950Y726339D02*
X1752950D01*
X1750950Y724339D02*
Y728339D01*
X1748950Y717839D02*
X1752950D01*
X1750950Y715839D02*
Y719839D01*
X1735450Y717839D02*
X1739450D01*
X1737450Y715839D02*
Y719839D01*
X1735450Y726339D02*
X1739450D01*
X1737450Y724339D02*
Y728339D01*
X1735450Y734840D02*
X1739450D01*
X1737450Y732840D02*
Y736840D01*
X1735450Y743339D02*
X1739450D01*
X1737450Y741339D02*
Y745340D01*
X1735450Y751839D02*
X1739450D01*
X1737450Y749839D02*
Y753839D01*
X1735450Y760339D02*
X1739450D01*
X1737450Y758339D02*
Y762339D01*
X1735450Y768840D02*
X1739450D01*
X1737450Y766840D02*
Y770840D01*
X1735450Y777339D02*
X1739450D01*
X1737450Y775339D02*
Y779339D01*
X1736750Y704339D02*
X1757750D01*
X1747250Y693839D02*
Y714839D01*
X1736750Y790839D02*
X1757750D01*
X1747250Y780340D02*
Y801339D01*
X1774050Y704339D02*
X1788050D01*
X1781050Y697339D02*
Y711339D01*
X1774050Y790839D02*
X1788050D01*
X1781050Y783839D02*
Y797840D01*
X1386650Y500310D02*
X1400650D01*
X1393650Y493310D02*
Y507310D01*
X1416950Y500310D02*
X1437950D01*
X1427450Y489810D02*
Y510810D01*
X1421750Y573310D02*
X1425750D01*
X1423750Y571310D02*
Y575310D01*
X1421750Y513810D02*
X1425750D01*
X1423750Y511810D02*
Y515810D01*
X1435250Y573310D02*
X1439250D01*
X1437250Y571310D02*
Y575310D01*
X1435250Y513810D02*
X1439250D01*
X1437250Y511810D02*
Y515810D01*
X1386650Y586810D02*
X1400650D01*
X1393650Y579810D02*
Y593810D01*
X1416950Y586810D02*
X1437950D01*
X1427450Y576310D02*
Y597310D01*
X1417630Y641370D02*
X1426530D01*
X1422080Y636920D02*
Y645820D01*
X1417630Y721370D02*
X1426530D01*
X1422080Y716920D02*
Y725820D01*
X1397630Y721370D02*
X1406530D01*
X1402080Y716920D02*
Y725820D01*
X1397630Y801370D02*
X1406530D01*
X1402080Y796920D02*
Y805820D01*
X1397630Y781370D02*
X1406530D01*
X1402080Y776920D02*
Y785820D01*
X1397630Y761370D02*
X1406530D01*
X1402080Y756920D02*
Y765820D01*
X1397630Y741370D02*
X1406530D01*
X1402080Y736920D02*
Y745820D01*
X1397630Y701370D02*
X1406530D01*
X1402080Y696920D02*
Y705820D01*
X1397630Y681370D02*
X1406530D01*
X1402080Y676920D02*
Y685820D01*
X1397630Y661370D02*
X1406530D01*
X1402080Y656920D02*
Y665820D01*
X1397630Y641370D02*
X1406530D01*
X1402080Y636920D02*
Y645820D01*
X1397630Y621370D02*
X1406530D01*
X1402080Y616920D02*
Y625820D01*
X1417630Y801370D02*
X1426530D01*
X1422080Y796920D02*
Y805820D01*
X1417630Y781370D02*
X1426530D01*
X1422080Y776920D02*
Y785820D01*
X1417630Y761370D02*
X1426530D01*
X1422080Y756920D02*
Y765820D01*
X1417630Y741370D02*
X1426530D01*
X1422080Y736920D02*
Y745820D01*
X1417630Y701370D02*
X1426530D01*
X1422080Y696920D02*
Y705820D01*
X1417630Y681370D02*
X1426530D01*
X1422080Y676920D02*
Y685820D01*
X1417630Y661370D02*
X1426530D01*
X1422080Y656920D02*
Y665820D01*
X1417630Y621370D02*
X1426530D01*
X1422080Y616920D02*
Y625820D01*
X1421750Y564810D02*
X1425750D01*
X1423750Y562810D02*
Y566810D01*
X1421750Y556310D02*
X1425750D01*
X1423750Y554310D02*
Y558310D01*
X1421750Y547810D02*
X1425750D01*
X1423750Y545810D02*
Y549810D01*
X1421750Y539310D02*
X1425750D01*
X1423750Y537310D02*
Y541310D01*
X1421750Y530810D02*
X1425750D01*
X1423750Y528810D02*
Y532810D01*
X1421750Y522310D02*
X1425750D01*
X1423750Y520310D02*
Y524310D01*
X1435250Y522310D02*
X1439250D01*
X1437250Y520310D02*
Y524310D01*
X1435250Y530810D02*
X1439250D01*
X1437250Y528810D02*
Y532810D01*
X1435250Y539310D02*
X1439250D01*
X1437250Y537310D02*
Y541310D01*
X1435250Y547810D02*
X1439250D01*
X1437250Y545810D02*
Y549810D01*
X1435250Y556310D02*
X1439250D01*
X1437250Y554310D02*
Y558310D01*
X1435250Y564810D02*
X1439250D01*
X1437250Y562810D02*
Y566810D01*
X1712840Y845820D02*
X1714840D01*
X1713840Y844820D02*
Y846820D01*
X1703340Y851570D02*
X1705340D01*
X1704340Y850570D02*
Y852570D01*
X1703340Y840070D02*
X1705340D01*
X1704340Y839070D02*
Y841070D01*
X1693840Y845820D02*
X1695840D01*
X1694840Y844820D02*
Y846820D01*
X1725958Y720090D02*
X1729458D01*
X1727708Y718340D02*
Y721840D01*
X1609880Y661100D02*
X1613380D01*
X1611630Y659350D02*
Y662850D01*
X1518190Y844550D02*
X1522190D01*
X1520190Y842550D02*
Y846550D01*
X1613440Y908050D02*
X1617440D01*
X1615440Y906050D02*
Y910050D01*
X1622542Y519860D02*
X1624542D01*
X1623542Y518860D02*
Y520860D01*
X1622542Y530860D02*
X1624542D01*
X1623542Y529860D02*
Y531860D01*
X1633542Y530860D02*
X1635542D01*
X1634542Y529860D02*
Y531860D01*
X1622542Y541860D02*
X1624542D01*
X1623542Y540860D02*
Y542860D01*
X1633542Y541860D02*
X1635542D01*
X1634542Y540860D02*
Y542860D01*
X1633542Y519860D02*
X1635542D01*
X1634542Y518860D02*
Y520860D01*
X1644543Y541860D02*
X1646543D01*
X1645543Y540860D02*
Y542860D01*
X1644543Y519860D02*
X1646543D01*
X1645543Y518860D02*
Y520860D01*
X1644543Y530860D02*
X1646543D01*
X1645543Y529860D02*
Y531860D01*
X1690760Y569040D02*
X1692760D01*
X1691760Y568040D02*
Y570040D01*
X1705760Y569040D02*
X1707760D01*
X1706760Y568040D02*
Y570040D01*
X1698260Y574040D02*
X1700260D01*
X1699260Y573040D02*
Y575040D01*
X1690760Y579040D02*
X1692760D01*
X1691760Y578040D02*
Y580040D01*
X1705760Y579040D02*
X1707760D01*
X1706760Y578040D02*
Y580040D01*
X1713770Y650240D02*
X1717770D01*
X1715770Y648240D02*
Y652240D01*
X1661188Y857754D02*
X1664688D01*
X1662938Y856004D02*
Y859504D01*
X1711230Y783590D02*
X1715230D01*
X1713230Y781590D02*
Y785590D01*
X1517800Y817880D02*
X1521300D01*
X1519550Y816130D02*
Y819630D01*
X1559080Y813220D02*
X1562580D01*
X1560830Y811470D02*
Y814970D01*
X1664326Y813183D02*
X1667826D01*
X1666076Y811433D02*
Y814933D01*
X1671860Y745490D02*
X1675860D01*
X1673860Y743490D02*
Y747490D01*
X1646710Y722790D02*
X1650210D01*
X1648460Y721040D02*
Y724540D01*
X1609880Y567690D02*
X1613380D01*
X1611630Y565940D02*
Y569440D01*
X1598450Y510540D02*
X1601950D01*
X1600200Y508790D02*
Y512290D01*
X1693700Y801370D02*
X1697200D01*
X1695450Y799620D02*
Y803120D01*
X1495580Y868680D02*
X1499080D01*
X1497330Y866930D02*
Y870430D01*
X1517170Y558800D02*
X1520670D01*
X1518920Y557050D02*
Y560550D01*
X1597180Y565150D02*
X1600680D01*
X1598930Y563400D02*
Y566900D01*
X1536728Y777240D02*
X1540228D01*
X1538478Y775490D02*
Y778990D01*
X1492690Y821278D02*
X1496190D01*
X1494440Y819528D02*
Y823028D01*
X1676115Y652585D02*
X1679615D01*
X1677865Y650835D02*
Y654335D01*
X1644932Y670052D02*
X1648432D01*
X1646682Y668302D02*
Y671802D01*
X1498120Y840662D02*
X1501620D01*
X1499870Y838912D02*
Y842412D01*
X1445542Y847320D02*
X1449042D01*
X1447292Y845570D02*
Y849070D01*
X1588556Y875313D02*
X1592056D01*
X1590306Y873563D02*
Y877063D01*
X1617500Y762000D02*
X1621000D01*
X1619250Y760250D02*
Y763750D01*
X1540030Y590550D02*
X1543530D01*
X1541780Y588800D02*
Y592300D01*
X1597434Y588264D02*
X1600934D01*
X1599184Y586514D02*
Y590014D01*
X1536852Y810898D02*
X1540352D01*
X1538602Y809148D02*
Y812648D01*
X1593637Y595630D02*
X1597137D01*
X1595387Y593880D02*
Y597380D01*
X1545491Y723900D02*
X1548991D01*
X1547241Y722150D02*
Y725650D01*
X1516408Y576834D02*
X1519908D01*
X1518158Y575084D02*
Y578584D01*
X1536982Y741680D02*
X1540482D01*
X1538732Y739930D02*
Y743430D01*
X1576492Y747377D02*
X1579992D01*
X1578242Y745627D02*
Y749127D01*
X1615976Y574508D02*
X1619476D01*
X1617726Y572758D02*
Y576258D01*
X1505994Y546100D02*
X1509494D01*
X1507744Y544350D02*
Y547850D01*
X1551620Y546100D02*
X1555120D01*
X1553370Y544350D02*
Y547850D01*
X1476936Y822985D02*
X1480436D01*
X1478686Y821235D02*
Y824735D01*
X1575856Y873252D02*
X1579356D01*
X1577606Y871502D02*
Y875002D01*
X1575856Y902462D02*
X1579356D01*
X1577606Y900712D02*
Y904212D01*
X1635026Y806196D02*
X1638526D01*
X1636776Y804446D02*
Y807946D01*
X1582956Y772160D02*
X1586456D01*
X1584706Y770410D02*
Y773910D01*
X1539776Y641096D02*
X1543276D01*
X1541526Y639346D02*
Y642846D01*
X1462052Y818896D02*
X1465552D01*
X1463802Y817146D02*
Y820646D01*
X1657378Y765048D02*
X1660878D01*
X1659128Y763298D02*
Y766798D01*
M02*
