G04*
G04 #@! TF.GenerationSoftware,Altium Limited,Altium Designer,26.2.0 (7)*
G04*
G04 Layer_Color=65535*
%FSLAX44Y44*%
%MOMM*%
G71*
G04*
G04 #@! TF.SameCoordinates,F9C0969B-AC44-43A8-838D-76D65E8214DD*
G04*
G04*
G04 #@! TF.FilePolarity,Positive*
G04*
G01*
G75*
%ADD10C,0.2500*%
%ADD11C,0.5000*%
%ADD12C,0.2000*%
%ADD13C,0.2540*%
D10*
X1520800Y605280D02*
G03*
X1520800Y605280I-1250J0D01*
G01*
X1507870Y852112D02*
G03*
X1507870Y852112I-1250J0D01*
G01*
X1553456Y827258D02*
G03*
X1553456Y827258I-1250J0D01*
G01*
X1403330Y818620D02*
G03*
X1403330Y818620I-1250J0D01*
G01*
X1602793Y555860D02*
G03*
X1602793Y555860I-1250J0D01*
G01*
X1450700Y573310D02*
G03*
X1450700Y573310I-1250J0D01*
G01*
D11*
X1557406Y859508D02*
G03*
X1557406Y859508I-2500J0D01*
G01*
D12*
X1444150Y616030D02*
Y797030D01*
X1692900D02*
X1700150D01*
X1444150D02*
X1511300D01*
X1700150Y616030D02*
Y641130D01*
Y771930D02*
Y797030D01*
X1692900Y616030D02*
X1700150D01*
X1444150D02*
X1511300D01*
X1419370Y902362D02*
X1534870D01*
Y891113D02*
Y902362D01*
X1419370Y891113D02*
Y902362D01*
X1585000Y814303D02*
Y831028D01*
X1599725Y814303D02*
Y831028D01*
X1546656Y851258D02*
Y878258D01*
X1646656D01*
Y851258D02*
Y878258D01*
X1546656Y851258D02*
X1646656D01*
X1650000Y843280D02*
X1660000D01*
X1650000Y830580D02*
X1660000D01*
X1618992Y814304D02*
Y831028D01*
X1604268Y814304D02*
Y831028D01*
X1580458Y814304D02*
Y831028D01*
X1565733Y814304D02*
Y831028D01*
X1594580Y902916D02*
X1605080D01*
X1594620Y916026D02*
X1605120D01*
X1433930Y611220D02*
Y811520D01*
X1390230Y611220D02*
X1433930D01*
X1390230D02*
Y811520D01*
X1433930D01*
X1527819Y586238D02*
Y596238D01*
X1540519Y586238D02*
Y596238D01*
X1608042Y504360D02*
X1614542D01*
X1608042D02*
Y510860D01*
X1654542Y504360D02*
X1661042D01*
Y510860D01*
Y550860D02*
Y557360D01*
X1654542D02*
X1661042D01*
X1608042D02*
X1614542D01*
X1608042Y550860D02*
Y557360D01*
X1568370Y557395D02*
Y563895D01*
X1561120D02*
X1568370D01*
X1539370Y557395D02*
Y563895D01*
X1546620D01*
X1493285D02*
X1500535D01*
X1493285Y557395D02*
Y563895D01*
X1515035D02*
X1522285D01*
Y557395D02*
Y563895D01*
X1443200Y589310D02*
X1444350D01*
X1405900D02*
X1411700D01*
X1443200Y497810D02*
X1444350D01*
X1405900D02*
X1411700D01*
X1444350D02*
Y589310D01*
X1557604Y585137D02*
Y597337D01*
X1571501Y585084D02*
Y597284D01*
X1604743Y492003D02*
X1619468D01*
X1604743Y478277D02*
X1619468D01*
X1445880Y828970D02*
Y839970D01*
X1459880Y828970D02*
Y839970D01*
X1464423Y829899D02*
Y839899D01*
X1477123Y829899D02*
Y839899D01*
X1582310Y508000D02*
X1592310D01*
X1582310Y495300D02*
X1592310D01*
X1639312Y580513D02*
Y597237D01*
X1624588Y580513D02*
Y597237D01*
X1658579Y580513D02*
Y597237D01*
X1643855Y580513D02*
Y597237D01*
X1582310Y525780D02*
X1592310D01*
X1582310Y513080D02*
X1592310D01*
X1523277Y585084D02*
Y597284D01*
X1509380Y585138D02*
Y597337D01*
D13*
X1183561Y638254D02*
X1188799D01*
Y635634D01*
X1187926Y634761D01*
X1186180D01*
X1185307Y635634D01*
Y638254D01*
Y636507D02*
X1183561Y634761D01*
Y629523D02*
Y633015D01*
X1187053Y629523D01*
X1187926D01*
X1188799Y630396D01*
Y632142D01*
X1187926Y633015D01*
Y627777D02*
X1188799Y626904D01*
Y625158D01*
X1187926Y624285D01*
X1184434D01*
X1183561Y625158D01*
Y626904D01*
X1184434Y627777D01*
X1187926D01*
X1188799Y619047D02*
Y622539D01*
X1186180D01*
X1187053Y620793D01*
Y619920D01*
X1186180Y619047D01*
X1184434D01*
X1183561Y619920D01*
Y621666D01*
X1184434Y622539D01*
X1748314Y570072D02*
X1747441Y569199D01*
Y567453D01*
X1748314Y566580D01*
X1751806D01*
X1752679Y567453D01*
Y569199D01*
X1751806Y570072D01*
X1752679Y575310D02*
Y571818D01*
X1749187Y575310D01*
X1748314D01*
X1747441Y574437D01*
Y572691D01*
X1748314Y571818D01*
Y577056D02*
X1747441Y577929D01*
Y579675D01*
X1748314Y580548D01*
X1751806D01*
X1752679Y579675D01*
Y577929D01*
X1751806Y577056D01*
X1748314D01*
X1752679Y582294D02*
Y584040D01*
Y583167D01*
X1747441D01*
X1748314Y582294D01*
X1747441Y518399D02*
Y516653D01*
Y517526D01*
X1751806D01*
X1752679Y516653D01*
Y515779D01*
X1751806Y514907D01*
X1752679Y523637D02*
Y520145D01*
X1749187Y523637D01*
X1748314D01*
X1747441Y522764D01*
Y521018D01*
X1748314Y520145D01*
Y525383D02*
X1747441Y526256D01*
Y528002D01*
X1748314Y528875D01*
X1751806D01*
X1752679Y528002D01*
Y526256D01*
X1751806Y525383D01*
X1748314D01*
Y530621D02*
X1747441Y531494D01*
Y533241D01*
X1748314Y534114D01*
X1749187D01*
X1750060Y533241D01*
Y532367D01*
Y533241D01*
X1750933Y534114D01*
X1751806D01*
X1752679Y533241D01*
Y531494D01*
X1751806Y530621D01*
X1696641Y489506D02*
X1701006D01*
X1701879Y490379D01*
Y492126D01*
X1701006Y492999D01*
X1696641D01*
X1701879Y498237D02*
Y494745D01*
X1698387Y498237D01*
X1697514D01*
X1696641Y497364D01*
Y495618D01*
X1697514Y494745D01*
Y499983D02*
X1696641Y500856D01*
Y502602D01*
X1697514Y503475D01*
X1701006D01*
X1701879Y502602D01*
Y500856D01*
X1701006Y499983D01*
X1697514D01*
X1701879Y508713D02*
Y505221D01*
X1698387Y508713D01*
X1697514D01*
X1696641Y507840D01*
Y506094D01*
X1697514Y505221D01*
X1772841Y515779D02*
X1777206D01*
X1778079Y516653D01*
Y518399D01*
X1777206Y519272D01*
X1772841D01*
X1778079Y524510D02*
Y521018D01*
X1774587Y524510D01*
X1773714D01*
X1772841Y523637D01*
Y521891D01*
X1773714Y521018D01*
Y526256D02*
X1772841Y527129D01*
Y528875D01*
X1773714Y529748D01*
X1777206D01*
X1778079Y528875D01*
Y527129D01*
X1777206Y526256D01*
X1773714D01*
X1778079Y531494D02*
Y533241D01*
Y532367D01*
X1772841D01*
X1773714Y531494D01*
X1752679Y541576D02*
X1747441D01*
Y544196D01*
X1748314Y545069D01*
X1750060D01*
X1750933Y544196D01*
Y541576D01*
Y543323D02*
X1752679Y545069D01*
Y550307D02*
Y546815D01*
X1749187Y550307D01*
X1748314D01*
X1747441Y549434D01*
Y547688D01*
X1748314Y546815D01*
Y552053D02*
X1747441Y552926D01*
Y554672D01*
X1748314Y555545D01*
X1751806D01*
X1752679Y554672D01*
Y552926D01*
X1751806Y552053D01*
X1748314D01*
X1747441Y557291D02*
Y560784D01*
X1748314D01*
X1751806Y557291D01*
X1752679D01*
X1726009Y569516D02*
X1720771D01*
Y572136D01*
X1721644Y573009D01*
X1723390D01*
X1724263Y572136D01*
Y569516D01*
Y571263D02*
X1726009Y573009D01*
Y578247D02*
Y574755D01*
X1722517Y578247D01*
X1721644D01*
X1720771Y577374D01*
Y575628D01*
X1721644Y574755D01*
Y579993D02*
X1720771Y580866D01*
Y582612D01*
X1721644Y583485D01*
X1725136D01*
X1726009Y582612D01*
Y580866D01*
X1725136Y579993D01*
X1721644D01*
X1726009Y587850D02*
X1720771D01*
X1723390Y585231D01*
Y588723D01*
X1738709Y566977D02*
X1733471D01*
Y569596D01*
X1734344Y570469D01*
X1736090D01*
X1736963Y569596D01*
Y566977D01*
Y568723D02*
X1738709Y570469D01*
Y575707D02*
Y572215D01*
X1735217Y575707D01*
X1734344D01*
X1733471Y574834D01*
Y573088D01*
X1734344Y572215D01*
Y577453D02*
X1733471Y578326D01*
Y580072D01*
X1734344Y580945D01*
X1737836D01*
X1738709Y580072D01*
Y578326D01*
X1737836Y577453D01*
X1734344D01*
Y582691D02*
X1733471Y583564D01*
Y585311D01*
X1734344Y586184D01*
X1735217D01*
X1736090Y585311D01*
Y584437D01*
Y585311D01*
X1736963Y586184D01*
X1737836D01*
X1738709Y585311D01*
Y583564D01*
X1737836Y582691D01*
X1726009Y490379D02*
X1720771D01*
Y492999D01*
X1721644Y493872D01*
X1723390D01*
X1724263Y492999D01*
Y490379D01*
Y492126D02*
X1726009Y493872D01*
Y499110D02*
Y495618D01*
X1722517Y499110D01*
X1721644D01*
X1720771Y498237D01*
Y496491D01*
X1721644Y495618D01*
Y500856D02*
X1720771Y501729D01*
Y503475D01*
X1721644Y504348D01*
X1725136D01*
X1726009Y503475D01*
Y501729D01*
X1725136Y500856D01*
X1721644D01*
X1726009Y506094D02*
Y507840D01*
Y506967D01*
X1720771D01*
X1721644Y506094D01*
X1709341Y514510D02*
X1714579D01*
Y517129D01*
X1713706Y518002D01*
X1711960D01*
X1711087Y517129D01*
Y514510D01*
Y516256D02*
X1709341Y518002D01*
Y519748D02*
Y521494D01*
Y520621D01*
X1714579D01*
X1713706Y519748D01*
X1709341Y524113D02*
Y525859D01*
Y524986D01*
X1714579D01*
X1713706Y524113D01*
X1709341Y531970D02*
Y528478D01*
X1712833Y531970D01*
X1713706D01*
X1714579Y531097D01*
Y529351D01*
X1713706Y528478D01*
X1737836Y518399D02*
X1734344D01*
X1733471Y517526D01*
Y515779D01*
X1734344Y514907D01*
X1737836D01*
X1738709Y515779D01*
Y517526D01*
X1736963Y516653D02*
X1738709Y518399D01*
Y517526D02*
X1737836Y518399D01*
X1738709Y523637D02*
Y520145D01*
X1735217Y523637D01*
X1734344D01*
X1733471Y522764D01*
Y521018D01*
X1734344Y520145D01*
Y525383D02*
X1733471Y526256D01*
Y528002D01*
X1734344Y528875D01*
X1737836D01*
X1738709Y528002D01*
Y526256D01*
X1737836Y525383D01*
X1734344D01*
X1738709Y534114D02*
Y530621D01*
X1735217Y534114D01*
X1734344D01*
X1733471Y533241D01*
Y531494D01*
X1734344Y530621D01*
X1725136Y547212D02*
X1721644D01*
X1720771Y546339D01*
Y544593D01*
X1721644Y543719D01*
X1725136D01*
X1726009Y544593D01*
Y546339D01*
X1724263Y545466D02*
X1726009Y547212D01*
Y546339D02*
X1725136Y547212D01*
X1726009Y552450D02*
Y548958D01*
X1722517Y552450D01*
X1721644D01*
X1720771Y551577D01*
Y549831D01*
X1721644Y548958D01*
Y554196D02*
X1720771Y555069D01*
Y556815D01*
X1721644Y557688D01*
X1725136D01*
X1726009Y556815D01*
Y555069D01*
X1725136Y554196D01*
X1721644D01*
X1726009Y559434D02*
Y561180D01*
Y560307D01*
X1720771D01*
X1721644Y559434D01*
X1765379Y532210D02*
X1760141D01*
X1761887Y533956D01*
X1760141Y535703D01*
X1765379D01*
X1760141Y537449D02*
X1765379D01*
Y540068D01*
X1764506Y540941D01*
X1761014D01*
X1760141Y540068D01*
Y537449D01*
X1765379Y546179D02*
Y542687D01*
X1761887Y546179D01*
X1761014D01*
X1760141Y545306D01*
Y543560D01*
X1761014Y542687D01*
Y547925D02*
X1760141Y548798D01*
Y550544D01*
X1761014Y551417D01*
X1764506D01*
X1765379Y550544D01*
Y548798D01*
X1764506Y547925D01*
X1761014D01*
X1765379Y553163D02*
Y554910D01*
Y554037D01*
X1760141D01*
X1761014Y553163D01*
X1765379Y503078D02*
Y504824D01*
Y503951D01*
X1761014D01*
X1760141Y504824D01*
Y505697D01*
X1761014Y506571D01*
X1760141Y497840D02*
Y501332D01*
X1763633Y497840D01*
X1764506D01*
X1765379Y498713D01*
Y500459D01*
X1764506Y501332D01*
Y496094D02*
X1765379Y495221D01*
Y493475D01*
X1764506Y492602D01*
X1761014D01*
X1760141Y493475D01*
Y495221D01*
X1761014Y496094D01*
X1764506D01*
X1760141Y490856D02*
Y489109D01*
Y489983D01*
X1765379D01*
X1764506Y490856D01*
X1737836Y556855D02*
X1738709Y557728D01*
Y559474D01*
X1737836Y560347D01*
X1734344D01*
X1733471Y559474D01*
Y557728D01*
X1734344Y556855D01*
X1733471Y551617D02*
Y555109D01*
X1736963Y551617D01*
X1737836D01*
X1738709Y552490D01*
Y554236D01*
X1737836Y555109D01*
X1733471Y549870D02*
Y548124D01*
Y548997D01*
X1738709D01*
X1737836Y549870D01*
Y545505D02*
X1738709Y544632D01*
Y542886D01*
X1737836Y542013D01*
X1736963D01*
X1736090Y542886D01*
Y543759D01*
Y542886D01*
X1735217Y542013D01*
X1734344D01*
X1733471Y542886D01*
Y544632D01*
X1734344Y545505D01*
X1777206Y554315D02*
X1778079Y555188D01*
Y556934D01*
X1777206Y557807D01*
X1773714D01*
X1772841Y556934D01*
Y555188D01*
X1773714Y554315D01*
X1772841Y549076D02*
Y552569D01*
X1776333Y549076D01*
X1777206D01*
X1778079Y549950D01*
Y551696D01*
X1777206Y552569D01*
X1772841Y547330D02*
Y545584D01*
Y546457D01*
X1778079D01*
X1777206Y547330D01*
X1772841Y539473D02*
Y542965D01*
X1776333Y539473D01*
X1777206D01*
X1778079Y540346D01*
Y542092D01*
X1777206Y542965D01*
X1737836Y502642D02*
X1738709Y503515D01*
Y505261D01*
X1737836Y506134D01*
X1734344D01*
X1733471Y505261D01*
Y503515D01*
X1734344Y502642D01*
X1733471Y497403D02*
Y500896D01*
X1736963Y497403D01*
X1737836D01*
X1738709Y498276D01*
Y500023D01*
X1737836Y500896D01*
X1733471Y495657D02*
Y493911D01*
Y494784D01*
X1738709D01*
X1737836Y495657D01*
X1733471Y491292D02*
Y489546D01*
Y490419D01*
X1738709D01*
X1737836Y491292D01*
X1698784Y517565D02*
X1697911Y516692D01*
Y514946D01*
X1698784Y514073D01*
X1702276D01*
X1703149Y514946D01*
Y516692D01*
X1702276Y517565D01*
X1703149Y522803D02*
Y519311D01*
X1699657Y522803D01*
X1698784D01*
X1697911Y521930D01*
Y520184D01*
X1698784Y519311D01*
X1703149Y524550D02*
Y526296D01*
Y525423D01*
X1697911D01*
X1698784Y524550D01*
Y528915D02*
X1697911Y529788D01*
Y531534D01*
X1698784Y532407D01*
X1702276D01*
X1703149Y531534D01*
Y529788D01*
X1702276Y528915D01*
X1698784D01*
X1772444Y492999D02*
X1771571Y492126D01*
Y490379D01*
X1772444Y489506D01*
X1775936D01*
X1776809Y490379D01*
Y492126D01*
X1775936Y492999D01*
X1776809Y498237D02*
Y494745D01*
X1773317Y498237D01*
X1772444D01*
X1771571Y497364D01*
Y495618D01*
X1772444Y494745D01*
Y499983D02*
X1771571Y500856D01*
Y502602D01*
X1772444Y503475D01*
X1775936D01*
X1776809Y502602D01*
Y500856D01*
X1775936Y499983D01*
X1772444D01*
X1775936Y505221D02*
X1776809Y506094D01*
Y507840D01*
X1775936Y508713D01*
X1772444D01*
X1771571Y507840D01*
Y506094D01*
X1772444Y505221D01*
X1773317D01*
X1774190Y506094D01*
Y508713D01*
X1725136Y533161D02*
X1726009Y534034D01*
Y535780D01*
X1725136Y536654D01*
X1721644D01*
X1720771Y535780D01*
Y534034D01*
X1721644Y533161D01*
X1720771Y527923D02*
Y531415D01*
X1724263Y527923D01*
X1725136D01*
X1726009Y528796D01*
Y530542D01*
X1725136Y531415D01*
Y526177D02*
X1726009Y525304D01*
Y523558D01*
X1725136Y522685D01*
X1721644D01*
X1720771Y523558D01*
Y525304D01*
X1721644Y526177D01*
X1725136D01*
Y520939D02*
X1726009Y520066D01*
Y518320D01*
X1725136Y517447D01*
X1724263D01*
X1723390Y518320D01*
X1722517Y517447D01*
X1721644D01*
X1720771Y518320D01*
Y520066D01*
X1721644Y520939D01*
X1722517D01*
X1723390Y520066D01*
X1724263Y520939D01*
X1725136D01*
X1723390Y520066D02*
Y518320D01*
X1773714Y569199D02*
X1772841Y568326D01*
Y566580D01*
X1773714Y565706D01*
X1777206D01*
X1778079Y566580D01*
Y568326D01*
X1777206Y569199D01*
X1778079Y574437D02*
Y570945D01*
X1774587Y574437D01*
X1773714D01*
X1772841Y573564D01*
Y571818D01*
X1773714Y570945D01*
Y576183D02*
X1772841Y577056D01*
Y578802D01*
X1773714Y579675D01*
X1777206D01*
X1778079Y578802D01*
Y577056D01*
X1777206Y576183D01*
X1773714D01*
X1772841Y581421D02*
Y584913D01*
X1773714D01*
X1777206Y581421D01*
X1778079D01*
X1713706Y505221D02*
X1714579Y506094D01*
Y507840D01*
X1713706Y508713D01*
X1710214D01*
X1709341Y507840D01*
Y506094D01*
X1710214Y505221D01*
X1709341Y499983D02*
Y503475D01*
X1712833Y499983D01*
X1713706D01*
X1714579Y500856D01*
Y502602D01*
X1713706Y503475D01*
Y498237D02*
X1714579Y497364D01*
Y495618D01*
X1713706Y494745D01*
X1710214D01*
X1709341Y495618D01*
Y497364D01*
X1710214Y498237D01*
X1713706D01*
X1714579Y489506D02*
X1713706Y491253D01*
X1711960Y492999D01*
X1710214D01*
X1709341Y492126D01*
Y490379D01*
X1710214Y489506D01*
X1711087D01*
X1711960Y490379D01*
Y492999D01*
X1764506Y577611D02*
X1765379Y578484D01*
Y580230D01*
X1764506Y581104D01*
X1761014D01*
X1760141Y580230D01*
Y578484D01*
X1761014Y577611D01*
X1760141Y572373D02*
Y575865D01*
X1763633Y572373D01*
X1764506D01*
X1765379Y573246D01*
Y574992D01*
X1764506Y575865D01*
Y570627D02*
X1765379Y569754D01*
Y568008D01*
X1764506Y567135D01*
X1761014D01*
X1760141Y568008D01*
Y569754D01*
X1761014Y570627D01*
X1764506D01*
X1765379Y561897D02*
Y565389D01*
X1762760D01*
X1763633Y563643D01*
Y562770D01*
X1762760Y561897D01*
X1761014D01*
X1760141Y562770D01*
Y564516D01*
X1761014Y565389D01*
X1702276Y553481D02*
X1703149Y554354D01*
Y556101D01*
X1702276Y556973D01*
X1698784D01*
X1697911Y556101D01*
Y554354D01*
X1698784Y553481D01*
X1697911Y548243D02*
Y551735D01*
X1701403Y548243D01*
X1702276D01*
X1703149Y549116D01*
Y550862D01*
X1702276Y551735D01*
Y546497D02*
X1703149Y545624D01*
Y543878D01*
X1702276Y543005D01*
X1698784D01*
X1697911Y543878D01*
Y545624D01*
X1698784Y546497D01*
X1702276D01*
X1697911Y538639D02*
X1703149D01*
X1700530Y541259D01*
Y537766D01*
X1710214Y541259D02*
X1709341Y540386D01*
Y538639D01*
X1710214Y537766D01*
X1713706D01*
X1714579Y538639D01*
Y540386D01*
X1713706Y541259D01*
X1714579Y546497D02*
Y543005D01*
X1711087Y546497D01*
X1710214D01*
X1709341Y545624D01*
Y543878D01*
X1710214Y543005D01*
Y548243D02*
X1709341Y549116D01*
Y550862D01*
X1710214Y551735D01*
X1713706D01*
X1714579Y550862D01*
Y549116D01*
X1713706Y548243D01*
X1710214D01*
X1714579Y556973D02*
Y553481D01*
X1711087Y556973D01*
X1710214D01*
X1709341Y556101D01*
Y554354D01*
X1710214Y553481D01*
X1765379Y516374D02*
Y512882D01*
X1761887Y516374D01*
X1761014D01*
X1760141Y515501D01*
Y513755D01*
X1761014Y512882D01*
X1765379Y518120D02*
Y519866D01*
Y518993D01*
X1760141D01*
X1761014Y518120D01*
X1765379Y525105D02*
X1760141D01*
X1762760Y522486D01*
Y525978D01*
M02*
