G04*
G04 #@! TF.GenerationSoftware,Altium Limited,Altium Designer,26.2.0 (7)*
G04*
G04 Layer_Color=128*
%FSLAX44Y44*%
%MOMM*%
G71*
G04*
G04 #@! TF.SameCoordinates,F9C0969B-AC44-43A8-838D-76D65E8214DD*
G04*
G04*
G04 #@! TF.FilePolarity,Positive*
G04*
G01*
G75*
%ADD14R,0.5500X0.5000*%
%ADD15R,0.6000X0.4500*%
%ADD60R,0.5725X0.6153*%
G04:AMPARAMS|DCode=61|XSize=0.24mm|YSize=0.6mm|CornerRadius=0.0504mm|HoleSize=0mm|Usage=FLASHONLY|Rotation=180.000|XOffset=0mm|YOffset=0mm|HoleType=Round|Shape=RoundedRectangle|*
%AMROUNDEDRECTD61*
21,1,0.2400,0.4992,0,0,180.0*
21,1,0.1392,0.6000,0,0,180.0*
1,1,0.1008,-0.0696,0.2496*
1,1,0.1008,0.0696,0.2496*
1,1,0.1008,0.0696,-0.2496*
1,1,0.1008,-0.0696,-0.2496*
%
%ADD61ROUNDEDRECTD61*%
%ADD63R,1.2557X1.7582*%
%ADD64R,0.6000X0.5000*%
%ADD65R,0.5725X0.5682*%
%ADD67R,0.4682X0.4725*%
%ADD68R,0.4500X0.6000*%
%ADD69R,0.6500X0.9500*%
%ADD70R,0.4725X0.5153*%
G04:AMPARAMS|DCode=71|XSize=1.1mm|YSize=0.6mm|CornerRadius=0.051mm|HoleSize=0mm|Usage=FLASHONLY|Rotation=0.000|XOffset=0mm|YOffset=0mm|HoleType=Round|Shape=RoundedRectangle|*
%AMROUNDEDRECTD71*
21,1,1.1000,0.4980,0,0,0.0*
21,1,0.9980,0.6000,0,0,0.0*
1,1,0.1020,0.4990,-0.2490*
1,1,0.1020,-0.4990,-0.2490*
1,1,0.1020,-0.4990,0.2490*
1,1,0.1020,0.4990,0.2490*
%
%ADD71ROUNDEDRECTD71*%
%ADD72R,1.4000X1.2000*%
%ADD73R,0.6654X0.6725*%
%ADD74R,0.8000X0.9000*%
%ADD75R,0.8000X2.7000*%
%ADD76R,0.4725X0.4682*%
%ADD77R,1.0000X1.0000*%
%ADD78R,0.7000X0.7500*%
%ADD79R,0.9654X0.2425*%
G04:AMPARAMS|DCode=80|XSize=0.9654mm|YSize=0.2425mm|CornerRadius=0.1212mm|HoleSize=0mm|Usage=FLASHONLY|Rotation=180.000|XOffset=0mm|YOffset=0mm|HoleType=Round|Shape=RoundedRectangle|*
%AMROUNDEDRECTD80*
21,1,0.9654,0.0000,0,0,180.0*
21,1,0.7229,0.2425,0,0,180.0*
1,1,0.2425,-0.3614,0.0000*
1,1,0.2425,0.3614,0.0000*
1,1,0.2425,0.3614,0.0000*
1,1,0.2425,-0.3614,0.0000*
%
%ADD80ROUNDEDRECTD80*%
%ADD92R,1.0650X1.5000*%
%ADD93R,1.0650X1.5000*%
%ADD94R,1.0500X0.6800*%
%ADD95R,0.5000X0.2601*%
%ADD96R,0.5000X0.2600*%
G04:AMPARAMS|DCode=97|XSize=0.23mm|YSize=0.8mm|CornerRadius=0.0254mm|HoleSize=0mm|Usage=FLASHONLY|Rotation=180.000|XOffset=0mm|YOffset=0mm|HoleType=Round|Shape=RoundedRectangle|*
%AMROUNDEDRECTD97*
21,1,0.2300,0.7492,0,0,180.0*
21,1,0.1792,0.8000,0,0,180.0*
1,1,0.0508,-0.0896,0.3746*
1,1,0.0508,0.0896,0.3746*
1,1,0.0508,0.0896,-0.3746*
1,1,0.0508,-0.0896,-0.3746*
%
%ADD97ROUNDEDRECTD97*%
D14*
X1716460Y721286D02*
D03*
X1708960D02*
D03*
X1715710Y749300D02*
D03*
X1708210D02*
D03*
D15*
X1640840Y583260D02*
D03*
X1663700Y583260D02*
D03*
X1752600Y569290D02*
D03*
X1735577Y852840D02*
D03*
Y862340D02*
D03*
X1752600Y578790D02*
D03*
X1663700Y592760D02*
D03*
X1640840D02*
D03*
D60*
X1734820Y831899D02*
D03*
Y840471D02*
D03*
X1732280Y557054D02*
D03*
X1656080Y816292D02*
D03*
X1582420Y816134D02*
D03*
X1656080Y807720D02*
D03*
X1565276Y678180D02*
D03*
Y686751D02*
D03*
X1582420Y824706D02*
D03*
X1732280Y565626D02*
D03*
D61*
X1704340Y859820D02*
D03*
X1699340Y831820D02*
D03*
X1694340Y859820D02*
D03*
Y831820D02*
D03*
X1714340Y859820D02*
D03*
X1704340Y831820D02*
D03*
X1709340D02*
D03*
X1714340D02*
D03*
X1709340Y859820D02*
D03*
X1699340D02*
D03*
D63*
X1611630Y643890D02*
D03*
X1659682Y681990D02*
D03*
X1584105Y643890D02*
D03*
X1632158Y681990D02*
D03*
D64*
X1598080Y702310D02*
D03*
X1587080D02*
D03*
D65*
X1602740Y790311D02*
D03*
Y799354D02*
D03*
D67*
X1700742Y777240D02*
D03*
X1692699D02*
D03*
D68*
X1702580Y814040D02*
D03*
X1631460Y855280D02*
D03*
X1621960D02*
D03*
X1693080Y814040D02*
D03*
D69*
X1660000Y653420D02*
D03*
X1651000Y629920D02*
D03*
X1642000Y653420D02*
D03*
X1554590Y653100D02*
D03*
X1536590D02*
D03*
X1545591Y629600D02*
D03*
D70*
X1656080Y829334D02*
D03*
Y836906D02*
D03*
D71*
X1632497Y825988D02*
D03*
Y816488D02*
D03*
Y835488D02*
D03*
X1606497D02*
D03*
Y825988D02*
D03*
Y816488D02*
D03*
D72*
X1681480Y757180D02*
D03*
Y726180D02*
D03*
D73*
X1652226Y773430D02*
D03*
X1642154D02*
D03*
D74*
X1612505Y722790D02*
D03*
X1593505D02*
D03*
X1603005Y742790D02*
D03*
D75*
X1715340Y884590D02*
D03*
X1693340D02*
D03*
X1686990Y618490D02*
D03*
X1708990D02*
D03*
D76*
X1753870Y851781D02*
D03*
Y843738D02*
D03*
X1732280Y588222D02*
D03*
Y580179D02*
D03*
D77*
X1623060Y793360D02*
D03*
Y776360D02*
D03*
D78*
X1572260Y712470D02*
D03*
Y702970D02*
D03*
D79*
X1598616Y686518D02*
D03*
D80*
Y681518D02*
D03*
Y676518D02*
D03*
X1586544D02*
D03*
Y681518D02*
D03*
Y686518D02*
D03*
D92*
X1710665Y845849D02*
D03*
D93*
X1698015D02*
D03*
D94*
X1692912Y578540D02*
D03*
Y569540D02*
D03*
X1705612D02*
D03*
Y578540D02*
D03*
D95*
X1682962Y576540D02*
D03*
Y571540D02*
D03*
D96*
X1715562D02*
D03*
Y576540D02*
D03*
D97*
X1694260Y559290D02*
D03*
X1699260Y588790D02*
D03*
X1689260D02*
D03*
X1694260D02*
D03*
X1704260D02*
D03*
X1709260D02*
D03*
Y559290D02*
D03*
X1704260D02*
D03*
X1699260D02*
D03*
X1689260D02*
D03*
M02*
