G04*
G04 #@! TF.GenerationSoftware,Altium Limited,Altium Designer,26.2.0 (7)*
G04*
G04 Layer_Color=2752767*
%FSLAX44Y44*%
%MOMM*%
G71*
G04*
G04 #@! TF.SameCoordinates,F9C0969B-AC44-43A8-838D-76D65E8214DD*
G04*
G04*
G04 #@! TF.FilePolarity,Positive*
G04*
G01*
G75*
%ADD106C,0.1270*%
%ADD107C,0.1693*%
D106*
X1745870Y772259D02*
Y782419D01*
X1756030D01*
Y772259D01*
X1745870D01*
Y763760D02*
Y773920D01*
X1756030D01*
Y763760D01*
X1745870D01*
Y755259D02*
Y765419D01*
X1756030D01*
Y755259D01*
X1745870D01*
Y746759D02*
Y756919D01*
X1756030D01*
Y746759D01*
X1745870D01*
Y738260D02*
Y748419D01*
X1756030D01*
Y738260D01*
X1745870D01*
Y729760D02*
Y739920D01*
X1756030D01*
Y729760D01*
X1745870D01*
Y721259D02*
Y731419D01*
X1756030D01*
Y721259D01*
X1745870D01*
Y712759D02*
Y722919D01*
X1756030D01*
Y712759D01*
X1745870D01*
X1732370D02*
Y722919D01*
X1742530D01*
Y712759D01*
X1732370D01*
Y721259D02*
Y731419D01*
X1742530D01*
Y721259D01*
X1732370D01*
Y729760D02*
Y739920D01*
X1742530D01*
Y729760D01*
X1732370D01*
Y738260D02*
Y748419D01*
X1742530D01*
Y738260D01*
X1732370D01*
Y746759D02*
Y756919D01*
X1742530D01*
Y746759D01*
X1732370D01*
Y755259D02*
Y765419D01*
X1742530D01*
Y755259D01*
X1732370D01*
Y763760D02*
Y773920D01*
X1742530D01*
Y763760D01*
X1732370D01*
Y772259D02*
Y782419D01*
X1742530D01*
Y772259D01*
X1732370D01*
X1781050Y699259D02*
X1775970Y709419D01*
X1786130D01*
X1781050Y699259D01*
Y785760D02*
X1775970Y795919D01*
X1786130D01*
X1781050Y785760D01*
X1393650Y495230D02*
X1388570Y505390D01*
X1398730D01*
X1393650Y495230D01*
X1418670Y568230D02*
Y578390D01*
X1428830D01*
Y568230D01*
X1418670D01*
Y508730D02*
Y518890D01*
X1428830D01*
Y508730D01*
X1418670D01*
X1432170Y568230D02*
Y578390D01*
X1442330D01*
Y568230D01*
X1432170D01*
Y508730D02*
Y518890D01*
X1442330D01*
Y508730D01*
X1432170D01*
X1393650Y581730D02*
X1388570Y591890D01*
X1398730D01*
X1393650Y581730D01*
X1417000Y636290D02*
X1419540Y641370D01*
X1417000Y646450D01*
X1422080Y643910D01*
X1427160Y646450D01*
X1424620Y641370D01*
X1427160Y636290D01*
X1422080Y638830D01*
X1417000Y636290D01*
Y716290D02*
X1419540Y721370D01*
X1417000Y726450D01*
X1422080Y723910D01*
X1427160Y726450D01*
X1424620Y721370D01*
X1427160Y716290D01*
X1422080Y718830D01*
X1417000Y716290D01*
X1397000D02*
X1399540Y721370D01*
X1397000Y726450D01*
X1402080Y723910D01*
X1407160Y726450D01*
X1404620Y721370D01*
X1407160Y716290D01*
X1402080Y718830D01*
X1397000Y716290D01*
Y796290D02*
X1399540Y801370D01*
X1397000Y806450D01*
X1402080Y803910D01*
X1407160Y806450D01*
X1404620Y801370D01*
X1407160Y796290D01*
X1402080Y798830D01*
X1397000Y796290D01*
Y776290D02*
X1399540Y781370D01*
X1397000Y786450D01*
X1402080Y783910D01*
X1407160Y786450D01*
X1404620Y781370D01*
X1407160Y776290D01*
X1402080Y778830D01*
X1397000Y776290D01*
Y756290D02*
X1399540Y761370D01*
X1397000Y766450D01*
X1402080Y763910D01*
X1407160Y766450D01*
X1404620Y761370D01*
X1407160Y756290D01*
X1402080Y758830D01*
X1397000Y756290D01*
Y736290D02*
X1399540Y741370D01*
X1397000Y746450D01*
X1402080Y743910D01*
X1407160Y746450D01*
X1404620Y741370D01*
X1407160Y736290D01*
X1402080Y738830D01*
X1397000Y736290D01*
Y696290D02*
X1399540Y701370D01*
X1397000Y706450D01*
X1402080Y703910D01*
X1407160Y706450D01*
X1404620Y701370D01*
X1407160Y696290D01*
X1402080Y698830D01*
X1397000Y696290D01*
Y676290D02*
X1399540Y681370D01*
X1397000Y686450D01*
X1402080Y683910D01*
X1407160Y686450D01*
X1404620Y681370D01*
X1407160Y676290D01*
X1402080Y678830D01*
X1397000Y676290D01*
Y656290D02*
X1399540Y661370D01*
X1397000Y666450D01*
X1402080Y663910D01*
X1407160Y666450D01*
X1404620Y661370D01*
X1407160Y656290D01*
X1402080Y658830D01*
X1397000Y656290D01*
Y636290D02*
X1399540Y641370D01*
X1397000Y646450D01*
X1402080Y643910D01*
X1407160Y646450D01*
X1404620Y641370D01*
X1407160Y636290D01*
X1402080Y638830D01*
X1397000Y636290D01*
Y616290D02*
X1399540Y621370D01*
X1397000Y626450D01*
X1402080Y623910D01*
X1407160Y626450D01*
X1404620Y621370D01*
X1407160Y616290D01*
X1402080Y618830D01*
X1397000Y616290D01*
X1417000Y796290D02*
X1419540Y801370D01*
X1417000Y806450D01*
X1422080Y803910D01*
X1427160Y806450D01*
X1424620Y801370D01*
X1427160Y796290D01*
X1422080Y798830D01*
X1417000Y796290D01*
Y776290D02*
X1419540Y781370D01*
X1417000Y786450D01*
X1422080Y783910D01*
X1427160Y786450D01*
X1424620Y781370D01*
X1427160Y776290D01*
X1422080Y778830D01*
X1417000Y776290D01*
Y756290D02*
X1419540Y761370D01*
X1417000Y766450D01*
X1422080Y763910D01*
X1427160Y766450D01*
X1424620Y761370D01*
X1427160Y756290D01*
X1422080Y758830D01*
X1417000Y756290D01*
Y736290D02*
X1419540Y741370D01*
X1417000Y746450D01*
X1422080Y743910D01*
X1427160Y746450D01*
X1424620Y741370D01*
X1427160Y736290D01*
X1422080Y738830D01*
X1417000Y736290D01*
Y696290D02*
X1419540Y701370D01*
X1417000Y706450D01*
X1422080Y703910D01*
X1427160Y706450D01*
X1424620Y701370D01*
X1427160Y696290D01*
X1422080Y698830D01*
X1417000Y696290D01*
Y676290D02*
X1419540Y681370D01*
X1417000Y686450D01*
X1422080Y683910D01*
X1427160Y686450D01*
X1424620Y681370D01*
X1427160Y676290D01*
X1422080Y678830D01*
X1417000Y676290D01*
Y656290D02*
X1419540Y661370D01*
X1417000Y666450D01*
X1422080Y663910D01*
X1427160Y666450D01*
X1424620Y661370D01*
X1427160Y656290D01*
X1422080Y658830D01*
X1417000Y656290D01*
Y616290D02*
X1419540Y621370D01*
X1417000Y626450D01*
X1422080Y623910D01*
X1427160Y626450D01*
X1424620Y621370D01*
X1427160Y616290D01*
X1422080Y618830D01*
X1417000Y616290D01*
X1418670Y559730D02*
Y569890D01*
X1428830D01*
Y559730D01*
X1418670D01*
Y551230D02*
Y561390D01*
X1428830D01*
Y551230D01*
X1418670D01*
Y542730D02*
Y552890D01*
X1428830D01*
Y542730D01*
X1418670D01*
Y534230D02*
Y544390D01*
X1428830D01*
Y534230D01*
X1418670D01*
Y525730D02*
Y535890D01*
X1428830D01*
Y525730D01*
X1418670D01*
Y517230D02*
Y527390D01*
X1428830D01*
Y517230D01*
X1418670D01*
X1432170D02*
Y527390D01*
X1442330D01*
Y517230D01*
X1432170D01*
Y525730D02*
Y535890D01*
X1442330D01*
Y525730D01*
X1432170D01*
Y534230D02*
Y544390D01*
X1442330D01*
Y534230D01*
X1432170D01*
Y542730D02*
Y552890D01*
X1442330D01*
Y542730D01*
X1432170D01*
Y551230D02*
Y561390D01*
X1442330D01*
Y551230D01*
X1432170D01*
Y559730D02*
Y569890D01*
X1442330D01*
Y559730D01*
X1432170D01*
X1713840Y840740D02*
X1716380Y843280D01*
X1718920D01*
X1716380Y845820D01*
X1718920Y848360D01*
X1716380D01*
X1713840Y850900D01*
X1711300Y848360D01*
X1708760D01*
X1711300Y845820D01*
X1708760Y843280D01*
X1711300D01*
X1713840Y840740D01*
X1704340Y846490D02*
X1706880Y849030D01*
X1709420D01*
X1706880Y851570D01*
X1709420Y854110D01*
X1706880D01*
X1704340Y856650D01*
X1701800Y854110D01*
X1699260D01*
X1701800Y851570D01*
X1699260Y849030D01*
X1701800D01*
X1704340Y846490D01*
Y834990D02*
X1706880Y837530D01*
X1709420D01*
X1706880Y840070D01*
X1709420Y842610D01*
X1706880D01*
X1704340Y845150D01*
X1701800Y842610D01*
X1699260D01*
X1701800Y840070D01*
X1699260Y837530D01*
X1701800D01*
X1704340Y834990D01*
X1694840Y840740D02*
X1697380Y843280D01*
X1699920D01*
X1697380Y845820D01*
X1699920Y848360D01*
X1697380D01*
X1694840Y850900D01*
X1692300Y848360D01*
X1689760D01*
X1692300Y845820D01*
X1689760Y843280D01*
X1692300D01*
X1694840Y840740D01*
X1722628Y715010D02*
X1725168D01*
X1727708Y717550D01*
X1730248Y715010D01*
X1732788D01*
Y717550D01*
X1730248Y720090D01*
X1732788Y722630D01*
Y725170D01*
X1730248D01*
X1727708Y722630D01*
X1725168Y725170D01*
X1722628D01*
Y722630D01*
X1725168Y720090D01*
X1722628Y717550D01*
Y715010D01*
X1606550Y656020D02*
X1609090D01*
X1611630Y658560D01*
X1614170Y656020D01*
X1616710D01*
Y658560D01*
X1614170Y661100D01*
X1616710Y663640D01*
Y666180D01*
X1614170D01*
X1611630Y663640D01*
X1609090Y666180D01*
X1606550D01*
Y663640D01*
X1609090Y661100D01*
X1606550Y658560D01*
Y656020D01*
X1515110Y839470D02*
Y849630D01*
X1525270D01*
Y839470D01*
X1515110D01*
X1610360Y902970D02*
Y913130D01*
X1620520D01*
Y902970D01*
X1610360D01*
X1623542Y514780D02*
X1626082Y517320D01*
X1628622D01*
X1626082Y519860D01*
X1628622Y522400D01*
X1626082D01*
X1623542Y524940D01*
X1621002Y522400D01*
X1618462D01*
X1621002Y519860D01*
X1618462Y517320D01*
X1621002D01*
X1623542Y514780D01*
Y525780D02*
X1626082Y528320D01*
X1628622D01*
X1626082Y530860D01*
X1628622Y533400D01*
X1626082D01*
X1623542Y535940D01*
X1621002Y533400D01*
X1618462D01*
X1621002Y530860D01*
X1618462Y528320D01*
X1621002D01*
X1623542Y525780D01*
X1634542D02*
X1637082Y528320D01*
X1639622D01*
X1637082Y530860D01*
X1639622Y533400D01*
X1637082D01*
X1634542Y535940D01*
X1632002Y533400D01*
X1629462D01*
X1632002Y530860D01*
X1629462Y528320D01*
X1632002D01*
X1634542Y525780D01*
X1623542Y536780D02*
X1626082Y539320D01*
X1628622D01*
X1626082Y541860D01*
X1628622Y544400D01*
X1626082D01*
X1623542Y546940D01*
X1621002Y544400D01*
X1618462D01*
X1621002Y541860D01*
X1618462Y539320D01*
X1621002D01*
X1623542Y536780D01*
X1634542D02*
X1637082Y539320D01*
X1639622D01*
X1637082Y541860D01*
X1639622Y544400D01*
X1637082D01*
X1634542Y546940D01*
X1632002Y544400D01*
X1629462D01*
X1632002Y541860D01*
X1629462Y539320D01*
X1632002D01*
X1634542Y536780D01*
Y514780D02*
X1637082Y517320D01*
X1639622D01*
X1637082Y519860D01*
X1639622Y522400D01*
X1637082D01*
X1634542Y524940D01*
X1632002Y522400D01*
X1629462D01*
X1632002Y519860D01*
X1629462Y517320D01*
X1632002D01*
X1634542Y514780D01*
X1645543Y536780D02*
X1648083Y539320D01*
X1650623D01*
X1648083Y541860D01*
X1650623Y544400D01*
X1648083D01*
X1645543Y546940D01*
X1643003Y544400D01*
X1640463D01*
X1643003Y541860D01*
X1640463Y539320D01*
X1643003D01*
X1645543Y536780D01*
Y514780D02*
X1648083Y517320D01*
X1650623D01*
X1648083Y519860D01*
X1650623Y522400D01*
X1648083D01*
X1645543Y524940D01*
X1643003Y522400D01*
X1640463D01*
X1643003Y519860D01*
X1640463Y517320D01*
X1643003D01*
X1645543Y514780D01*
Y525780D02*
X1648083Y528320D01*
X1650623D01*
X1648083Y530860D01*
X1650623Y533400D01*
X1648083D01*
X1645543Y535940D01*
X1643003Y533400D01*
X1640463D01*
X1643003Y530860D01*
X1640463Y528320D01*
X1643003D01*
X1645543Y525780D01*
X1691760Y563960D02*
X1694300Y566500D01*
X1696840D01*
X1694300Y569040D01*
X1696840Y571580D01*
X1694300D01*
X1691760Y574120D01*
X1689220Y571580D01*
X1686680D01*
X1689220Y569040D01*
X1686680Y566500D01*
X1689220D01*
X1691760Y563960D01*
X1706760D02*
X1709300Y566500D01*
X1711840D01*
X1709300Y569040D01*
X1711840Y571580D01*
X1709300D01*
X1706760Y574120D01*
X1704220Y571580D01*
X1701680D01*
X1704220Y569040D01*
X1701680Y566500D01*
X1704220D01*
X1706760Y563960D01*
X1699260Y568960D02*
X1701800Y571500D01*
X1704340D01*
X1701800Y574040D01*
X1704340Y576580D01*
X1701800D01*
X1699260Y579120D01*
X1696720Y576580D01*
X1694180D01*
X1696720Y574040D01*
X1694180Y571500D01*
X1696720D01*
X1699260Y568960D01*
X1691760Y573960D02*
X1694300Y576500D01*
X1696840D01*
X1694300Y579040D01*
X1696840Y581580D01*
X1694300D01*
X1691760Y584120D01*
X1689220Y581580D01*
X1686680D01*
X1689220Y579040D01*
X1686680Y576500D01*
X1689220D01*
X1691760Y573960D01*
X1706760D02*
X1709300Y576500D01*
X1711840D01*
X1709300Y579040D01*
X1711840Y581580D01*
X1709300D01*
X1706760Y584120D01*
X1704220Y581580D01*
X1701680D01*
X1704220Y579040D01*
X1701680Y576500D01*
X1704220D01*
X1706760Y573960D01*
X1710690Y645160D02*
Y655320D01*
X1720850D01*
Y645160D01*
X1710690D01*
X1657858Y852674D02*
X1660398D01*
X1662938Y855214D01*
X1665478Y852674D01*
X1668018D01*
Y855214D01*
X1665478Y857754D01*
X1668018Y860294D01*
Y862834D01*
X1665478D01*
X1662938Y860294D01*
X1660398Y862834D01*
X1657858D01*
Y860294D01*
X1660398Y857754D01*
X1657858Y855214D01*
Y852674D01*
X1708150Y778510D02*
Y788670D01*
X1718310D01*
Y778510D01*
X1708150D01*
X1514470Y812800D02*
X1517010D01*
X1519550Y815340D01*
X1522090Y812800D01*
X1524630D01*
Y815340D01*
X1522090Y817880D01*
X1524630Y820420D01*
Y822960D01*
X1522090D01*
X1519550Y820420D01*
X1517010Y822960D01*
X1514470D01*
Y820420D01*
X1517010Y817880D01*
X1514470Y815340D01*
Y812800D01*
X1555750Y808140D02*
X1558290D01*
X1560830Y810680D01*
X1563370Y808140D01*
X1565910D01*
Y810680D01*
X1563370Y813220D01*
X1565910Y815760D01*
Y818300D01*
X1563370D01*
X1560830Y815760D01*
X1558290Y818300D01*
X1555750D01*
Y815760D01*
X1558290Y813220D01*
X1555750Y810680D01*
Y808140D01*
X1660996Y808103D02*
X1663536D01*
X1666076Y810643D01*
X1668616Y808103D01*
X1671156D01*
Y810643D01*
X1668616Y813183D01*
X1671156Y815723D01*
Y818263D01*
X1668616D01*
X1666076Y815723D01*
X1663536Y818263D01*
X1660996D01*
Y815723D01*
X1663536Y813183D01*
X1660996Y810643D01*
Y808103D01*
X1668780Y740410D02*
Y750570D01*
X1678940D01*
Y740410D01*
X1668780D01*
X1643380Y717710D02*
X1645920D01*
X1648460Y720250D01*
X1651000Y717710D01*
X1653540D01*
Y720250D01*
X1651000Y722790D01*
X1653540Y725330D01*
Y727870D01*
X1651000D01*
X1648460Y725330D01*
X1645920Y727870D01*
X1643380D01*
Y725330D01*
X1645920Y722790D01*
X1643380Y720250D01*
Y717710D01*
X1606550Y562610D02*
X1609090D01*
X1611630Y565150D01*
X1614170Y562610D01*
X1616710D01*
Y565150D01*
X1614170Y567690D01*
X1616710Y570230D01*
Y572770D01*
X1614170D01*
X1611630Y570230D01*
X1609090Y572770D01*
X1606550D01*
Y570230D01*
X1609090Y567690D01*
X1606550Y565150D01*
Y562610D01*
X1595120Y505460D02*
X1597660D01*
X1600200Y508000D01*
X1602740Y505460D01*
X1605280D01*
Y508000D01*
X1602740Y510540D01*
X1605280Y513080D01*
Y515620D01*
X1602740D01*
X1600200Y513080D01*
X1597660Y515620D01*
X1595120D01*
Y513080D01*
X1597660Y510540D01*
X1595120Y508000D01*
Y505460D01*
X1690370Y796290D02*
X1692910D01*
X1695450Y798830D01*
X1697990Y796290D01*
X1700530D01*
Y798830D01*
X1697990Y801370D01*
X1700530Y803910D01*
Y806450D01*
X1697990D01*
X1695450Y803910D01*
X1692910Y806450D01*
X1690370D01*
Y803910D01*
X1692910Y801370D01*
X1690370Y798830D01*
Y796290D01*
X1492250Y863600D02*
X1494790D01*
X1497330Y866140D01*
X1499870Y863600D01*
X1502410D01*
Y866140D01*
X1499870Y868680D01*
X1502410Y871220D01*
Y873760D01*
X1499870D01*
X1497330Y871220D01*
X1494790Y873760D01*
X1492250D01*
Y871220D01*
X1494790Y868680D01*
X1492250Y866140D01*
Y863600D01*
X1513840Y553720D02*
X1516380D01*
X1518920Y556260D01*
X1521460Y553720D01*
X1524000D01*
Y556260D01*
X1521460Y558800D01*
X1524000Y561340D01*
Y563880D01*
X1521460D01*
X1518920Y561340D01*
X1516380Y563880D01*
X1513840D01*
Y561340D01*
X1516380Y558800D01*
X1513840Y556260D01*
Y553720D01*
X1593850Y560070D02*
X1596390D01*
X1598930Y562610D01*
X1601470Y560070D01*
X1604010D01*
Y562610D01*
X1601470Y565150D01*
X1604010Y567690D01*
Y570230D01*
X1601470D01*
X1598930Y567690D01*
X1596390Y570230D01*
X1593850D01*
Y567690D01*
X1596390Y565150D01*
X1593850Y562610D01*
Y560070D01*
X1533398Y772160D02*
X1535938D01*
X1538478Y774700D01*
X1541018Y772160D01*
X1543558D01*
Y774700D01*
X1541018Y777240D01*
X1543558Y779780D01*
Y782320D01*
X1541018D01*
X1538478Y779780D01*
X1535938Y782320D01*
X1533398D01*
Y779780D01*
X1535938Y777240D01*
X1533398Y774700D01*
Y772160D01*
X1489360Y816198D02*
X1491900D01*
X1494440Y818738D01*
X1496980Y816198D01*
X1499520D01*
Y818738D01*
X1496980Y821278D01*
X1499520Y823818D01*
Y826358D01*
X1496980D01*
X1494440Y823818D01*
X1491900Y826358D01*
X1489360D01*
Y823818D01*
X1491900Y821278D01*
X1489360Y818738D01*
Y816198D01*
X1672785Y647505D02*
X1675325D01*
X1677865Y650045D01*
X1680405Y647505D01*
X1682945D01*
Y650045D01*
X1680405Y652585D01*
X1682945Y655125D01*
Y657665D01*
X1680405D01*
X1677865Y655125D01*
X1675325Y657665D01*
X1672785D01*
Y655125D01*
X1675325Y652585D01*
X1672785Y650045D01*
Y647505D01*
X1641602Y664972D02*
X1644142D01*
X1646682Y667512D01*
X1649222Y664972D01*
X1651762D01*
Y667512D01*
X1649222Y670052D01*
X1651762Y672592D01*
Y675132D01*
X1649222D01*
X1646682Y672592D01*
X1644142Y675132D01*
X1641602D01*
Y672592D01*
X1644142Y670052D01*
X1641602Y667512D01*
Y664972D01*
X1494790Y835582D02*
X1497330D01*
X1499870Y838122D01*
X1502410Y835582D01*
X1504950D01*
Y838122D01*
X1502410Y840662D01*
X1504950Y843202D01*
Y845742D01*
X1502410D01*
X1499870Y843202D01*
X1497330Y845742D01*
X1494790D01*
Y843202D01*
X1497330Y840662D01*
X1494790Y838122D01*
Y835582D01*
X1442212Y842240D02*
X1444752D01*
X1447292Y844780D01*
X1449832Y842240D01*
X1452372D01*
Y844780D01*
X1449832Y847320D01*
X1452372Y849860D01*
Y852400D01*
X1449832D01*
X1447292Y849860D01*
X1444752Y852400D01*
X1442212D01*
Y849860D01*
X1444752Y847320D01*
X1442212Y844780D01*
Y842240D01*
X1585226Y870233D02*
X1587766D01*
X1590306Y872773D01*
X1592846Y870233D01*
X1595386D01*
Y872773D01*
X1592846Y875313D01*
X1595386Y877853D01*
Y880393D01*
X1592846D01*
X1590306Y877853D01*
X1587766Y880393D01*
X1585226D01*
Y877853D01*
X1587766Y875313D01*
X1585226Y872773D01*
Y870233D01*
X1614170Y756920D02*
X1616710D01*
X1619250Y759460D01*
X1621790Y756920D01*
X1624330D01*
Y759460D01*
X1621790Y762000D01*
X1624330Y764540D01*
Y767080D01*
X1621790D01*
X1619250Y764540D01*
X1616710Y767080D01*
X1614170D01*
Y764540D01*
X1616710Y762000D01*
X1614170Y759460D01*
Y756920D01*
X1536700Y585470D02*
X1539240D01*
X1541780Y588010D01*
X1544320Y585470D01*
X1546860D01*
Y588010D01*
X1544320Y590550D01*
X1546860Y593090D01*
Y595630D01*
X1544320D01*
X1541780Y593090D01*
X1539240Y595630D01*
X1536700D01*
Y593090D01*
X1539240Y590550D01*
X1536700Y588010D01*
Y585470D01*
X1594104Y583184D02*
X1596644D01*
X1599184Y585724D01*
X1601724Y583184D01*
X1604264D01*
Y585724D01*
X1601724Y588264D01*
X1604264Y590804D01*
Y593344D01*
X1601724D01*
X1599184Y590804D01*
X1596644Y593344D01*
X1594104D01*
Y590804D01*
X1596644Y588264D01*
X1594104Y585724D01*
Y583184D01*
X1533522Y805818D02*
X1536062D01*
X1538602Y808358D01*
X1541142Y805818D01*
X1543682D01*
Y808358D01*
X1541142Y810898D01*
X1543682Y813438D01*
Y815978D01*
X1541142D01*
X1538602Y813438D01*
X1536062Y815978D01*
X1533522D01*
Y813438D01*
X1536062Y810898D01*
X1533522Y808358D01*
Y805818D01*
X1590307Y590550D02*
X1592847D01*
X1595387Y593090D01*
X1597927Y590550D01*
X1600467D01*
Y593090D01*
X1597927Y595630D01*
X1600467Y598170D01*
Y600710D01*
X1597927D01*
X1595387Y598170D01*
X1592847Y600710D01*
X1590307D01*
Y598170D01*
X1592847Y595630D01*
X1590307Y593090D01*
Y590550D01*
X1542161Y718820D02*
X1544701D01*
X1547241Y721360D01*
X1549781Y718820D01*
X1552321D01*
Y721360D01*
X1549781Y723900D01*
X1552321Y726440D01*
Y728980D01*
X1549781D01*
X1547241Y726440D01*
X1544701Y728980D01*
X1542161D01*
Y726440D01*
X1544701Y723900D01*
X1542161Y721360D01*
Y718820D01*
X1513078Y571754D02*
X1515618D01*
X1518158Y574294D01*
X1520698Y571754D01*
X1523238D01*
Y574294D01*
X1520698Y576834D01*
X1523238Y579374D01*
Y581914D01*
X1520698D01*
X1518158Y579374D01*
X1515618Y581914D01*
X1513078D01*
Y579374D01*
X1515618Y576834D01*
X1513078Y574294D01*
Y571754D01*
X1533652Y736600D02*
X1536192D01*
X1538732Y739140D01*
X1541272Y736600D01*
X1543812D01*
Y739140D01*
X1541272Y741680D01*
X1543812Y744220D01*
Y746760D01*
X1541272D01*
X1538732Y744220D01*
X1536192Y746760D01*
X1533652D01*
Y744220D01*
X1536192Y741680D01*
X1533652Y739140D01*
Y736600D01*
X1573162Y742297D02*
X1575702D01*
X1578242Y744837D01*
X1580782Y742297D01*
X1583322D01*
Y744837D01*
X1580782Y747377D01*
X1583322Y749917D01*
Y752457D01*
X1580782D01*
X1578242Y749917D01*
X1575702Y752457D01*
X1573162D01*
Y749917D01*
X1575702Y747377D01*
X1573162Y744837D01*
Y742297D01*
X1612646Y569428D02*
X1615186D01*
X1617726Y571968D01*
X1620266Y569428D01*
X1622806D01*
Y571968D01*
X1620266Y574508D01*
X1622806Y577048D01*
Y579588D01*
X1620266D01*
X1617726Y577048D01*
X1615186Y579588D01*
X1612646D01*
Y577048D01*
X1615186Y574508D01*
X1612646Y571968D01*
Y569428D01*
X1502664Y541020D02*
X1505204D01*
X1507744Y543560D01*
X1510284Y541020D01*
X1512824D01*
Y543560D01*
X1510284Y546100D01*
X1512824Y548640D01*
Y551180D01*
X1510284D01*
X1507744Y548640D01*
X1505204Y551180D01*
X1502664D01*
Y548640D01*
X1505204Y546100D01*
X1502664Y543560D01*
Y541020D01*
X1548290D02*
X1550830D01*
X1553370Y543560D01*
X1555910Y541020D01*
X1558450D01*
Y543560D01*
X1555910Y546100D01*
X1558450Y548640D01*
Y551180D01*
X1555910D01*
X1553370Y548640D01*
X1550830Y551180D01*
X1548290D01*
Y548640D01*
X1550830Y546100D01*
X1548290Y543560D01*
Y541020D01*
X1473606Y817905D02*
X1476146D01*
X1478686Y820445D01*
X1481226Y817905D01*
X1483766D01*
Y820445D01*
X1481226Y822985D01*
X1483766Y825525D01*
Y828065D01*
X1481226D01*
X1478686Y825525D01*
X1476146Y828065D01*
X1473606D01*
Y825525D01*
X1476146Y822985D01*
X1473606Y820445D01*
Y817905D01*
X1572526Y868172D02*
X1575066D01*
X1577606Y870712D01*
X1580146Y868172D01*
X1582686D01*
Y870712D01*
X1580146Y873252D01*
X1582686Y875792D01*
Y878332D01*
X1580146D01*
X1577606Y875792D01*
X1575066Y878332D01*
X1572526D01*
Y875792D01*
X1575066Y873252D01*
X1572526Y870712D01*
Y868172D01*
Y897382D02*
X1575066D01*
X1577606Y899922D01*
X1580146Y897382D01*
X1582686D01*
Y899922D01*
X1580146Y902462D01*
X1582686Y905002D01*
Y907542D01*
X1580146D01*
X1577606Y905002D01*
X1575066Y907542D01*
X1572526D01*
Y905002D01*
X1575066Y902462D01*
X1572526Y899922D01*
Y897382D01*
X1631696Y801116D02*
X1634236D01*
X1636776Y803656D01*
X1639316Y801116D01*
X1641856D01*
Y803656D01*
X1639316Y806196D01*
X1641856Y808736D01*
Y811276D01*
X1639316D01*
X1636776Y808736D01*
X1634236Y811276D01*
X1631696D01*
Y808736D01*
X1634236Y806196D01*
X1631696Y803656D01*
Y801116D01*
X1579626Y767080D02*
X1582166D01*
X1584706Y769620D01*
X1587246Y767080D01*
X1589786D01*
Y769620D01*
X1587246Y772160D01*
X1589786Y774700D01*
Y777240D01*
X1587246D01*
X1584706Y774700D01*
X1582166Y777240D01*
X1579626D01*
Y774700D01*
X1582166Y772160D01*
X1579626Y769620D01*
Y767080D01*
X1536446Y636016D02*
X1538986D01*
X1541526Y638556D01*
X1544066Y636016D01*
X1546606D01*
Y638556D01*
X1544066Y641096D01*
X1546606Y643636D01*
Y646176D01*
X1544066D01*
X1541526Y643636D01*
X1538986Y646176D01*
X1536446D01*
Y643636D01*
X1538986Y641096D01*
X1536446Y638556D01*
Y636016D01*
X1458722Y813816D02*
X1461262D01*
X1463802Y816356D01*
X1466342Y813816D01*
X1468882D01*
Y816356D01*
X1466342Y818896D01*
X1468882Y821436D01*
Y823976D01*
X1466342D01*
X1463802Y821436D01*
X1461262Y823976D01*
X1458722D01*
Y821436D01*
X1461262Y818896D01*
X1458722Y816356D01*
Y813816D01*
X1654048Y759968D02*
X1656588D01*
X1659128Y762508D01*
X1661668Y759968D01*
X1664208D01*
Y762508D01*
X1661668Y765048D01*
X1664208Y767588D01*
Y770128D01*
X1661668D01*
X1659128Y767588D01*
X1656588Y770128D01*
X1654048D01*
Y767588D01*
X1656588Y765048D01*
X1654048Y762508D01*
Y759968D01*
D107*
X1752330Y704339D02*
G03*
X1752330Y704339I-5080J0D01*
G01*
Y790839D02*
G03*
X1752330Y790839I-5080J0D01*
G01*
X1432530Y500310D02*
G03*
X1432530Y500310I-5080J0D01*
G01*
Y586810D02*
G03*
X1432530Y586810I-5080J0D01*
G01*
M02*
